<?xml version="1.0" encoding="UTF-8"?>
<svg id="Layer_2" data-name="Layer 2" xmlns="http://www.w3.org/2000/svg" viewBox="0 0 1084.46 1283.33">
  <defs>
    <style>
      .cls-1 {
        stroke-width: 0px;
        fill:  url(#gradient);
      }
    </style>
    <linearGradient id="gradient" gradientTransform="rotate(90)">
            <stop offset="0%" stop-color="#00cea8" />
            <stop offset="100%" stop-color="#bf61ff" />
        </linearGradient>
  </defs>
  <g id="Layer_1-2" data-name="Layer 1">
    <g>
      <path class="cls-1" d="M543.65,1032.06c-30.65,0-61.29.09-91.93-.07-7.31-.04-14.66-.53-21.91-1.47-16.17-2.09-26.66-11.21-31.31-26.84-1.13-3.81-2.07-7.72-2.6-11.66-8.28-61.64-30.49-118.39-60.74-172.25-9.45-16.83-19.6-33.28-29.55-49.83-22.33-37.14-42.98-75.1-58.56-115.69-13.94-36.33-23.14-73.72-25.31-112.57-2.89-51.71,7.7-100.78,32.47-146.33,46.77-86,117.99-138.92,214.52-157.44,61.27-11.75,121.92-10.95,181.6,8.38,61.69,19.98,114.9,53.08,153.83,105.85,40.84,55.34,61.66,117.79,58.98,186.84-1.69,43.62-13.48,85.33-29.66,125.79-12.9,32.24-29.28,62.73-46.71,92.67-12.06,20.72-24.63,41.14-36.52,61.96-22.21,38.88-40.8,79.34-51.19,123.14-2.61,11-4.61,22.15-6.87,33.23-1.33,6.52-2.39,13.11-3.97,19.57-6.57,26.81-17.17,35.75-44.64,36.11-33.3.45-66.62.11-99.93.11,0,.17,0,.34,0,.5ZM544.82,487.61c5.85,7.07,10.22,11.98,14.18,17.2,39.47,52.05,78.87,104.15,118.29,156.24,2.01,2.66,3.95,5.37,6.03,7.97,4.84,6.05,6.66,12.99,5.99,20.58-.47,5.31-.96,10.64-1.93,15.87-5.81,31.44-11.8,62.84-17.66,94.28-4.39,23.58-8.77,47.15-12.91,70.77-1.03,5.86-1.61,11.9-1.44,17.83.14,5.07,3.53,8.64,8.59,9.73,4.98,1.07,6.77-2.59,8.58-6.37,9.47-19.82,18.59-39.83,28.76-59.28,12.97-24.79,26.97-49.05,40.3-73.66,16.19-29.88,32.18-59.86,48.19-89.84,24.84-46.52,34.8-97.07,32.41-148.76-4.06-87.45-42.69-157.31-117.64-204.55-69.73-43.94-145.88-57.37-226.37-40.35-70.51,14.91-127.93,51.68-170.59,110.36-32.1,44.17-46.84,94.01-45.62,148.24.99,43.74,10.33,85.97,29.38,125.61,9.81,20.4,20.47,40.4,31.12,60.39,29.74,55.85,62.41,110.15,88.96,167.7.56,1.21.96,2.78,1.93,3.43,1.55,1.02,3.69,2.19,5.26,1.84,1.69-.38,4.08-2.3,4.27-3.78.56-4.53.81-9.26.13-13.75-9.04-59.26-17.94-118.55-27.68-177.7-2.49-15.15,1.06-27.02,10.54-38.75,42.32-52.36,84.15-105.11,126.24-157.67,3.24-4.05,7.08-7.62,12.71-13.6ZM564.78,576.02c-1.16,3.76-2.98,7.15-3.14,10.62-.6,13.3-.16,26.66-1.09,39.93-.97,13.81,2.89,23.98,15.04,32.15,17.71,11.89,23.36,30.04,20.89,50.75-3.28,27.47-30.62,50.24-57.34,48.06-22.3-1.82-42.87-17.5-49.65-37.87-7.41-22.25-.46-45.65,18.23-61.16,2.04-1.7,4.23-3.26,6.5-4.63,7.68-4.65,10.09-11.5,9.89-20.25-.38-16.64-.01-33.29-.12-49.94-.01-1.69-1.14-3.38-2.33-6.66-3.25,2.7-6.01,4.31-7.86,6.63-24.53,30.69-48.68,61.69-73.53,92.11-7.1,8.68-8.23,17.32-6.44,27.81,4.03,23.61,7.21,47.37,10.85,71.05,5.05,32.89,10.08,65.79,15.38,98.64,1.86,11.51,4.05,13.42,15.66,13.64,41.95.8,83.9,1.46,125.85,1.92,13.1.14,16.03-2.48,18.42-15.81,9.73-54.37,18.84-108.85,29.22-163.1,2.78-14.52-.31-25.71-9.01-37.02-23.96-31.13-47.34-62.71-71.01-94.06-.71-.94-2.11-1.37-4.4-2.79ZM539.52,961.63c0,.43,0,.86,0,1.29,29.87,0,59.73.01,89.6-.03,1.98,0,4-.19,5.93-.61,8.51-1.84,14.38-8.33,15-16.41.59-7.74-4.6-15.86-12.7-18.14-5.02-1.42-10.47-1.74-15.74-1.79-54.44-.52-108.88-.92-163.32-1.25-5.29-.03-10.69.05-15.84,1.06-12.26,2.42-17.12,12.79-11.91,24.17,2.71,5.93,7.34,9.61,13.52,10.61,5.85.94,11.87,1.03,17.82,1.06,25.88.1,51.76.04,77.64.04ZM541.59,719.39c9.65.06,18.14-7.92,18.42-17.32.27-9.18-8.08-17.88-17.6-18.35-9.54-.47-17.86,7.59-18.06,17.5-.2,9.94,7.55,18.11,17.25,18.17Z"/>
      <path class="cls-1" d="M416.91,1056.53c7.27-6.39,14.86-4.96,22.04-4.96,47.92-.03,95.83.1,143.75.11,20.63,0,41.26-.16,61.89-.2,4.65,0,9.34-.17,13.95.33,7.39.8,10.12,3.88,10.78,11.78.33,3.97.23,7.98.23,11.97-.06,35.94-.1,71.88-.25,107.81-.02,5.98-.02,12.03-.9,17.92-2.08,13.94-10.6,22.94-24.32,25.47-6.5,1.2-13.23,1.55-19.85,1.57-54.57.11-109.15.07-163.72,0-5.31,0-10.68-.15-15.93-.88-17.36-2.41-27.04-12.87-28.59-30.53-.23-2.65-.19-5.32-.2-7.98-.05-39.27-.12-78.53-.05-117.8,0-5.22.81-10.43,1.16-14.63Z"/>
      <path class="cls-1" d="M602.69,1244.74c-.35,9.95-5.63,15.77-11.66,20.88-11.38,9.63-24.48,15.67-39.43,17.19-33.03,3.36-57.75-9.43-70.71-37.34,2.37-.8,4.6-2.21,6.83-2.22,36.42-.11,72.85-.05,109.28.04,1.27,0,2.55.63,5.7,1.46Z"/>
      <path class="cls-1" d="M1082.54,550.69c-4.11.62-8.58,1.86-13.05,1.88-35.83.17-71.66.11-107.5.11-1.99,0-3.99,0-5.96-.2-6.78-.71-10.22-3.88-10.59-9.61-.46-6.95,3.2-11.43,10.05-12.09,2.63-.25,5.3-.22,7.95-.22,34.51,0,69.01.02,103.52.04,1.33,0,2.66-.02,3.98.03,14.08.58,15.61,3.07,11.6,20.06Z"/>
      <path class="cls-1" d="M.65,551.01c-.32-5.59-.82-8.84-.6-12.03.3-4.54,3.19-7.23,7.59-7.87,3.27-.48,6.63-.52,9.95-.52,34.64-.04,69.28-.04,103.93-.04,2.66,0,5.34-.04,7.99.18,7.44.64,10.62,4.23,10.46,11.61-.12,5.71-2.62,8.99-7.91,9.76-3.28.48-6.63.57-9.95.57-34.64.03-69.28.07-103.92-.06-5.21-.02-10.42-.93-17.53-1.61Z"/>
      <path class="cls-1" d="M68.72,279.83c1.2-3.12,1.86-5.71,3.13-7.97,4.55-8.09,7.98-9.37,16.07-4.9,13.99,7.74,27.7,15.99,41.55,23.99,17.31,10,34.65,19.95,51.97,29.94,3.46,2,7.01,3.89,10.28,6.16,5.42,3.76,5.93,7.49,2.31,13.73-3.57,6.16-7.05,7.44-13.1,4.65-2.41-1.11-4.7-2.5-7.01-3.83-31.75-18.3-63.51-36.6-95.23-54.97-3.35-1.94-6.42-4.37-9.96-6.81Z"/>
      <path class="cls-1" d="M737.22,185.46c13.38-28.07,59.15-105.13,68.91-115.92,2.1.56,4.79.81,7,1.97,7.4,3.88,8.78,7.57,5.5,14.36-1.73,3.58-3.94,6.92-5.93,10.37-16.24,28.18-32.47,56.36-48.71,84.54-.99,1.73-1.96,3.47-3,5.17-8.06,13.11-12.23,13.17-23.77-.49Z"/>
      <path class="cls-1" d="M349.5,187.95c-6.09,3.89-10.45,6.66-14.44,9.21-1.92-.93-3.64-1.19-4.2-2.13-22.59-38.15-45.08-76.37-68.01-115.31,3.85-3.31,6.44-6.31,9.69-8.16,5.33-3.04,8.79-2.11,12.04,2.37,1.55,2.14,2.87,4.46,4.2,6.76,18.3,31.56,36.6,63.12,54.82,94.72,1.94,3.36,3.33,7.03,5.9,12.54Z"/>
      <path class="cls-1" d="M888.14,331.41c4.18-3,7.19-5.57,10.56-7.51,30.45-17.6,60.97-35.09,91.47-52.6,1.73-.99,3.44-2.01,5.22-2.89,11.9-5.9,15.77-3.65,20.1,12.56-3.51,2.26-7.23,4.88-11.15,7.14-30.45,17.6-60.94,35.14-91.42,52.69-1.15.66-2.31,1.31-3.48,1.94-12.67,6.81-14.16,6.11-21.31-11.32Z"/>
      <path class="cls-1" d="M887.22,751.78c2.92-5.51,5.6-10.56,7.88-14.86,6.54-1.39,10.09,1.96,13.95,4.17,31.05,17.75,62.05,35.56,93.05,53.39,2.87,1.65,5.77,3.29,8.4,5.27,5.12,3.84,5.79,8.28,2.42,13.83-3.2,5.29-7.57,6.67-13.52,4.07-2.42-1.06-4.69-2.46-6.98-3.79-30.98-17.87-61.96-35.72-92.89-53.67-3.94-2.29-7.56-5.15-12.3-8.42Z"/>
      <path class="cls-1" d="M78.4,821.35c-2.48-3.96-5.06-6.97-6.37-10.46-1.48-3.97-.31-8.08,3.18-10.76,3.15-2.42,6.7-4.34,10.15-6.34,28.8-16.71,57.61-33.4,86.42-50.07,2.31-1.33,4.61-2.69,7.01-3.83,7.98-3.77,11.36-2.76,16.42,5.2,1.01,1.59,1.15,3.75,1.92,6.45-10.91,10.77-25.46,16.13-38.29,24.05-13.03,8.04-26.44,15.46-39.75,23.04-13.24,7.54-26.09,15.85-40.71,22.72Z"/>
      <path class="cls-1" d="M533.48,2.91c3.35-1.22,5.76-2.73,8.24-2.87,6.76-.39,10.33,2.51,10.92,8.57.39,3.95.31,7.94.31,11.92.02,33.16,0,66.32,0,99.48,0,3.31.1,6.65-.19,9.94-.57,6.52-3.91,9.43-10.33,9.33-6.45-.1-9.56-2.96-10.3-9.55-.15-1.31-.19-2.65-.19-3.97.02-38.46.04-76.93.14-115.39,0-1.94.71-3.88,1.41-7.46Z"/>
    </g>
  </g>
</svg>