<?xml version="1.0" encoding="UTF-8"?>
<svg id="Layer_2" data-name="Layer 2" xmlns="http://www.w3.org/2000/svg" viewBox="0 0 968.83 968.77">
  <defs>
    <style>
      .cls-1 {
        stroke-width: 0px;
        fill:url(#gradient)
      }
    </style>
     <linearGradient id="gradient" gradientTransform="rotate(90)">
            <stop offset="0%" stop-color="#00cea8" />
            <stop offset="100%" stop-color="#bf61ff" />
        </linearGradient>
  </defs>
  <g id="Layer_1-2" data-name="Layer 1">
    <g>
      <path class="cls-1" d="M.06,486.34c0-76.66-.02-153.32.02-229.98.01-25.39,1.36-50.76,8.31-75.3C35.14,86.59,97.29,28.88,192.09,5.41,209.05,1.22,226.34.18,243.68.16,403.67.04,563.65.03,723.64,0c26.81,0,53.17,3.08,78.81,11.34,82.23,26.47,148.15,101.66,162.95,186.67,2.28,13.07,3.25,26.53,3.28,39.81.21,93.99.23,187.98-.14,281.97-.23,57.3-11.81,112.43-33.66,165.44-58.72,142.47-186.65,247.01-337.43,275.2-29.53,5.52-59.47,7.97-89.5,8.06-86.66.26-173.32.33-259.98.22-30.19-.04-59.71-4.64-88.25-14.91C52.01,915.05,5.72,818.73,1.79,746.28c-1.48-27.27-1.56-54.63-1.67-81.95-.23-59.33-.07-118.66-.06-177.99ZM890.49,510c5.89-5.29,8.55-7.09,10.45-9.49,11.29-14.31,14.53-31.04,14.49-48.8-.19-71.3-.23-142.61-.43-213.91-.09-32.78-9.04-63.37-25.81-91.22-36.68-60.9-91.6-92.22-162.24-92.61-161.27-.89-322.54-.37-483.81-.11-12.56.02-25.38,1.23-37.64,3.9-64.25,14-110.6,50.62-136.75,111.4-9.83,22.84-14.46,46.96-14.45,72,.04,83.3-.26,166.6-.26,249.9,0,79.3-.27,158.61.45,237.9.91,100.05,79.56,184.82,184.11,185.15,91.29.29,182.58.33,273.87,0,41.46-.15,71.95-27.16,78.85-67.89,2.81-16.61,1.88-33.22,1.27-49.85-.11-3.06-1.53-6.07-2.28-8.84-17.3.61-24.82,10.13-27.13,25.04-.41,2.63-.58,5.31-1.08,7.92-2.35,12.43-4.22,24.98-7.29,37.24-5.96,23.83-22.39,37.97-46.7,39.48-15.93.99-32.01,1.01-47.94.09-23.23-1.35-39.64-15.14-46.45-37.53-1.35-4.44-2.23-9.05-3-13.63-1.76-10.51-3.41-21.03-4.93-31.58-1.98-13.75-8.94-23.13-22.36-27.94-11.27-4.03-22.61-8.22-33.2-13.72-15.69-8.15-29-6-42.33,5.16-9.67,8.1-20.2,15.32-30.98,21.91-22.26,13.59-43.17,12.1-62.64-4.85-11.52-10.04-22.46-20.91-32.58-32.36-17.89-20.24-19.35-41.48-5.39-64.26,3.82-6.24,8.32-12.07,12.54-18.05,4.61-6.53,9.19-13.08,13.94-19.52,6.55-8.87,7.25-18.26,3.07-28.3-5.38-12.91-11.17-25.67-15.79-38.85-5.28-15.05-15.62-22.09-31.04-23.99-13.19-1.62-26.27-4.27-39.3-7-29.34-6.14-39.33-25.56-40.56-47.46-.85-15.28-.87-30.64-.4-45.94.84-27.28,18.68-44.69,41.77-48.94,12.44-2.29,24.83-5.23,37.37-6.42,16.5-1.57,27.05-9.26,32.44-25.04,3.87-11.32,8.27-22.57,13.66-33.23,6.85-13.55,5.48-25.24-3.81-37.05-8.23-10.46-15.94-21.39-23.1-32.61-14.61-22.9-13.53-43.93,4.01-64.35,9.95-11.59,21.07-22.27,32.4-32.54,5.29-4.8,11.96-8.62,18.65-11.21,16.13-6.25,31.59-2.95,45.66,6.34,12.78,8.44,25.14,17.53,37.62,26.41,8.91,6.34,18.07,7.38,28.21,2.81,12.14-5.46,24.28-11.17,36.92-15.2,16.05-5.12,23.94-15.48,25.77-31.8,1.33-11.9,3.14-23.79,5.6-35.51,5.82-27.77,22.97-43,51.09-44.83,13.93-.9,28-.88,41.95-.08,27.8,1.58,44,15.27,50.48,42.6,3.22,13.58,5.43,27.43,7.4,41.26,1.87,13.17,8.37,21.91,20.91,26.68,13.06,4.97,26.08,10.18,38.7,16.16,12.31,5.83,22.98,4.2,33.46-3.95,7.89-6.13,16.12-11.81,24.32-17.53,4.91-3.43,9.81-6.97,15.1-9.73,18.84-9.82,37.94-9.73,54.37,3.88,14.78,12.25,28.7,25.98,40.91,40.78,13.51,16.37,13.87,35.52,3.99,54.37-3.08,5.87-7.01,11.31-10.81,16.77-6.09,8.74-12.52,17.26-18.59,26.02-5.69,8.21-7.13,16.92-3.07,26.48,6.51,15.31,12.59,30.81,19.01,46.16,3.91,9.36,11.36,14.55,21.04,16.67,3.24.71,6.62.78,9.89,1.37,12.45,2.23,24.98,4.1,37.29,6.93,23.48,5.41,36.35,20.98,40.1,44.32.95,5.88.85,11.95.98,17.93.15,7.28.04,14.57.04,26.71ZM738.52,540.23c5.46.2,9.97.69,14.45.46,23.95-1.19,47.9-2.5,71.85-3.92,4.64-.27,9.3-.91,13.84-1.88,14.54-3.11,19.82-8.22,20.77-22.62.87-13.25.81-26.64.05-39.91-.84-14.84-5.43-19.82-20.2-22.95-14.32-3.04-28.8-5.39-43.24-7.84-20-3.39-34.14-14.14-41.94-32.95-6.89-16.6-13.95-33.15-20.42-49.91-6.67-17.28-5.07-34.06,5.29-49.57,6.66-9.97,13.89-19.55,20.76-29.38,3.05-4.36,6.19-8.72,8.67-13.41,4.06-7.7,4.25-15.95-1.71-22.44-10.78-11.74-22.03-23.13-33.83-33.85-7.08-6.43-15.9-6.21-24.23-1.44-4.04,2.31-7.92,4.92-11.72,7.6-8.72,6.13-17.39,12.34-26.01,18.61-18.37,13.36-37.86,14.95-58.54,6-13.44-5.82-26.85-11.75-40.53-16.96-21.99-8.38-34.6-23.72-37.81-47.16-1.9-13.84-4.28-27.66-7.32-41.3-2.9-13.02-8.75-18.27-22.08-19.12-13.25-.84-26.65-.79-39.9.08-14.77.97-19.63,5.48-22.89,20.41-2.98,13.65-4.98,27.51-7.3,41.3-3.61,21.39-14.82,36.63-35.31,44.77-15.47,6.14-30.77,12.7-46.18,18.98-18.72,7.63-36.5,5.69-53.2-5.65-6.06-4.12-11.89-8.57-17.89-12.78-6.54-4.6-13.02-9.28-19.74-13.61-10.21-6.58-20.34-6.15-29.35,2.08-8.84,8.08-17.53,16.4-25.59,25.26-12.43,13.68-12.72,21.47-2.09,37.32,6.31,9.4,12.79,18.72,19.75,27.65,15.42,19.8,18.12,40.72,7.41,63.61-5.92,12.66-11.34,25.59-16.25,38.67-8.31,22.1-23.7,34.51-47.2,37.64-13.84,1.84-27.53,4.9-41.25,7.56-11.12,2.15-18.37,9.08-19.11,20.16-.98,14.55-.89,29.26.1,43.81.75,10.94,7.42,18.28,18.63,20.67,4.56.97,9.09,2.09,13.68,2.87,9.19,1.56,18.38,3.16,27.62,4.36,24.24,3.15,40.02,16.36,48.26,39.27,3.83,10.64,7.71,21.39,12.94,31.37,14.03,26.77,11.09,51.05-8.12,74.15-7.22,8.68-13.56,18.18-19.5,27.79-6.79,11-6.36,19.93,2.12,29.31,9.36,10.35,19.54,20.03,29.93,29.35,8.46,7.59,18.16,7.51,27.66,1.46,5.05-3.22,9.89-6.76,14.8-10.2,8.73-6.11,17.28-12.51,26.2-18.33,15.01-9.8,31.08-11.25,47.7-4.61,16.69,6.67,33.29,13.57,49.87,20.53,18.68,7.84,29.56,22.09,33.57,41.76.66,3.26.8,6.62,1.4,9.89,2.29,12.44,4.47,24.91,7.06,37.29,1.99,9.5,8.18,15.13,17.76,16.52,15.92,2.31,31.88,2.22,47.8-.12,9.62-1.42,15.69-7.13,18.08-16.35,1.84-7.08,3-14.34,4.26-21.55,1.49-8.53,2.62-17.12,4.14-25.64,3.55-19.92,14.71-33.89,33.34-41.76,4.9-2.07,9.97-3.73,14.99-5.51,6.43-2.28,9.62-7.11,9.95-13.6.26-5.14,1.44-10.77-4.29-15.17-5.26,1.95-10.77,4.05-16.32,6.04-47.66,17.09-96.06,20.38-145.43,8.3-126.8-31.03-225.04-157.86-191.89-305.16,27.64-122.84,141.51-217.48,291.39-197.81,91.81,18.15,156.11,71.1,194.68,155.55,6.83,14.95,10.24,31.61,14.07,47.75,6.22,26.22,4.74,52.96,3.59,79.61-.25,5.79-.04,11.6-.04,18.68ZM258.42,490.11c-.12,34.9,6.38,65.18,20.78,96.81,50.67,111.32,186.41,162.04,296.96,111.22,12.16-5.59,20.51-12.76,24.65-26.43,14.08-46.56,42.54-82.58,84.44-107.29,12.76-7.53,18.67-17.78,21.26-31.7,5.44-29.27,5.04-58.4-1.3-87.32-27.07-123.47-145.48-196.92-258.27-176.37-110.65,20.16-188.9,114.84-188.51,221.09Z"/>
      <path class="cls-1" d="M664.44,492.16c.62,95.07-74.69,180.19-180.69,180.1-103.22-.1-180.81-83.36-180.56-180.77.25-97.1,78.51-180.58,181.25-180.47,105.3.1,180.81,86.5,180,181.15ZM483.23,642.17c77.62,1.95,150.37-61.32,151.42-148.35,1.01-83.78-66.23-151.99-149.48-152.67-83.14-.67-151.52,67.91-151.42,150.72.1,84.39,69.76,151.28,149.48,150.29Z"/>
      <path class="cls-1" d="M409.54,491.66c.08-42.13,32.36-74.45,74.45-74.55,41.88-.1,74.83,32.38,75.11,74.05.3,42.55-33.16,76.06-75.61,75.73-41.69-.32-74.04-33.23-73.96-75.24Z"/>
    </g>
  </g>
</svg>