<?xml version="1.0" encoding="UTF-8"?>
<svg id="Layer_2" data-name="Layer 2" xmlns="http://www.w3.org/2000/svg" viewBox="0 0 1024.26 972.72">
  <defs>
    <style>
      .cls-1 {
        stroke-width: 0px;
        fill:url(#gradient);
      }
    </style>
     <linearGradient id="gradient" gradientTransform="rotate(90)">
            <stop offset="0%" stop-color="#00cea8" />
            <stop offset="100%" stop-color="#bf61ff" />
        </linearGradient>
  </defs>
  <g id="Layer_1-2" data-name="Layer 1">
    <g>
      <path class="cls-1" d="M52.18,732.76c-.24-4.42-.7-8.85-.7-13.27,0-159.33-.4-318.66.23-477.99.47-119.73,86.18-219.19,204.48-238.45,14.4-2.34,29.22-2.85,43.85-2.87C458.69-.02,617.36.16,776.02,0c60.22-.06,114.48,17.07,160.72,56.06,56.72,47.83,86,109.51,86.97,183.66.96,73.32.37,146.66.4,219.99,0,21.33.18,42.67-.34,64-5.28,215.76-154.48,391.79-360.12,438.51-30.04,6.83-60.49,10.16-91.2,10.27-92.66.31-185.33.23-277.99.21-42.2,0-81.77-10.3-118.46-31.23-4.5-2.57-8.57-5.88-13.76-9.49,3.2-2.4,5.05-4.4,7.34-5.4,14.05-6.12,28.26-11.85,42.27-18.04,6.46-2.86,12.68-3.4,19.35-1.03,26.8,9.51,54.6,11.05,82.77,10.93,80-.33,160-.02,239.99-.33,11.21-.04,22.84-.71,33.55-3.69,31.9-8.87,50.85-30.41,56.49-63.07,1.58-9.14,2.08-18.55,2.18-27.85.37-33.33-.27-66.68.63-99.99,1.35-50.19,19.92-93.49,55.68-128.82,33.06-32.67,73.25-50.42,119.62-53.42,16.61-1.07,33.32-.29,49.97-.84,11.3-.38,22.75-.61,33.82-2.65,37.66-6.93,60.38-36.21,62.83-66.03.54-6.64,1.29-13.29,1.33-19.93.38-57.99.84-115.99.77-173.98-.02-17.31-1.06-34.66-2.61-51.91-7.02-78.07-48.16-130.82-120.36-159.67-21.17-8.46-43.59-12.2-66.49-12.2-162-.02-324-.46-485.99.15-93.5.35-168.07,62.53-185.6,153.67-2.99,15.57-3.31,31.81-3.4,47.75-.58,108-.77,215.99-1.08,323.99-.01,4.67-.18,9.34-.03,14,.61,18.31-3.08,35.67-10.48,52.44-11.29,25.6-22.15,51.39-33.28,77.06-1.54,3.56-3.56,6.91-5.36,10.36-1.31-.24-2.63-.47-3.94-.71Z"/>
      <path class="cls-1" d="M618.04,175.55c58.64,55.11,115.5,109.14,172.91,163.37-4.18,4.58-7.16,8.12-10.42,11.37-161.53,160.63-323.18,321.13-484.48,482-15.89,15.84-33.26,27.9-54.15,36.27-69.2,27.71-138.02,56.38-206.99,84.64-4.92,2.02-9.85,4.12-14.94,5.61-12.53,3.65-22.7-6.45-19.31-19.13,1.03-3.84,2.7-7.52,4.22-11.21,28.88-70.17,57.97-140.25,86.55-210.54,7.68-18.89,18.8-34.83,33.19-49.22,132.81-132.83,265.38-265.9,398.03-398.89,26.81-26.88,53.61-53.77,80.49-80.59,4.2-4.19,8.74-8.03,14.91-13.66ZM719.4,324.48c-5.64,5.05-9.72,8.38-13.43,12.09-146.02,146-292.02,292.03-437.96,438.12-5.15,5.16-10.16,10.64-14.27,16.63-8.93,13.01-10.76,24.88-7.4,41.38,12.22-.77,20.37-8.34,28.46-16.41,59.84-59.8,119.77-119.5,179.68-179.23,90.57-90.3,181.17-180.56,271.67-270.93,5.03-5.02,11.3-9.25,14.28-17.49-6.61-7.59-13.07-15-21.04-24.15ZM612.87,218.63c-5.35,4.76-9.96,8.45-14.1,12.6-153.42,153.57-306.81,307.17-460.16,460.8-3.75,3.75-7.61,7.58-10.45,12-2.47,3.85-3.92,8.59,1,13.4,19.54.2,36.06-6.13,50.79-21.05,77.16-78.21,155-155.75,232.62-233.5,68.68-68.8,137.41-137.56,206.02-206.43,5.05-5.06,11.44-9.21,14.05-17.97-6.12-6.14-12.54-12.59-19.77-19.84Z"/>
      <path class="cls-1" d="M640.54,149.98c14.25-14,29.62-26.38,47.01-36.18,10.35-5.83,20.76-4.24,30.33,1.67,5.59,3.45,10.6,8.03,15.29,12.7,33.01,32.86,65.33,66.45,98.97,98.66,23.88,22.86,23.49,48.65.27,71.04-7.64,7.37-15.05,14.98-23.23,23.15-3.18-2.13-6.17-3.48-8.33-5.67-52.28-53.13-104.47-106.34-156.63-159.58-1.31-1.34-2.07-3.22-3.68-5.79Z"/>
    </g>
  </g>
</svg>