<?xml version="1.0" encoding="UTF-8"?>
<svg version="1.1" xmlns="http://www.w3.org/2000/svg" width="274" height="265">
<path d="M0 0 C90.42 0 180.84 0 274 0 C274 87.45 274 174.9 274 265 C183.58 265 93.16 265 0 265 C0 177.55 0 90.1 0 0 Z " fill="#FEFEFE" transform="translate(0,0)"/>
<path d="M0 0 C2.17041428 -0.00956867 4.33982291 -0.04055875 6.51000977 -0.07226562 C25.15475968 -0.21403565 45.56444796 3.08160321 60.40258789 15.24023438 C60.73258789 16.23023437 61.06258789 17.22023438 61.40258789 18.24023438 C62.06258789 18.24023438 62.72258789 18.24023438 63.40258789 18.24023438 C68.31824844 23.30485433 68.94270402 28.60165853 68.87133789 35.40820312 C68.10619657 40.03093191 65.97850327 43.12880089 62.27758789 45.92773438 C59.38720007 47.92379775 59.38720007 47.92379775 58.40258789 50.24023438 C65.72794739 48.53854688 71.51287948 45.62450626 77.83618164 41.56835938 C78.6830957 41.13007813 79.53000977 40.69179687 80.40258789 40.24023438 C84.14272022 41.48694515 84.39749639 42.49357464 86.25805664 45.87695312 C87.06206909 47.32146851 87.06206909 47.32146851 87.88232422 48.79516602 C88.44588623 49.82891357 89.00944824 50.86266113 89.59008789 51.92773438 C90.76434851 54.0450431 91.93882694 56.16223103 93.11352539 58.27929688 C93.68039063 59.30829102 94.24725586 60.33728516 94.83129883 61.39746094 C96.75939788 64.88577439 98.72996885 68.34657094 100.71508789 71.80273438 C101.3196582 72.86105469 101.92422852 73.919375 102.54711914 75.00976562 C103.91230731 77.38663008 105.28491473 79.75836515 106.66430664 82.12695312 C107.03837646 82.77269287 107.41244629 83.41843262 107.79785156 84.08374023 C108.51707008 85.32492861 109.23971849 86.56413789 109.96630859 87.80102539 C112.40258789 92.01517997 112.40258789 92.01517997 112.40258789 94.24023438 C113.06258789 94.24023438 113.72258789 94.24023438 114.40258789 94.24023438 C116.45085974 98.21746126 118.44192276 102.21912471 120.40258789 106.24023438 C120.75450195 106.92859375 121.10641602 107.61695313 121.46899414 108.32617188 C124.62329951 115.30526299 124.82549549 123.97715804 122.41821289 131.18945312 C121.21830311 133.66704462 119.9164925 135.94312478 118.40258789 138.24023438 C117.78383789 139.18898437 117.16508789 140.13773438 116.52758789 141.11523438 C109.91389497 147.7289273 100.96046018 150.5708935 91.80725098 150.61349487 C90.86353638 150.60270905 89.91982178 150.59192322 88.94750977 150.58081055 C87.93197021 150.58124863 86.91643066 150.58168671 85.87011719 150.58213806 C82.53699037 150.58005982 79.20437608 150.55677397 75.87133789 150.53320312 C73.55106888 150.52760375 71.2307963 150.52333527 68.91052246 150.52033997 C62.82118842 150.50891814 56.73207105 150.4794737 50.64282227 150.44622803 C44.42214895 150.4154698 38.20144043 150.40182234 31.98071289 150.38671875 C19.78790967 150.35460159 7.59526684 150.30343734 -4.59741211 150.24023438 C-4.59741211 149.91023437 -4.59741211 149.58023438 -4.59741211 149.24023438 C-4.03570312 149.18077637 -3.47399414 149.12131836 -2.89526367 149.06005859 C15.47426189 147.03680253 32.55701583 142.97368753 49.40258789 135.24023438 C50.77483456 134.63703035 52.14724253 134.03419317 53.51977539 133.43164062 C62.28995112 129.51406268 69.87767734 125.26818226 77.40258789 119.24023438 C81.1610529 116.24023438 81.1610529 116.24023438 83.40258789 116.24023438 C83.40258789 115.58023438 83.40258789 114.92023438 83.40258789 114.24023438 C84.94946289 112.97070313 84.94946289 112.97070313 87.15258789 111.42773438 C91.45243104 108.17379902 95.16290149 104.60077269 98.84008789 100.67773438 C99.35990234 100.13592529 99.8797168 99.59411621 100.4152832 99.03588867 C103.54048362 95.63962495 105.25315437 92.81731997 106.40258789 88.24023438 C101.38357167 91.34141513 96.71568112 94.7496642 92.16772461 98.49804688 C74.30071853 113.19413247 54.20123962 122.81791191 31.40258789 127.24023438 C30.08810669 127.50513672 30.08810669 127.50513672 28.74707031 127.77539062 C21.02812067 129.21277819 13.55572432 129.55348711 5.71508789 129.49023438 C4.48411377 129.4827417 3.25313965 129.47524902 1.98486328 129.4675293 C-24.97601382 129.1503842 -56.3192738 123.66719157 -76.59741211 104.24023438 C-76.59741211 103.58023438 -76.59741211 102.92023438 -76.59741211 102.24023438 C-77.18651367 102.00046875 -77.77561523 101.76070313 -78.38256836 101.51367188 C-84.90928101 97.76109988 -89.07875044 88.49916334 -91.71069336 81.70507812 C-95.54843619 66.70914028 -91.50642655 54.0563092 -84.15991211 40.86523438 C-81.33899598 36.22119341 -78.39682845 32.12800924 -74.59741211 28.24023438 C-73.93741211 28.24023438 -73.27741211 28.24023438 -72.59741211 28.24023438 C-72.26741211 27.25023437 -71.93741211 26.26023438 -71.59741211 25.24023438 C-66.00491341 19.97895428 -59.30940441 15.90309229 -52.59741211 12.24023438 C-51.67831055 11.73492187 -50.75920898 11.22960937 -49.81225586 10.70898438 C-39.9131157 5.70193542 -29.39779236 3.49223346 -18.59741211 1.24023438 C-17.82437744 1.05920166 -17.05134277 0.87816895 -16.25488281 0.69165039 C-10.89955113 -0.21804261 -5.42054401 0.01437969 0 0 Z " fill="#6F509E" transform="translate(148.597412109375,101.759765625)"/>
<path d="M0 0 C0.99 0.495 1.98 0.99 3 1.5 C3 2.16 3 2.82 3 3.5 C3.70125 3.665 4.4025 3.83 5.125 4 C13.54705827 8.39411736 18.14917828 20.33016289 22.73632812 28.31054688 C23.95248904 30.41768194 25.18453057 32.51462606 26.421875 34.609375 C27.15658579 35.86438682 27.89097792 37.11958525 28.625 38.375 C29.27726563 39.48617187 29.92953125 40.59734375 30.6015625 41.7421875 C32 44.5 32 44.5 32 47.5 C32.66 47.5 33.32 47.5 34 47.5 C36.00678401 51.12128443 38.0042648 54.74761643 40 58.375 C40.57234375 59.40753906 41.1446875 60.44007812 41.734375 61.50390625 C42.54648437 62.98310547 42.54648437 62.98310547 43.375 64.4921875 C43.87773437 65.40339355 44.38046875 66.31459961 44.8984375 67.25341797 C46 69.5 46 69.5 46 71.5 C44.97455078 71.50410889 43.94910156 71.50821777 42.89257812 71.51245117 C10.43490394 70.44848842 10.43490394 70.44848842 -20 79.5 C-20.33 80.16 -20.66 80.82 -21 81.5 C-20.34 82.16 -19.68 82.82 -19 83.5 C-19.33 84.16 -19.66 84.82 -20 85.5 C-18.68 85.83 -17.36 86.16 -16 86.5 C-16 87.16 -16 87.82 -16 88.5 C-17 89.5 -18 90.5 -19 91.5 C-19 92.16 -19 92.82 -19 93.5 C-19.53665283 93.6043335 -20.07330566 93.70866699 -20.6262207 93.81616211 C-30.97216522 95.89106276 -40.75830179 98.37869758 -50.3125 102.9375 C-51.06893799 103.29642334 -51.82537598 103.65534668 -52.60473633 104.02514648 C-57.26374386 106.35024763 -61.3037767 109.08396916 -65.36010742 112.34790039 C-67 113.5 -67 113.5 -69 113.5 C-69.495 114.985 -69.495 114.985 -70 116.5 C-71.46300913 117.71403008 -72.92844223 118.92544003 -74.41357422 120.11230469 C-81.62454626 126.41996321 -86.62631231 136.70673369 -90 145.5 C-90.36351562 146.41652344 -90.72703125 147.33304688 -91.1015625 148.27734375 C-93.865423 158.19119119 -93.06533447 169.61142025 -88.55859375 178.81640625 C-77.19501153 198.38227339 -59.23750593 208.75412395 -37.828125 214.765625 C-36.89484375 215.00796875 -35.9615625 215.2503125 -35 215.5 C-34.27296875 215.70109375 -33.5459375 215.9021875 -32.796875 216.109375 C0.94781893 224.60994675 37.21528714 220.29590135 68 204.5 C69.10472656 203.93925781 70.20945313 203.37851563 71.34765625 202.80078125 C79.03175429 198.66852109 85.67726563 193.81427373 92.31958008 188.15600586 C96.64823587 184.48220802 101.10583096 181.37925497 106 178.5 C106.33 179.49 106.66 180.48 107 181.5 C104.32364239 186.23355786 100.82543274 190.10574006 97.125 194.0625 C96.62097656 194.61357422 96.11695313 195.16464844 95.59765625 195.73242188 C92.28183095 199.30689851 88.87629265 202.53480178 85 205.5 C84.34 205.5 83.68 205.5 83 205.5 C83 206.16 83 206.82 83 207.5 C81.07198167 209.01098615 79.15651487 210.39068582 77.125 211.75 C76.5278418 212.15404053 75.93068359 212.55808105 75.31542969 212.97436523 C73.55036512 214.16013504 71.77725795 215.33260578 70 216.5 C68.76636719 217.31404297 68.76636719 217.31404297 67.5078125 218.14453125 C56.39076367 225.12634565 44.40158576 230.2819822 31.9375 234.3125 C31.08897461 234.5902124 30.24044922 234.8679248 29.36621094 235.15405273 C23.84739885 236.86580047 18.31523823 238.06271732 12.63891602 239.09643555 C11.53332714 239.30062229 11.53332714 239.30062229 10.40540314 239.50893402 C8.60397771 239.84133148 6.80204014 240.17095138 5 240.5 C17.06603351 240.59293682 29.13198097 240.663885 41.19830036 240.70724869 C46.80200717 240.72806768 52.40546795 240.75628115 58.0090332 240.80175781 C63.42312709 240.84541869 68.83698525 240.86917983 74.25124168 240.87950897 C76.31038304 240.88686411 78.36951241 240.9012265 80.42855263 240.92292023 C92.32801039 241.04323387 102.24041172 240.98331767 112.8125 234.875 C117.88338612 229.36946649 122.14880456 222.6718792 122.09765625 215.05078125 C122.09282227 213.77944336 122.09282227 213.77944336 122.08789062 212.48242188 C122.07951172 211.60134766 122.07113281 210.72027344 122.0625 209.8125 C122.05573242 208.47348633 122.05573242 208.47348633 122.04882812 207.10742188 C122.03704983 204.90488013 122.02060164 202.70247401 122 200.5 C123.485 201.985 123.485 201.985 125 203.5 C125 220.33 125 237.16 125 254.5 C34.58 254.5 -55.84 254.5 -149 254.5 C-149 234.37 -149 214.24 -149 193.5 C-148.34 193.17 -147.68 192.84 -147 192.5 C-147 193.16 -147 193.82 -147 194.5 C-146.34 194.5 -145.68 194.5 -145 194.5 C-144.67 193.51 -144.34 192.52 -144 191.5 C-143.01 191.83 -142.02 192.16 -141 192.5 C-140.76152344 191.84257812 -140.52304688 191.18515625 -140.27734375 190.5078125 C-138.63358904 186.63719743 -136.62144066 183.03794364 -134.5625 179.375 C-134.12437988 178.59165283 -133.68625977 177.80830566 -133.23486328 177.0012207 C-126.93901778 165.78124401 -120.59817341 154.58111948 -113.75 143.6875 C-110.99286917 139.27270768 -108.58418554 134.79913333 -106.3125 130.125 C-104.2236252 125.83855329 -102.10980043 122.00100892 -99.22265625 118.22265625 C-97.1332429 115.27878632 -95.54221168 112.06309534 -93.84375 108.8828125 C-91.59313374 104.75350385 -89.23985251 100.68965516 -86.875 96.625 C-82.94847521 89.87132377 -79.05339444 83.10105937 -75.1875 76.3125 C-70.32751044 67.78677104 -65.39790106 59.30332462 -60.44458008 50.83154297 C-55.89611479 43.04798566 -51.37846682 35.24714232 -46.875 27.4375 C-46.24746826 26.34928955 -45.61993652 25.2610791 -44.97338867 24.13989258 C-41.97231583 18.93223262 -38.97725908 13.72131256 -36 8.5 C-35.34 8.5 -34.68 8.5 -34 8.5 C-33.75121094 7.89542969 -33.50242187 7.29085938 -33.24609375 6.66796875 C-31.80202545 4.15556152 -30.53864187 3.27420758 -28.0625 1.8125 C-27.37285156 1.39613281 -26.68320313 0.97976562 -25.97265625 0.55078125 C-19.0202495 -3.15257997 -7.24939381 -2.76913782 0 0 Z " fill="#FCFBFB" transform="translate(149,10.5)"/>
<path d="M0 0 C0.99 0.495 1.98 0.99 3 1.5 C3 2.16 3 2.82 3 3.5 C3.70125 3.665 4.4025 3.83 5.125 4 C13.54705827 8.39411736 18.14917828 20.33016289 22.73632812 28.31054688 C23.95248904 30.41768194 25.18453057 32.51462606 26.421875 34.609375 C27.15658579 35.86438682 27.89097792 37.11958525 28.625 38.375 C29.27726563 39.48617187 29.92953125 40.59734375 30.6015625 41.7421875 C32 44.5 32 44.5 32 47.5 C32.66 47.5 33.32 47.5 34 47.5 C36.00678401 51.12128443 38.0042648 54.74761643 40 58.375 C40.57234375 59.40753906 41.1446875 60.44007812 41.734375 61.50390625 C42.54648437 62.98310547 42.54648437 62.98310547 43.375 64.4921875 C43.87773437 65.40339355 44.38046875 66.31459961 44.8984375 67.25341797 C46 69.5 46 69.5 46 71.5 C44.97455078 71.50410889 43.94910156 71.50821777 42.89257812 71.51245117 C22.81599302 71.63287552 3.4531746 71.94422754 -16 77.5 C-16.72074707 77.70141602 -17.44149414 77.90283203 -18.18408203 78.11035156 C-28.15056816 80.97019596 -37.61207189 85.14693836 -47 89.5 C-48.57587891 90.22509766 -48.57587891 90.22509766 -50.18359375 90.96484375 C-64.11193068 97.64230674 -78.41409324 106.72231182 -89.2734375 117.82421875 C-91 119.5 -91 119.5 -93 119.5 C-93.26683594 120.09941406 -93.53367188 120.69882813 -93.80859375 121.31640625 C-95.02797109 123.55126504 -96.17604079 124.75618766 -98.0625 126.4375 C-111.71082316 139.74461508 -120.13940785 157.79739995 -120.5 176.8125 C-120.44938001 189.28724197 -117.16035251 199.70952996 -109.35546875 209.64453125 C-108 211.5 -108 211.5 -108 213.5 C-107.10667969 213.90992188 -107.10667969 213.90992188 -106.1953125 214.328125 C-104.07352802 215.46075016 -102.62253164 216.61662872 -100.875 218.25 C-96.61936403 221.98621145 -91.93254147 224.74840793 -87 227.5 C-86.34128906 227.87125 -85.68257812 228.2425 -85.00390625 228.625 C-70.24338381 236.48091215 -53.39294151 238.69038957 -37 240.5 C-37 240.83 -37 241.16 -37 241.5 C-48.31826779 241.59287324 -59.63644422 241.6638529 -70.95501614 241.70724869 C-76.2112777 241.72808149 -81.46727765 241.75632035 -86.72338867 241.80175781 C-91.80031451 241.84536926 -96.87698944 241.86916948 -101.95408821 241.87950897 C-103.88649505 241.88687292 -105.81888889 241.90125287 -107.75118828 241.92292023 C-110.46780442 241.95215784 -113.18339714 241.95594756 -115.90014648 241.95410156 C-116.69065399 241.96848267 -117.4811615 241.98286377 -118.29562378 241.99768066 C-126.68633951 241.93639401 -134.89058266 238.28947279 -141 232.5 C-145.67480791 226.39918968 -148.28818238 220.56531314 -148.375 212.8125 C-148.40335938 211.67425781 -148.43171875 210.53601563 -148.4609375 209.36328125 C-147.40940343 200.54999993 -142.8029832 192.98083726 -138.375 185.4375 C-137.84720947 184.52629395 -137.31941895 183.61508789 -136.77563477 182.67626953 C-135.19143744 179.94627511 -133.59760545 177.22216556 -132 174.5 C-131.55285645 173.73671387 -131.10571289 172.97342773 -130.64501953 172.18701172 C-128.6055499 168.70819406 -126.55888194 165.23370732 -124.5078125 161.76171875 C-121.27490272 156.2806656 -118.09386191 150.76969632 -114.90966797 145.26025391 C-111.79921208 139.87852997 -108.67517906 134.50516525 -105.53515625 129.140625 C-102.62834473 124.14061333 -99.77760132 119.11112048 -96.95776367 114.06176758 C-93.03870293 107.05164156 -89.023664 100.10591546 -84.93408203 93.1940918 C-81.65335769 87.63810701 -78.44171542 82.04502105 -75.25 76.4375 C-70.37090416 67.86917814 -65.42168767 59.34387617 -60.44482422 50.83203125 C-55.89634628 43.04827105 -51.37855761 35.24729976 -46.875 27.4375 C-46.24746826 26.34928955 -45.61993652 25.2610791 -44.97338867 24.13989258 C-41.97231583 18.93223262 -38.97725908 13.72131256 -36 8.5 C-35.34 8.5 -34.68 8.5 -34 8.5 C-33.75121094 7.89542969 -33.50242187 7.29085938 -33.24609375 6.66796875 C-31.80202545 4.15556152 -30.53864187 3.27420758 -28.0625 1.8125 C-27.37285156 1.39613281 -26.68320313 0.97976562 -25.97265625 0.55078125 C-19.0202495 -3.15257997 -7.24939381 -2.76913782 0 0 Z " fill="#6B519C" transform="translate(149,10.5)"/>
<path d="M0 0 C0 1.65 0 3.3 0 5 C1.32 5 2.64 5 4 5 C4.66 5 5.32 5 6 5 C6 5.66 6 6.32 6 7 C6.99 7.495 6.99 7.495 8 8 C4.61113824 14.24264008 -0.34082808 18.39560821 -5.8125 22.8125 C-6.78832031 23.60269531 -7.76414062 24.39289063 -8.76953125 25.20703125 C-9.87361328 26.09455078 -9.87361328 26.09455078 -11 27 C-9.17782753 25.78521836 -7.36308343 24.55905776 -5.5625 23.3125 C-3 22 -3 22 -0.6875 22.3125 C-0.130625 22.539375 0.42625 22.76625 1 23 C-0.36916668 28.66771324 -4.54509406 31.24087722 -8.9375 34.625 C-10.38519224 35.76164961 -11.83184601 36.8996234 -13.27734375 38.0390625 C-13.91921631 38.53615723 -14.56108887 39.03325195 -15.22241211 39.54541016 C-17.03614714 40.9688413 -17.03614714 40.9688413 -18.60766602 42.68505859 C-20 44 -20 44 -22 44 C-22.26683594 44.59941406 -22.53367188 45.19882813 -22.80859375 45.81640625 C-24.02797109 48.05126504 -25.17604079 49.25618766 -27.0625 50.9375 C-40.71082316 64.24461508 -49.13940785 82.29739995 -49.5 101.3125 C-49.44938001 113.78724197 -46.16035251 124.20952996 -38.35546875 134.14453125 C-37 136 -37 136 -37 138 C-36.10667969 138.40992188 -36.10667969 138.40992188 -35.1953125 138.828125 C-33.07352802 139.96075016 -31.62253164 141.11662872 -29.875 142.75 C-25.61936403 146.48621145 -20.93254147 149.24840793 -16 152 C-15.34128906 152.37125 -14.68257812 152.7425 -14.00390625 153.125 C0.75661619 160.98091215 17.60705849 163.19038957 34 165 C34 165.33 34 165.66 34 166 C22.68173221 166.09287324 11.36355578 166.1638529 0.04498386 166.20724869 C-5.2112777 166.22808149 -10.46727765 166.25632035 -15.72338867 166.30175781 C-20.80031451 166.34536926 -25.87698944 166.36916948 -30.95408821 166.37950897 C-32.88649505 166.38687292 -34.81888889 166.40125287 -36.75118828 166.42292023 C-39.46780442 166.45215784 -42.18339714 166.45594756 -44.90014648 166.45410156 C-45.69065399 166.46848267 -46.4811615 166.48286377 -47.29562378 166.49768066 C-55.68633951 166.43639401 -63.89058266 162.78947279 -70 157 C-74.67480791 150.89918968 -77.28818238 145.06531314 -77.375 137.3125 C-77.40335937 136.17425781 -77.43171875 135.03601563 -77.4609375 133.86328125 C-76.40940343 125.04999993 -71.8029832 117.48083726 -67.375 109.9375 C-66.58331421 108.57069092 -66.58331421 108.57069092 -65.77563477 107.17626953 C-64.19143744 104.44627511 -62.59760545 101.72216556 -61 99 C-60.55285645 98.23671387 -60.10571289 97.47342773 -59.64501953 96.68701172 C-57.6055499 93.20819406 -55.55888194 89.73370732 -53.5078125 86.26171875 C-50.27490272 80.7806656 -47.09386191 75.26969632 -43.90966797 69.76025391 C-40.79921208 64.37852997 -37.67517906 59.00516525 -34.53515625 53.640625 C-31.62777549 48.63963418 -28.77659516 43.60909403 -25.95605469 38.55883789 C-21.88760427 31.2810159 -17.7240103 24.06604086 -13.46386719 16.89868164 C-10.87073059 12.52647323 -8.39659245 8.12070372 -6.1328125 3.56640625 C-4.67628304 1.55237758 -2.59774208 0 0 0 Z " fill="#554F9C" transform="translate(78,86)"/>
<path d="M0 0 C3.58555356 3.99927128 5.96795315 8.42685719 8.47265625 13.13671875 C10.28701938 16.53806959 12.19558989 19.88101009 14.1171875 23.22265625 C15 25 15 25 15 27 C15.66 27 16.32 27 17 27 C19.04827185 30.97722688 21.03933487 34.97889033 23 39 C23.35191406 39.68835938 23.70382812 40.37671875 24.06640625 41.0859375 C27.22071162 48.06502861 27.4229076 56.73692366 25.015625 63.94921875 C23.81571522 66.42681025 22.51390461 68.7028904 21 71 C20.38125 71.94875 19.7625 72.8975 19.125 73.875 C12.51130707 80.48869293 3.55787229 83.33065913 -5.59533691 83.3732605 C-7.01090881 83.35708176 -7.01090881 83.35708176 -8.45507812 83.34057617 C-9.47061768 83.34101425 -10.48615723 83.34145233 -11.5324707 83.34190369 C-14.86559753 83.33982544 -18.19821181 83.31653959 -21.53125 83.29296875 C-23.85151902 83.28736938 -26.17179159 83.28310089 -28.49206543 83.28010559 C-34.58139947 83.26868376 -40.67051684 83.23923932 -46.75976562 83.20599365 C-52.98043894 83.17523543 -59.20114746 83.16158796 -65.421875 83.14648438 C-77.61467822 83.11436721 -89.80732105 83.06320297 -102 83 C-102 82.67 -102 82.34 -102 82 C-101.43829102 81.94054199 -100.87658203 81.88108398 -100.29785156 81.81982422 C-81.928326 79.79656816 -64.84557206 75.73345316 -48 68 C-46.62775333 67.39679598 -45.25534536 66.7939588 -43.8828125 66.19140625 C-35.11263677 62.2738283 -27.52491055 58.02794788 -20 52 C-16.24153499 49 -16.24153499 49 -14 49 C-14 48.34 -14 47.68 -14 47 C-12.453125 45.73046875 -12.453125 45.73046875 -10.25 44.1875 C-5.95015685 40.93356464 -2.2396864 37.36053831 1.4375 33.4375 C1.95731445 32.89569092 2.47712891 32.35388184 3.01269531 31.7956543 C6.13789573 28.39939058 7.85056648 25.57708559 9 21 C3.17334006 24.80351413 -2.48221873 28.76017897 -8 33 C-8.495 31.02 -8.495 31.02 -9 29 C-7.68 28.34 -6.36 27.68 -5 27 C-5 25.68 -5 24.36 -5 23 C-3.68 23 -2.36 23 -1 23 C1.34018683 20.74339127 1.96506422 19.51239149 2.1875 16.25 C2.125625 15.5075 2.06375 14.765 2 14 C2.99 14.33 3.98 14.66 5 15 C3.07608351 9.68588506 3.07608351 9.68588506 -1 6 C-0.67 4.02 -0.34 2.04 0 0 Z " fill="#80529D" transform="translate(246,169)"/>
<path d="M0 0 C0.66 0 1.32 0 2 0 C1.835 1.010625 1.67 2.02125 1.5 3.0625 C0.91135767 6.94835012 0.91135767 6.94835012 1.0625 10.6875 C1.00262047 13.86111485 0.68072475 15.37386758 -1 18 C-1.66 18 -2.32 18 -3 18 C-3.33 18.99 -3.66 19.98 -4 21 C-4.66 21 -5.32 21 -6 21 C-5.630705 26.73043966 -4.79936887 30.88810902 -2 36 C-2 36.99 -2 37.98 -2 39 C-1.34 39.33 -0.68 39.66 0 40 C0.40729228 42.32156597 0.74438677 44.6568787 1 47 C1.66 47 2.32 47 3 47 C3 47.66 3 48.32 3 49 C4.29357422 49.13728516 4.29357422 49.13728516 5.61328125 49.27734375 C9.44179003 50.09426892 11.86991113 51.4975939 15.1875 53.5625 C33.06320133 64.25623926 52.75603517 69.80541514 73 74 C73.80373047 74.17418457 74.60746094 74.34836914 75.43554688 74.52783203 C97.4175306 78.57516224 120.25841061 75.76229672 141.15673828 68.51904297 C143 68 143 68 146 68 C146 67.01 146 66.02 146 65 C145.34 65 144.68 65 144 65 C144.33 64.01 144.66 63.02 145 62 C147 63 147 63 148.8359375 64.2109375 C151.02768235 65.28065865 151.02768235 65.28065865 153.2890625 64.1015625 C154.05992187 63.61429688 154.83078125 63.12703125 155.625 62.625 C159.85026738 60 159.85026738 60 162 60 C162.33 61.65 162.66 63.3 163 65 C149.54788102 74.34568266 132.98953392 79.89846242 117 83 C115.6855188 83.26490234 115.6855188 83.26490234 114.34448242 83.53515625 C106.62553278 84.97254382 99.15313642 85.31325274 91.3125 85.25 C90.08152588 85.24250732 88.85055176 85.23501465 87.58227539 85.22729492 C60.62139829 84.91014982 29.27813831 79.4269572 9 60 C9 59.34 9 58.68 9 58 C8.41089844 57.76023438 7.82179688 57.52046875 7.21484375 57.2734375 C0.6881311 53.5208655 -3.48133833 44.25892897 -6.11328125 37.46484375 C-9.17560086 25.49886359 -7.62531667 13.92675146 -2 3 C-1.34 2.01 -0.68 1.02 0 0 Z " fill="#645893" transform="translate(63,146)"/>
<path d="M0 0 C0.495 1.485 0.495 1.485 1 3 C-1.73275776 4.36637888 -4.41646007 4.31993251 -7.42333984 4.54418945 C-41.47035532 7.13786685 -71.87683646 18.5467566 -101 36 C-101 34.68 -101 33.36 -101 32 C-106.03985731 32.44469329 -108.37634988 34.71343362 -112 38 C-112.66 37.67 -113.32 37.34 -114 37 C-87.97201361 13.13479758 -37.02516047 -15.48324893 0 0 Z " fill="#6B5E90" transform="translate(179,77)"/>
<path d="M0 0 C0 1.65 0 3.3 0 5 C1.32 5 2.64 5 4 5 C4.66 5 5.32 5 6 5 C6 5.66 6 6.32 6 7 C6.99 7.495 6.99 7.495 8 8 C4.61113824 14.24264008 -0.34082808 18.39560821 -5.8125 22.8125 C-6.78832031 23.60269531 -7.76414063 24.39289063 -8.76953125 25.20703125 C-9.87361328 26.09455078 -9.87361328 26.09455078 -11 27 C-9.17782753 25.78521836 -7.36308343 24.55905776 -5.5625 23.3125 C-3 22 -3 22 -0.6875 22.3125 C-0.130625 22.539375 0.42625 22.76625 1 23 C-0.36916668 28.66771324 -4.54509406 31.24087722 -8.9375 34.625 C-10.38519224 35.76164961 -11.83184601 36.8996234 -13.27734375 38.0390625 C-13.91921631 38.53615723 -14.56108887 39.03325195 -15.22241211 39.54541016 C-17.03614714 40.9688413 -17.03614714 40.9688413 -18.60766602 42.68505859 C-20 44 -20 44 -22 44 C-22.26683594 44.59941406 -22.53367188 45.19882813 -22.80859375 45.81640625 C-24.02797109 48.05126504 -25.17604079 49.25618766 -27.0625 50.9375 C-39.71973221 63.2783014 -46.33762091 79.02379573 -50 96 C-50.66 95.01 -51.32 94.02 -52 93 C-52.391875 93.804375 -52.78375 94.60875 -53.1875 95.4375 C-55 98 -55 98 -57.6875 98.8125 C-58.450625 98.874375 -59.21375 98.93625 -60 99 C-58.2415169 93.98731254 -55.54846784 89.56378495 -52.875 85 C-52.38290039 84.15348877 -51.89080078 83.30697754 -51.38378906 82.43481445 C-48.58192748 77.6345529 -45.70868516 72.89238954 -42.75 68.1875 C-39.99286917 63.77270768 -37.58418554 59.29913333 -35.3125 54.625 C-33.2236252 50.33855329 -31.10980043 46.50100892 -28.22265625 42.72265625 C-26.14349023 39.79322425 -24.55919906 36.59543304 -22.87109375 33.4296875 C-20.03113016 28.22407573 -17.03321176 23.11162606 -14.04638672 17.98925781 C-13.3718042 16.83055176 -13.3718042 16.83055176 -12.68359375 15.6484375 C-12.23741699 14.8862793 -11.79124023 14.12412109 -11.33154297 13.33886719 C-10.41952155 11.73689337 -9.53965068 10.11630749 -8.68798828 8.48144531 C-8.05546143 7.27246582 -8.05546143 7.27246582 -7.41015625 6.0390625 C-7.04156494 5.31154785 -6.67297363 4.5840332 -6.29321289 3.83447266 C-4.77258788 1.67740709 -2.7888793 0 0 0 Z " fill="#5F5596" transform="translate(78,86)"/>
<path d="M0 0 C4.02704048 1.53999298 7.9233899 3.32294194 11.83862305 5.12231445 C26.27300738 11.73270653 40.46715357 16.700395 56 20 C56.77303467 20.17515137 57.54606934 20.35030273 58.3425293 20.53076172 C83.65363358 26.02849093 108.66622344 22.53848148 132.90307617 14.49731445 C135 14 135 14 137 15 C129.96591695 18.55985768 122.98801302 21.51556846 115.4375 23.75 C114.77886963 23.94811279 114.12023926 24.14622559 113.44165039 24.3503418 C102.68621058 27.41155573 92.15302427 28.32305474 81 28.25 C79.81921875 28.25773437 78.6384375 28.26546875 77.421875 28.2734375 C66.25294582 28.24883633 55.85500538 26.56669998 45.1875 23.3125 C44.33003174 23.05194824 43.47256348 22.79139648 42.58911133 22.52294922 C34.67197252 20.03413655 27.37279218 16.79899517 20 13 C19.33532715 12.66677734 18.6706543 12.33355469 17.98583984 11.99023438 C15.94180957 10.965082 13.90701915 9.92373591 11.875 8.875 C11.25906982 8.56256348 10.64313965 8.25012695 10.00854492 7.92822266 C5.91727154 5.76015878 3.09043171 3.37031986 0 0 Z " fill="#EFE7F5" transform="translate(75,199)"/>
<path d="M0 0 C0 0.33 0 0.66 0 1 C-0.90371338 1.02187378 -0.90371338 1.02187378 -1.82568359 1.04418945 C-40.43697287 2.08110299 -82.02611794 12.10589633 -112 38 C-112.66 37.67 -113.32 37.34 -114 37 C-86.66439516 11.9358351 -38.4648212 -13.81211748 0 0 Z " fill="#F6F1F9" transform="translate(179,77)"/>
<path d="M0 0 C0.495 1.485 0.495 1.485 1 3 C-1.67635761 7.73355786 -5.17456726 11.60574006 -8.875 15.5625 C-9.37902344 16.11357422 -9.88304687 16.66464844 -10.40234375 17.23242188 C-13.71816905 20.80689851 -17.12370735 24.03480178 -21 27 C-21.66 27 -22.32 27 -23 27 C-23 27.66 -23 28.32 -23 29 C-25.0944968 30.63429751 -27.17782091 32.14167234 -29.375 33.625 C-29.97828125 34.04523438 -30.5815625 34.46546875 -31.203125 34.8984375 C-35.73462865 38 -35.73462865 38 -38 38 C-38 37.34 -38 36.68 -38 36 C-39.98 36.495 -39.98 36.495 -42 37 C-42 35.68 -42 34.36 -42 33 C-44.31 32.67 -46.62 32.34 -49 32 C-46.97776213 29.97776213 -45.84298328 29.41804215 -43.25 28.375 C-32.19149263 23.52477747 -22.84167661 17.46131516 -13.68139648 9.65649414 C-9.3520908 5.98292383 -4.89450108 2.87945031 0 0 Z " fill="#F4EEF6" transform="translate(255,189)"/>
<path d="M0 0 C0.495 2.475 0.495 2.475 1 5 C-12.45700904 14.34907996 -29.00831029 19.88824363 -45 23 C-46.29599121 23.26707764 -46.29599121 23.26707764 -47.61816406 23.53955078 C-55.70498685 25.06981818 -63.537208 25.23644707 -71.75 25.125 C-73.03132812 25.11597656 -74.31265625 25.10695312 -75.6328125 25.09765625 C-78.75541221 25.07435327 -81.87760025 25.04164054 -85 25 C-85 24.67 -85 24.34 -85 24 C-83.948125 23.87625 -82.89625 23.7525 -81.8125 23.625 C-78.18479704 23.20139737 -78.18479704 23.20139737 -75.78125 21.98828125 C-72.10232287 20.68102203 -68.54604091 20.66341188 -64.6875 20.5625 C-47.54854722 19.81710151 -30.25893555 16.08675448 -15 8 C-15.495 6.515 -15.495 6.515 -16 5 C-16.66 5 -17.32 5 -18 5 C-17.67 4.01 -17.34 3.02 -17 2 C-15 3 -15 3 -13.1640625 4.2109375 C-10.97231765 5.28065865 -10.97231765 5.28065865 -8.7109375 4.1015625 C-7.94007813 3.61429688 -7.16921875 3.12703125 -6.375 2.625 C-2.14973262 0 -2.14973262 0 0 0 Z " fill="#766891" transform="translate(225,206)"/>
<path d="M0 0 C0.77601562 0.25394531 1.55203125 0.50789062 2.3515625 0.76953125 C15.7459298 5.03718766 29.07016108 7.46229051 43 9 C43 9.33 43 9.66 43 10 C31.57805441 10.04629221 20.15613105 10.08185334 8.73411083 10.10362434 C3.43069844 10.11407207 -1.87264988 10.12824932 -7.17602539 10.15087891 C-12.29180724 10.172572 -17.40752738 10.18456117 -22.52335167 10.18975449 C-24.47743387 10.1934566 -26.43151261 10.20068568 -28.38556862 10.21146011 C-31.11755359 10.22592806 -33.84928186 10.22797991 -36.58129883 10.22705078 C-37.39337799 10.23424133 -38.20545715 10.24143188 -39.04214478 10.24884033 C-42.89513058 10.23461315 -44.71680535 10.18879643 -48 8 C-46.71073008 7.63720544 -45.41846728 7.28503302 -44.125 6.9375 C-43.40570313 6.74027344 -42.68640625 6.54304687 -41.9453125 6.33984375 C-40 6 -40 6 -38 7 C-36.58117119 7.11747478 -35.15728586 7.17685428 -33.73388672 7.20532227 C-32.41274368 7.2352401 -32.41274368 7.2352401 -31.06491089 7.26576233 C-30.11278717 7.28247482 -29.16066345 7.29918732 -28.1796875 7.31640625 C-27.20589142 7.33718735 -26.23209534 7.35796844 -25.22879028 7.37937927 C-22.11093353 7.44488598 -18.99299097 7.50376497 -15.875 7.5625 C-13.76431396 7.60568415 -11.65363667 7.6492984 -9.54296875 7.69335938 C-4.3620705 7.80056847 0.81891356 7.90233278 6 8 C6 7.01 6 6.02 6 5 C1.545 4.01 1.545 4.01 -3 3 C-2.01 2.01 -1.02 1.02 0 0 Z " fill="#6D6695" transform="translate(69,242)"/>
<path d="M0 0 C-0.99 1.32 -1.98 2.64 -3 4 C-1.12187622 3.95456055 -1.12187622 3.95456055 0.79418945 3.90820312 C42.57835658 2.90671004 42.57835658 2.90671004 59.25 2.8125 C60.34094971 2.79960937 61.43189941 2.78671875 62.5559082 2.7734375 C64.02096802 2.77150391 64.02096802 2.77150391 65.515625 2.76953125 C66.34352539 2.76542236 67.17142578 2.76131348 68.02441406 2.75708008 C70 3 70 3 72 5 C69.21426647 5.92857784 67.56520886 6.1237216 64.69099426 6.12025452 C63.81179825 6.12162918 62.93260223 6.12300385 62.02676392 6.12442017 C60.58422745 6.11902725 60.58422745 6.11902725 59.11254883 6.11352539 C58.09773941 6.11367142 57.08292999 6.11381744 56.03736877 6.1139679 C52.67723465 6.11327026 49.31715571 6.10548478 45.95703125 6.09765625 C43.62961355 6.09579154 41.30219546 6.09436789 38.97477722 6.09336853 C32.84435953 6.08954751 26.71396547 6.07972074 20.58355713 6.06866455 C14.32979655 6.05844152 8.07603215 6.05386899 1.82226562 6.04882812 C-10.45183331 6.03809813 -22.72591469 6.02102666 -35 6 C-35 5.67 -35 5.34 -35 5 C-34.06317383 4.87939209 -34.06317383 4.87939209 -33.10742188 4.75634766 C-30.23762844 4.38408171 -27.36883334 4.00459118 -24.5 3.625 C-23.02660156 3.43550781 -23.02660156 3.43550781 -21.5234375 3.2421875 C-14.47550258 2.30246284 -7.06141988 -0.44133874 0 0 Z " fill="#705689" transform="translate(179,246)"/>
<path d="M0 0 C0.33 0 0.66 0 1 0 C0.95875 0.928125 0.9175 1.85625 0.875 2.8125 C0.72863661 6.15809719 0.72863661 6.15809719 3 9 C2.18208984 9.74830078 2.18208984 9.74830078 1.34765625 10.51171875 C-12.94527523 24.12054411 -20.88960369 39.94710415 -25 59 C-25.66 58.01 -26.32 57.02 -27 56 C-27.391875 56.804375 -27.78375 57.60875 -28.1875 58.4375 C-30 61 -30 61 -32.6875 61.8125 C-33.450625 61.874375 -34.21375 61.93625 -35 62 C-33.2415169 56.98731254 -30.54846784 52.56378495 -27.875 48 C-27.38290039 47.15348877 -26.89080078 46.30697754 -26.38378906 45.43481445 C-23.58192748 40.6345529 -20.70868516 35.89238954 -17.75 31.1875 C-14.99289438 26.77274805 -12.58387931 22.29926277 -10.3125 17.625 C-7.89795974 12.66361591 -5.33276967 8.38021156 -2 4 C-1.29325371 2.68747118 -0.60036728 1.36447109 0 0 Z " fill="#6F6C7F" transform="translate(53,123)"/>
<path d="M0 0 C2.17041428 -0.00956867 4.33982291 -0.04055875 6.51000977 -0.07226562 C19.61034609 -0.1710175 32.06310838 1.61292956 44.40258789 6.24023438 C44.40258789 6.90023437 44.40258789 7.56023437 44.40258789 8.24023438 C41.76258789 8.24023438 39.12258789 8.24023438 36.40258789 8.24023438 C35.90758789 7.25023438 35.90758789 7.25023438 35.40258789 6.24023438 C29.81846549 4.50837855 24.5861744 3.88356823 18.76586914 3.72070312 C17.96457077 3.69422195 17.1632724 3.66774078 16.33769226 3.64045715 C14.65120981 3.58810394 12.96457525 3.54045656 11.27783203 3.49731445 C8.73835038 3.42836597 6.20086817 3.3321333 3.66235352 3.234375 C-5.84101604 2.93324339 -14.47594259 3.17415284 -23.59741211 6.24023438 C-23.92741211 6.57023437 -24.25741211 6.90023437 -24.59741211 7.24023438 C-26.28350177 7.31228949 -27.9724187 7.32409505 -29.65991211 7.30273438 C-30.57901367 7.29371094 -31.49811523 7.2846875 -32.44506836 7.27539062 C-33.1553418 7.26378906 -33.86561523 7.2521875 -34.59741211 7.24023438 C-34.59741211 6.58023438 -34.59741211 5.92023438 -34.59741211 5.24023438 C-32.03527657 4.59292634 -29.47272726 3.94734149 -26.90991211 3.30273438 C-26.18868164 3.12033203 -25.46745117 2.93792969 -24.72436523 2.75 C-24.01860352 2.57275391 -23.3128418 2.39550781 -22.58569336 2.21289062 C-21.94156494 2.05054932 -21.29743652 1.88820801 -20.63378906 1.72094727 C-19.96178467 1.56231201 -19.28978027 1.40367676 -18.59741211 1.24023438 C-17.83750977 1.05936279 -17.07760742 0.87849121 -16.29467773 0.69213867 C-10.92250584 -0.2079238 -5.43558065 0.01441958 0 0 Z " fill="#6B5A8D" transform="translate(148.597412109375,101.759765625)"/>
<path d="M0 0 C3.58555356 3.99927128 5.96795315 8.42685719 8.47265625 13.13671875 C10.28701938 16.53806959 12.19558989 19.88101009 14.1171875 23.22265625 C15 25 15 25 15 27 C15.66 27 16.32 27 17 27 C17 27.66 17 28.32 17 29 C14.1875 30.125 14.1875 30.125 11 31 C10.01 30.34 9.02 29.68 8 29 C8.33 26.36 8.66 23.72 9 21 C3.17334006 24.80351413 -2.48221873 28.76017897 -8 33 C-8.33 31.68 -8.66 30.36 -9 29 C-7.68 28.34 -6.36 27.68 -5 27 C-5 25.68 -5 24.36 -5 23 C-3.68 23 -2.36 23 -1 23 C1.34018683 20.74339127 1.96506422 19.51239149 2.1875 16.25 C2.125625 15.5075 2.06375 14.765 2 14 C2.99 14.33 3.98 14.66 5 15 C3.07608351 9.68588506 3.07608351 9.68588506 -1 6 C-0.67 4.02 -0.34 2.04 0 0 Z " fill="#86629B" transform="translate(246,169)"/>
<path d="M0 0 C0.495 2.475 0.495 2.475 1 5 C-4.95610714 8.99512838 -11.15476655 12.10364799 -17.75 14.875 C-18.47050537 15.1851001 -19.19101074 15.4952002 -19.93334961 15.81469727 C-24.11853176 17.5275424 -27.39506499 18.36202319 -32 18 C-31.34 17.67 -30.68 17.34 -30 17 C-29.67 16.01 -29.34 15.02 -29 14 C-26.64522059 12.80369056 -24.38252884 11.78047329 -21.9375 10.8125 C-21.27427734 10.53986328 -20.61105469 10.26722656 -19.92773438 9.98632812 C-18.28915183 9.3143914 -16.64506597 8.65590372 -15 8 C-15.33 7.01 -15.66 6.02 -16 5 C-16.66 5 -17.32 5 -18 5 C-17.67 4.01 -17.34 3.02 -17 2 C-15 3 -15 3 -13.1640625 4.2109375 C-10.97231765 5.28065865 -10.97231765 5.28065865 -8.7109375 4.1015625 C-7.94007813 3.61429688 -7.16921875 3.12703125 -6.375 2.625 C-2.14973262 0 -2.14973262 0 0 0 Z " fill="#74618D" transform="translate(225,206)"/>
<path d="M0 0 C0.6171875 1.78125 0.6171875 1.78125 1 4 C0.03851278 5.79477614 -0.93035514 7.5887591 -2.0078125 9.31640625 C-3.1003122 11.17021479 -3.66021456 12.87634099 -4 15 C-4.66 15 -5.32 15 -6 15 C-6.12117187 15.56589844 -6.24234375 16.13179687 -6.3671875 16.71484375 C-6.53476563 17.44832031 -6.70234375 18.18179688 -6.875 18.9375 C-7.03742187 19.66839844 -7.19984375 20.39929688 -7.3671875 21.15234375 C-8 23 -8 23 -10 24 C-10.57954213 25.91844065 -10.57954213 25.91844065 -10.9375 28.1875 C-11.73482227 32.18048994 -12.98623071 35.43013627 -15 39 C-14.34 39 -13.68 39 -13 39 C-12.67 41.97 -12.34 44.94 -12 48 C-11.34 48 -10.68 48 -10 48 C-10 49.98 -10 51.96 -10 54 C-14.08796891 50.32082798 -15.75837975 47.30101149 -16.3359375 41.80078125 C-16.34882813 40.64964844 -16.36171875 39.49851563 -16.375 38.3125 C-16.40335938 37.17425781 -16.43171875 36.03601563 -16.4609375 34.86328125 C-15.36057137 25.64072109 -10.3788349 17.7595226 -5.75 9.875 C-5.19570312 8.91851562 -4.64140625 7.96203125 -4.0703125 6.9765625 C-2.71946087 4.64750797 -1.36265836 2.32215957 0 0 Z " fill="#59588C" transform="translate(17,185)"/>
<path d="M0 0 C3.44628582 0.81184177 6.90949944 0.71310126 10.43218994 0.73939514 C11.66201599 0.75424454 11.66201599 0.75424454 12.91668701 0.76939392 C15.62202077 0.8009377 18.32737207 0.82573817 21.03277588 0.85047913 C22.9103643 0.8710548 24.78794815 0.89205144 26.66552734 0.91345215 C31.60398658 0.96860942 36.54248718 1.01804667 41.48101807 1.06629944 C46.52174556 1.11656079 51.56241308 1.17222266 56.60308838 1.22743225 C66.49105797 1.33493622 76.37907965 1.43639842 86.26715088 1.53407288 C86.26715088 1.86407288 86.26715088 2.19407288 86.26715088 2.53407288 C51.94715088 2.53407288 17.62715088 2.53407288 -17.73284912 2.53407288 C-17.73284912 2.20407288 -17.73284912 1.87407288 -17.73284912 1.53407288 C-15.15050553 1.17074314 -12.5674513 0.81812421 -9.98284912 0.47157288 C-9.25323975 0.36780334 -8.52363037 0.26403381 -7.77191162 0.15711975 C-2.16462472 -0.58202261 -2.16462472 -0.58202261 0 0 Z " fill="#9985AA" transform="translate(161.73284912109375,249.46592712402344)"/>
<path d="M0 0 C0.98436035 -0.00128906 1.9687207 -0.00257812 2.98291016 -0.00390625 C10.10515192 0.10515192 10.10515192 0.10515192 12.375 2.375 C10.05451947 3.53524027 8.34474195 3.65235558 5.76171875 3.875 C4.84326172 3.9575 3.92480469 4.04 2.97851562 4.125 C1.53508789 4.24875 1.53508789 4.24875 0.0625 4.375 C-1.8296428 4.53919951 -3.72157983 4.70579121 -5.61328125 4.875 C-6.45415283 4.9471875 -7.29502441 5.019375 -8.16137695 5.09375 C-10.68909726 5.38231742 -13.13352025 5.86650807 -15.625 6.375 C-17.06128457 6.43766512 -18.5000555 6.46186347 -19.9375 6.4375 C-21.7628125 6.4065625 -21.7628125 6.4065625 -23.625 6.375 C-23.625 5.715 -23.625 5.055 -23.625 4.375 C-15.74264717 0.65000626 -8.61464112 -0.01117877 0 0 Z " fill="#6B5A8B" transform="translate(167.625,77.625)"/>
<path d="M0 0 C3.75634842 4.34437492 6.47564991 9.06625034 9.25 14.0625 C9.70890625 14.86494141 10.1678125 15.66738281 10.640625 16.49414062 C11.07375 17.27080078 11.506875 18.04746094 11.953125 18.84765625 C12.34661133 19.54898682 12.74009766 20.25031738 13.14550781 20.97290039 C14.71824156 24.70387419 13.84569983 28.19435076 13 32 C12.01 31.34 11.02 30.68 10 30 C9.59802999 27.67750658 9.27313343 25.34114367 9 23 C8.37743972 20.98583438 7.72433347 18.97984481 7 17 C5.02 17 3.04 17 1 17 C1.2475 15.453125 1.2475 15.453125 1.5 13.875 C1.93321848 10.51755674 2.08235703 7.37663843 2 4 C1.34 4 0.68 4 0 4 C0 2.68 0 1.36 0 0 Z " fill="#805C98" transform="translate(231,143)"/>
<path d="M0 0 C0.66 0.33 1.32 0.66 2 1 C2 1.99 2 2.98 2 4 C-0.34763919 5.56509279 -2.55702955 6.8403014 -5.0625 8.1015625 C-13.52535321 12.42078518 -21.52796402 16.64422436 -28.96875 22.6015625 C-31 24 -31 24 -34 24 C-23.84917943 14.69265736 -12.36166416 6.18083208 0 0 Z " fill="#ECE9F4" transform="translate(99,90)"/>
<path d="M0 0 C-0.33 1.32 -0.66 2.64 -1 4 C-1.66 4 -2.32 4 -3 4 C-3 4.66 -3 5.32 -3 6 C-3.99 6.66 -4.98 7.32 -6 8 C-6.72382467 10.05925139 -6.72382467 10.05925139 -7 12 C-7.66 12 -8.32 12 -9 12 C-9 12.66 -9 13.32 -9 14 C-10.32 14 -11.64 14 -13 14 C-13 14.66 -13 15.32 -13 16 C-13.66 16 -14.32 16 -15 16 C-15.226875 16.598125 -15.45375 17.19625 -15.6875 17.8125 C-17.39310766 20.65517943 -19.00968056 21.60915375 -22 23 C-24.8125 23.1875 -24.8125 23.1875 -27 23 C-25.37660195 21.29115995 -23.70680947 19.62553283 -22 18 C-21.34 18 -20.68 18 -20 18 C-20 17.34 -20 16.68 -20 16 C-18.3125 14.58984375 -18.3125 14.58984375 -16 12.9375 C-11.59130978 9.64141299 -8.18658193 5.9871658 -4.7265625 1.72265625 C-3 0 -3 0 0 0 Z " fill="#7C5D91" transform="translate(252,200)"/>
<path d="M0 0 C0 2.62113708 -0.31292445 4.50935112 -1 7 C-1.66 7 -2.32 7 -3 7 C-3.28875 8.27875 -3.5775 9.5575 -3.875 10.875 C-4.54102483 13.82453855 -4.80202597 14.80202597 -7 17 C-7.6160465 19.35680175 -8.14726384 21.73631921 -8.625 24.125 C-8.88539062 25.40632813 -9.14578125 26.68765625 -9.4140625 28.0078125 C-9.70410156 29.48894531 -9.70410156 29.48894531 -10 31 C-10.33 29.68 -10.66 28.36 -11 27 C-12.32 27.33 -13.64 27.66 -15 28 C-14.46517379 23.71396758 -13.49945409 20.59295243 -11.34765625 16.85546875 C-10.81849609 15.93185547 -10.28933594 15.00824219 -9.74414062 14.05664062 C-9.18919922 13.10982422 -8.63425781 12.16300781 -8.0625 11.1875 C-7.23588867 9.73827148 -7.23588867 9.73827148 -6.39257812 8.25976562 C-2.27271534 1.13635767 -2.27271534 1.13635767 0 0 Z " fill="#655A91" transform="translate(97,49)"/>
<path d="M0 0 C3.625 0.375 3.625 0.375 7 1 C6.67 1.99 6.34 2.98 6 4 C6.74765625 3.96519531 7.4953125 3.93039063 8.265625 3.89453125 C9.25046875 3.86746094 10.2353125 3.84039062 11.25 3.8125 C12.71179688 3.76029297 12.71179688 3.76029297 14.203125 3.70703125 C17.46709602 4.04892766 18.47969303 4.99163038 21 7 C23.7997335 7.99287604 23.7997335 7.99287604 26.75 8.6875 C27.73484375 8.93886719 28.7196875 9.19023437 29.734375 9.44921875 C30.48203125 9.63097656 31.2296875 9.81273437 32 10 C32 10.66 32 11.32 32 12 C20.22298941 10.17336162 8.71016902 7.32675073 -2 2 C-1.34 1.34 -0.68 0.68 0 0 Z " fill="#6E6191" transform="translate(101,208)"/>
<path d="M0 0 C0.66 0 1.32 0 2 0 C0.68 5.94 -0.64 11.88 -2 18 C-2.66 17.01 -3.32 16.02 -4 15 C-4.391875 15.804375 -4.78375 16.60875 -5.1875 17.4375 C-7 20 -7 20 -9.6875 20.8125 C-10.450625 20.874375 -11.21375 20.93625 -12 21 C-10.36530185 16.39068718 -7.97080462 12.40413934 -5.4375 8.25 C-5.02564453 7.56550781 -4.61378906 6.88101563 -4.18945312 6.17578125 C-1.14773261 1.14773261 -1.14773261 1.14773261 0 0 Z " fill="#5F5C94" transform="translate(30,164)"/>
<path d="M0 0 C8.07385038 1.37530517 16.03399365 3.10031645 24 5 C22.32421875 7.03125 22.32421875 7.03125 20 9 C13.01322235 9.26406719 6.11605393 6.11088175 0 3 C0 2.01 0 1.02 0 0 Z " fill="#F3EDF9" transform="translate(107,214)"/>
<path d="M0 0 C1.37562854 1.28965176 2.70766393 2.62689293 4 4 C4 4.66 4 5.32 4 6 C4.59554687 6.27328125 5.19109375 6.5465625 5.8046875 6.828125 C7.92647198 7.96075016 9.37746836 9.11662872 11.125 10.75 C14.74505344 13.95386509 18.67221865 16.31556713 22.86328125 18.703125 C25 20 25 20 27 22 C26.01 22.33 25.02 22.66 24 23 C22.65599167 22.01439389 21.32392972 21.01241685 20 20 C17.35065178 19.28566879 17.35065178 19.28566879 15 19 C15 18.01 15 17.02 15 16 C14.34 16 13.68 16 13 16 C13 15.34 13 14.68 13 14 C11.88625 13.855625 10.7725 13.71125 9.625 13.5625 C6 13 6 13 4 12 C4 10.68 4 9.36 4 8 C3.01 7.67 2.02 7.34 1 7 C0.67 4.69 0.34 2.38 0 0 Z " fill="#645D8D" transform="translate(37,218)"/>
<path d="M0 0 C0.66 0.33 1.32 0.66 2 1 C1.731875 1.66 1.46375 2.32 1.1875 3 C0.795625 3.99 0.40375 4.98 0 6 C-0.53625 7.134375 -1.0725 8.26875 -1.625 9.4375 C-4.50894318 17.08431903 -3.48381113 26.12622806 -2 34 C-2.99 34.495 -2.99 34.495 -4 35 C-5.48679725 32.02640551 -5.11112605 29.33700821 -5.09765625 26.0234375 C-5.09553383 24.99556625 -5.09553383 24.99556625 -5.09336853 23.94692993 C-5.08776675 21.75624239 -5.07521406 19.5656567 -5.0625 17.375 C-5.05748522 15.89062648 -5.05292228 14.40625135 -5.04882812 12.921875 C-5.03779677 9.28121685 -5.02053099 5.64061836 -5 2 C-4.34 1.67 -3.68 1.34 -3 1 C-3 1.66 -3 2.32 -3 3 C-2.34 3 -1.68 3 -1 3 C-0.67 2.01 -0.34 1.02 0 0 Z " fill="#EFF3F9" transform="translate(5,202)"/>
<path d="M0 0 C-2.97 0.66 -5.94 1.32 -9 2 C-9 2.66 -9 3.32 -9 4 C-8.34 4.33 -7.68 4.66 -7 5 C-14.24349862 7.00352089 -19.75650138 7.00352089 -27 5 C-19.53570112 0.88483761 -8.35217287 -2.08804322 0 0 Z " fill="#776A9B" transform="translate(153,80)"/>
<path d="M0 0 C0.89589844 0.00322266 1.79179687 0.00644531 2.71484375 0.00976562 C4.12056641 0.02233398 4.12056641 0.02233398 5.5546875 0.03515625 C6.49957031 0.03966797 7.44445312 0.04417969 8.41796875 0.04882812 C10.75527137 0.06063268 13.09244811 0.07709866 15.4296875 0.09765625 C15.4296875 1.08765625 15.4296875 2.07765625 15.4296875 3.09765625 C11.67568952 4.30158995 8.09751338 4.19643242 4.1796875 4.16015625 C2.91640625 4.15113281 1.653125 4.14210937 0.3515625 4.1328125 C-0.61265625 4.12121094 -1.576875 4.10960937 -2.5703125 4.09765625 C-2.9003125 3.43765625 -3.2303125 2.77765625 -3.5703125 2.09765625 C-4.5603125 2.42765625 -5.5503125 2.75765625 -6.5703125 3.09765625 C-6.5703125 2.43765625 -6.5703125 1.77765625 -6.5703125 1.09765625 C-4.16971433 -0.10264283 -2.67670601 -0.01694118 0 0 Z " fill="#FEF8FD" transform="translate(151.5703125,222.90234375)"/>
<path d="M0 0 C0 0.66 0 1.32 0 2 C0.66 2.33 1.32 2.66 2 3 C-0.16069021 6.98021881 -2.62650361 9.97250324 -6 13 C-6.66 13 -7.32 13 -8 13 C-8.33 12.01 -8.66 11.02 -9 10 C-9.33 10.99 -9.66 11.98 -10 13 C-10.73080266 11.02253397 -11.39421747 9.01927511 -12 7 C-11.67 6.34 -11.34 5.68 -11 5 C-9.68 5 -8.36 5 -7 5 C-7 5.99 -7 6.98 -7 8 C-6.01 7.67 -5.02 7.34 -4 7 C-3.67 6.34 -3.34 5.68 -3 5 C-3.99 5 -4.98 5 -6 5 C-4.61551018 2.23102035 -3.26099808 0 0 0 Z " fill="#5E5392" transform="translate(84,91)"/>
<path d="M0 0 C0.495 1.485 0.495 1.485 1 3 C-5.00352425 9.00352425 -25.05031339 6.72517947 -33 7 C-30.03651571 5.0243438 -29.31979627 4.73623141 -25.98828125 4.5859375 C-25.23095703 4.54726562 -24.47363281 4.50859375 -23.69335938 4.46875 C-22.90767578 4.4378125 -22.12199219 4.406875 -21.3125 4.375 C-20.51521484 4.33632812 -19.71792969 4.29765625 -18.89648438 4.2578125 C-16.93136525 4.16367506 -14.9657146 4.08075368 -13 4 C-13.66 3.34 -14.32 2.68 -15 2 C-13.05909174 0.05909174 -9.52706098 0.60080565 -6.9375 0.4375 C-5.64714844 0.35371094 -4.35679687 0.26992187 -3.02734375 0.18359375 C-2.02832031 0.12300781 -1.02929688 0.06242187 0 0 Z " fill="#765DA1" transform="translate(175,69)"/>
<path d="M0 0 C7.7276932 -0.31806054 13.93924474 -0.32270836 21 3 C21 3.66 21 4.32 21 5 C21.804375 5.28875 22.60875 5.5775 23.4375 5.875 C26 7 26 7 27 9 C26.34 9 25.68 9 25 9 C25.66 10.65 26.32 12.3 27 14 C26.01 14 25.02 14 24 14 C23.0234375 12.20963542 22.046875 10.41927083 21.0703125 8.62890625 C20.08589976 6.83381685 20.08589976 6.83381685 18 6 C18 5.34 18 4.68 18 4 C14.07901312 3.18035868 10.14774848 2.53753765 6.1875 1.9375 C5.02605469 1.76089844 3.86460937 1.58429687 2.66796875 1.40234375 C1.78753906 1.26957031 0.90710938 1.13679687 0 1 C0 0.67 0 0.34 0 0 Z " fill="#705898" transform="translate(131,9)"/>
<path d="M0 0 C0.33 0.99 0.66 1.98 1 3 C-0.98 3.66 -2.96 4.32 -5 5 C-3.68 5.33 -2.36 5.66 -1 6 C-4.46741134 8.95749791 -7.86873527 11.07848152 -12 13 C-12 11.68 -12 10.36 -12 9 C-12.66 8.34 -13.32 7.68 -14 7 C-12.04480616 5.82807953 -10.0857461 4.6626071 -8.125 3.5 C-7.03445312 2.8503125 -5.94390625 2.200625 -4.8203125 1.53125 C-2 0 -2 0 0 0 Z " fill="#675D96" transform="translate(90,100)"/>
<path d="M0 0 C0.33 1.65 0.66 3.3 1 5 C-4.88728814 8.21124808 -9.39933455 8 -16 8 C-16 7.01 -16 6.02 -16 5 C-16.66 5 -17.32 5 -18 5 C-17.67 4.01 -17.34 3.02 -17 2 C-15 3 -15 3 -13.1640625 4.2109375 C-10.97231765 5.28065865 -10.97231765 5.28065865 -8.7109375 4.1015625 C-7.55464844 3.37066406 -7.55464844 3.37066406 -6.375 2.625 C-2.14973262 0 -2.14973262 0 0 0 Z " fill="#8662A4" transform="translate(225,206)"/>
<path d="M0 0 C0.12375 0.639375 0.2475 1.27875 0.375 1.9375 C0.58125 2.618125 0.7875 3.29875 1 4 C1.66 4.33 2.32 4.66 3 5 C2.01 7.64 1.02 10.28 0 13 C-0.66 13 -1.32 13 -2 13 C0.1385485 15.1385485 1.13275314 15.42655063 4 16 C-5.41002278 20.59225513 -5.41002278 20.59225513 -10 20 C-8.87619001 16.62857004 -8.35039902 16.4011037 -5.5625 14.5 C-1.30186104 11.06005789 -0.85746685 7.45368566 -0.19140625 2.1953125 C-0.12824219 1.47085938 -0.06507813 0.74640625 0 0 Z " fill="#F4E9F5" transform="translate(217,132)"/>
<path d="M0 0 C0.33 0 0.66 0 1 0 C1.6053938 9.33651766 1.13668843 16.03813293 -4 24 C-4.66 24 -5.32 24 -6 24 C-5.34 19.38 -4.68 14.76 -4 10 C-3.01 10 -2.02 10 -1 10 C-0.67 6.7 -0.34 3.4 0 0 Z " fill="#815792" transform="translate(271,216)"/>
<path d="M0 0 C0 1.66666667 0 3.33333333 0 5 C-0.66 5 -1.32 5 -2 5 C-2 5.66 -2 6.32 -2 7 C-2.66 7 -3.32 7 -4 7 C-4 8.32 -4 9.64 -4 11 C-8.56830973 11.31147566 -10.50007882 10.89884776 -14 8 C-13.24074219 7.59007812 -12.48148438 7.18015625 -11.69921875 6.7578125 C-10.70535156 6.21898437 -9.71148437 5.68015625 -8.6875 5.125 C-7.20830078 4.32449219 -7.20830078 4.32449219 -5.69921875 3.5078125 C-2.90413542 1.99277874 -2.90413542 1.99277874 0 0 Z " fill="#7B54A1" transform="translate(219,226)"/>
<path d="M0 0 C10.72524662 -0.56229448 10.72524662 -0.56229448 15 3 C15 3.33 15 3.66 15 4 C8.73 4 2.46 4 -4 4 C-4.33 3.34 -4.66 2.68 -5 2 C-3.35 2 -1.7 2 0 2 C0 1.34 0 0.68 0 0 Z " fill="#6B558B" transform="translate(149,218)"/>
<path d="M0 0 C0.33 0.66 0.66 1.32 1 2 C2.3921875 2.185625 2.3921875 2.185625 3.8125 2.375 C7.51345415 3.10067729 8.73530245 4.03847244 11 7 C11 7.99 11 8.98 11 10 C9 10 9 10 7.375 8.5 C6.92125 8.005 6.4675 7.51 6 7 C5.67 8.32 5.34 9.64 5 11 C3.96409662 9.93106782 2.94666058 8.84421512 1.9375 7.75 C1.36902344 7.14671875 0.80054687 6.5434375 0.21484375 5.921875 C-1 4 -1 4 -0.68359375 1.765625 C-0.45800781 1.18296875 -0.23242188 0.6003125 0 0 Z " fill="#655F8E" transform="translate(65,193)"/>
<path d="M0 0 C2.79192205 -0.05380578 5.5828141 -0.09357669 8.375 -0.125 C9.1690625 -0.14175781 9.963125 -0.15851563 10.78125 -0.17578125 C12.85492015 -0.19335473 14.92883241 -0.10335168 17 0 C17.66 0.66 18.32 1.32 19 2 C16.76352369 3.11823815 15.35108471 3.19396061 12.8671875 3.31640625 C12.06152344 3.35830078 11.25585938 3.40019531 10.42578125 3.44335938 C9.58402344 3.48267578 8.74226562 3.52199219 7.875 3.5625 C7.02550781 3.60568359 6.17601562 3.64886719 5.30078125 3.69335938 C3.20071777 3.79954236 1.10038052 3.90028497 -1 4 C-0.67 2.68 -0.34 1.36 0 0 Z " fill="#6A5789" transform="translate(161,78)"/>
<path d="M0 0 C0.66 0.66 1.32 1.32 2 2 C1.64644564 4.26274788 1.02455574 5.95088852 0 8 C-0.66 8 -1.32 8 -2 8 C-2.59732819 10.76264289 -3 13.16032769 -3 16 C-4 18.1875 -4 18.1875 -5 20 C-5.33 19.01 -5.66 18.02 -6 17 C-6.66 17 -7.32 17 -8 17 C-7.30150228 13.0254496 -5.37107231 9.73425902 -3.4375 6.25 C-3.10814453 5.64800781 -2.77878906 5.04601563 -2.43945312 4.42578125 C-1.6303535 2.94829497 -0.81572338 1.47383964 0 0 Z " fill="#675A8E" transform="translate(106,31)"/>
<path d="M0 0 C0.9075 0.391875 1.815 0.78375 2.75 1.1875 C-0.67388092 5.01419043 -3.25724943 6.91028474 -8.25 8.1875 C-8.91 7.5275 -9.57 6.8675 -10.25 6.1875 C-9.59 6.1875 -8.93 6.1875 -8.25 6.1875 C-8.1675 5.589375 -8.085 4.99125 -8 4.375 C-7.25 2.1875 -7.25 2.1875 -5.5625 0.3125 C-3.25 -0.8125 -3.25 -0.8125 0 0 Z " fill="#7C5895" transform="translate(233.25,201.8125)"/>
<path d="M0 0 C0.33 0 0.66 0 1 0 C0.95875 0.928125 0.9175 1.85625 0.875 2.8125 C0.72863661 6.15809719 0.72863661 6.15809719 3 9 C1.35 10.32 -0.3 11.64 -2 13 C-2.66 12.67 -3.32 12.34 -4 12 C-4.33 12.66 -4.66 13.32 -5 14 C-5.66 13.67 -6.32 13.34 -7 13 C-5.74136239 9.514542 -4.25920421 6.91813877 -2 4 C-1.30419733 2.68163705 -0.62775567 1.35208914 0 0 Z " fill="#655E8C" transform="translate(53,123)"/>
<path d="M0 0 C1.5 1.375 1.5 1.375 3 3 C3 3.66 3 4.32 3 5 C-7.23 5 -17.46 5 -28 5 C-28 4.67 -28 4.34 -28 4 C-27.18732666 3.9498877 -26.37465332 3.89977539 -25.53735352 3.84814453 C-21.87836527 3.61698433 -18.22050608 3.37119428 -14.5625 3.125 C-13.28310547 3.04636719 -12.00371094 2.96773438 -10.68554688 2.88671875 C-8.86313477 2.76103516 -8.86313477 2.76103516 -7.00390625 2.6328125 C-5.31503296 2.52283936 -5.31503296 2.52283936 -3.59204102 2.41064453 C-2.73666748 2.27513184 -1.88129395 2.13961914 -1 2 C-0.67 1.34 -0.34 0.68 0 0 Z " fill="#88769A" transform="translate(192,77)"/>
<path d="M0 0 C0.6171875 1.78125 0.6171875 1.78125 1 4 C0.03851278 5.79477614 -0.93035514 7.5887591 -2.0078125 9.31640625 C-3.1003122 11.17021479 -3.66021456 12.87634099 -4 15 C-4.66 15 -5.32 15 -6 15 C-6.66 17.64 -7.32 20.28 -8 23 C-9.32 23 -10.64 23 -12 23 C-10.2010497 17.92365174 -7.50973545 13.36286389 -4.875 8.6875 C-4.40707031 7.85154297 -3.93914063 7.01558594 -3.45703125 6.15429688 C-2.3073741 4.10133767 -1.15496198 2.04997798 0 0 Z " fill="#5B598C" transform="translate(17,185)"/>
<path d="M0 0 C0.66 0.33 1.32 0.66 2 1 C2 1.66 2 2.32 2 3 C2.99 3.33 3.98 3.66 5 4 C3.35 6.97 1.7 9.94 0 13 C-0.99 12.01 -1.98 11.02 -3 10 C-2.34 8.02 -1.68 6.04 -1 4 C-1.66 3.34 -2.32 2.68 -3 2 C-2.01 1.34 -1.02 0.68 0 0 Z " fill="#F7F8F5" transform="translate(20,169)"/>
<path d="M0 0 C0.33 3.3 0.66 6.6 1 10 C1.66 10 2.32 10 3 10 C3 12.64 3 15.28 3 18 C2.34 18 1.68 18 1 18 C-2.4753869 12.02667877 -3.57374185 7.88490225 -3 1 C-1 0 -1 0 0 0 Z " fill="#5B4E9E" transform="translate(60,166)"/>
<path d="M0 0 C1.12438477 0.14985352 1.12438477 0.14985352 2.27148438 0.30273438 C4.11931482 0.54989641 5.9660266 0.80539611 7.8125 1.0625 C7.4825 2.0525 7.1525 3.0425 6.8125 4.0625 C4.75117858 4.17114945 2.68818679 4.24838321 0.625 4.3125 C-1.09783203 4.38210938 -1.09783203 4.38210938 -2.85546875 4.453125 C-6.79103399 3.99174572 -8.36495787 2.76278512 -11.1875 0.0625 C-7.28297658 -1.23900781 -3.98289691 -0.56004053 0 0 Z " fill="#6A51A8" transform="translate(136.1875,9.9375)"/>
<path d="M0 0 C-0.33 0.66 -0.66 1.32 -1 2 C-1.66 2 -2.32 2 -3 2 C-3 2.66 -3 3.32 -3 4 C-5.78823655 5.0326802 -6.8677274 5.04509293 -9.75 4.0625 C-10.4925 3.711875 -11.235 3.36125 -12 3 C-12 2.01 -12 1.02 -12 0 C-7.44729118 -2.48329572 -4.775353 -1.68541871 0 0 Z " fill="#645696" transform="translate(115,220)"/>
<path d="M0 0 C1.32 0.66 2.64 1.32 4 2 C3.34 4.31 2.68 6.62 2 9 C1.01 8.67 0.02 8.34 -1 8 C-1.33 8.99 -1.66 9.98 -2 11 C-2.33 11 -2.66 11 -3 11 C-3.75 7.75 -3.75 7.75 -4 4 C-2.0625 1.5625 -2.0625 1.5625 0 0 Z " fill="#635A97" transform="translate(61,112)"/>
<path d="M0 0 C2.53078176 3.13334885 4.51376532 6.24530187 6 10 C5.1875 12.375 5.1875 12.375 4 14 C3.01 14 2.02 14 1 14 C0.63495397 12.41913952 0.28339494 10.83516093 -0.0625 9.25 C-0.25972656 8.36828125 -0.45695312 7.4865625 -0.66015625 6.578125 C-0.99825872 4.01320972 -0.81158635 2.42908361 0 0 Z " fill="#856095" transform="translate(265,202)"/>
<path d="M0 0 C2.79953781 1.01094421 3.72913186 1.53952416 5.25 4.125 C5.4975 4.74375 5.745 5.3625 6 6 C4.4375 6.75 4.4375 6.75 2 7 C0.24609375 6.140625 0.24609375 6.140625 -1.625 5 C-3.295625 4.01 -3.295625 4.01 -5 3 C-5.99 3.495 -5.99 3.495 -7 4 C-7 3.34 -7 2.68 -7 2 C-7.66 2 -8.32 2 -9 2 C-6.92500353 -2.14999294 -3.97409497 -0.87430089 0 0 Z " fill="#5C4F96" transform="translate(75,193)"/>
<path d="M0 0 C6.70518586 -0.19818283 12.65176798 -0.30844801 19 2 C19 2.33 19 2.66 19 3 C12.73 3 6.46 3 0 3 C0 2.01 0 1.02 0 0 Z " fill="#E3D2EF" transform="translate(160,75)"/>
<path d="M0 0 C6.91663627 1.09890483 13.42736799 2.56569185 20 5 C20 5.66 20 6.32 20 7 C17.36 7 14.72 7 12 7 C11.67 6.34 11.34 5.68 11 5 C9.21593527 4.31210423 9.21593527 4.31210423 7.125 3.875 C6.42632812 3.70742187 5.72765625 3.53984375 5.0078125 3.3671875 C2.84834248 2.91005209 2.84834248 2.91005209 0 3 C0 2.01 0 1.02 0 0 Z " fill="#715F8E" transform="translate(173,103)"/>
<path d="M0 0 C1.65 0.33 3.3 0.66 5 1 C5 1.99 5 2.98 5 4 C6.81222534 6.0624994 6.81222534 6.0624994 9 8 C10 9 11 10 12 11 C11.67 11.99 11.34 12.98 11 14 C10.278125 13.236875 9.55625 12.47375 8.8125 11.6875 C6.16073022 8.955914 6.16073022 8.955914 3.1875 7.3125 C2.465625 6.879375 1.74375 6.44625 1 6 C1 5.34 1 4.68 1 4 C0.34 3.67 -0.32 3.34 -1 3 C-0.67 2.01 -0.34 1.02 0 0 Z " fill="#F2EBF7" transform="translate(151,8)"/>
<path d="M0 0 C0.99 0.99 1.98 1.98 3 3 C2.34 3 1.68 3 1 3 C0.773125 3.598125 0.54625 4.19625 0.3125 4.8125 C-1.39310766 7.65517943 -3.00968056 8.60915375 -6 10 C-8.8125 10.1875 -8.8125 10.1875 -11 10 C-9.37660195 8.29115995 -7.70680947 6.62553283 -6 5 C-5.34 5 -4.68 5 -4 5 C-4 4.34 -4 3.68 -4 3 C-2 1.375 -2 1.375 0 0 Z " fill="#826297" transform="translate(236,213)"/>
<path d="M0 0 C1.98 0 3.96 0 6 0 C6.33 0.99 6.66 1.98 7 3 C4.88306276 5.43055758 3.46478674 6.84507109 0.375 7.875 C-0.40875 7.91625 -1.1925 7.9575 -2 8 C-2.66 7.34 -3.32 6.68 -4 6 C-3.525625 5.38125 -3.05125 4.7625 -2.5625 4.125 C-0.97582559 2.09294454 -0.97582559 2.09294454 0 0 Z " fill="#FAFAF8" transform="translate(227,211)"/>
<path d="M0 0 C2.625 -0.1875 2.625 -0.1875 5 0 C5.125 2.375 5.125 2.375 5 5 C4.34 5.66 3.68 6.32 3 7 C3.66 8.65 4.32 10.3 5 12 C4.01 12.495 4.01 12.495 3 13 C1.35 9.7 -0.3 6.4 -2 3 C-1.34 2.01 -0.68 1.02 0 0 Z " fill="#F2F1F7" transform="translate(171,32)"/>
<path d="M0 0 C0.66 0 1.32 0 2 0 C3.28406399 1.95224208 4.47941678 3.96340762 5.625 6 C6.25664062 7.11375 6.88828125 8.2275 7.5390625 9.375 C8.26222656 10.674375 8.26222656 10.674375 9 12 C8.34 12.66 7.68 13.32 7 14 C7 13.34 7 12.68 7 12 C5.68 11.67 4.36 11.34 3 11 C3 10.01 3 9.02 3 8 C2.01 7.67 1.02 7.34 0 7 C0 4.66666667 0 2.33333333 0 0 Z " fill="#785E92" transform="translate(184,64)"/>
<path d="M0 0 C0.66 0.33 1.32 0.66 2 1 C0.61910462 5.14268615 -2.2623051 6.3752945 -5.8125 8.5625 C-6.44220703 8.96146484 -7.07191406 9.36042969 -7.72070312 9.77148438 C-10.74376441 11.67160369 -13.76152113 13.49088516 -17 15 C-13.18778397 9.741771 -8.62907487 6.35730522 -3.328125 2.63671875 C-1.14256895 1.19983286 -1.14256895 1.19983286 0 0 Z " fill="#DDD6F3" transform="translate(82,100)"/>
<path d="M0 0 C1.98 0 3.96 0 6 0 C6 0.99 6 1.98 6 3 C-0.27692308 7.06153846 -0.27692308 7.06153846 -3.9375 6.75 C-4.618125 6.5025 -5.29875 6.255 -6 6 C-5.67 5.34 -5.34 4.68 -5 4 C-4.34 3.855625 -3.68 3.71125 -3 3.5625 C-2.01 3.2840625 -2.01 3.2840625 -1 3 C-0.67 2.01 -0.34 1.02 0 0 Z " fill="#655992" transform="translate(91,99)"/>
<path d="M0 0 C1.98 0 3.96 0 6 0 C5.21625 0.598125 4.4325 1.19625 3.625 1.8125 C0.85425677 3.91085249 0.85425677 3.91085249 -1 7 C-1.66 7 -2.32 7 -3 7 C-3.66 8.65 -4.32 10.3 -5 12 C-5.33 11.34 -5.66 10.68 -6 10 C-6.66 10 -7.32 10 -8 10 C-6.74458443 7.48916886 -5.49936512 7.12874554 -3 6 C-3 5.01 -3 4.02 -3 3 C-2.34 3 -1.68 3 -1 3 C-0.67 2.01 -0.34 1.02 0 0 Z " fill="#EFECF5" transform="translate(116,12)"/>
<path d="M0 0 C1.65 0 3.3 0 5 0 C6 3 6 3 5.00390625 5.26171875 C4.52824219 6.06222656 4.05257813 6.86273438 3.5625 7.6875 C2.85287109 8.89986328 2.85287109 8.89986328 2.12890625 10.13671875 C1.75636719 10.75160156 1.38382813 11.36648437 1 12 C-1 10 -1 10 -1.125 7.375 C-1.08375 6.59125 -1.0425 5.8075 -1 5 C-0.34 5 0.32 5 1 5 C0.67 3.35 0.34 1.7 0 0 Z " fill="#EFEEF7" transform="translate(10,186)"/>
<path d="M0 0 C0.66 0.66 1.32 1.32 2 2 C-1.21182149 3.90608098 -3.53882603 4.22266247 -7.25 4.125 C-8.14203125 4.10695313 -9.0340625 4.08890625 -9.953125 4.0703125 C-10.96632813 4.03550781 -10.96632813 4.03550781 -12 4 C-12 3.34 -12 2.68 -12 2 C-7.84782943 0.41822074 -4.45263035 -0.40478458 0 0 Z " fill="#65568D" transform="translate(126,105)"/>
<path d="M0 0 C1.32 0 2.64 0 4 0 C2.63629701 2.99220268 1.05091917 5.29026529 -1.125 7.75 C-1.93324219 8.67039063 -1.93324219 8.67039063 -2.7578125 9.609375 C-3.16773438 10.06828125 -3.57765625 10.5271875 -4 11 C-4.6171875 9.19921875 -4.6171875 9.19921875 -5 7 C-3.50594347 4.4601039 -2.09462345 2.09462345 0 0 Z " fill="#645F7E" transform="translate(47,135)"/>
<path d="M0 0 C-0.33 0.66 -0.66 1.32 -1 2 C-2.98 2 -4.96 2 -7 2 C-7 2.99 -7 3.98 -7 5 C-7.99 5 -8.98 5 -10 5 C-10 5.66 -10 6.32 -10 7 C-10.99 6.67 -11.98 6.34 -13 6 C-11.93363297 2.90753562 -10.99355341 1.99584553 -8.1875 0.1875 C-4.81023996 -1.07069492 -3.36888105 -1.0899321 0 0 Z " fill="#F7F4FD" transform="translate(112,87)"/>
<path d="M0 0 C2.9375 0.8125 2.9375 0.8125 6 2 C7.32911682 2.34976758 8.66082739 2.69096017 10 3 C10.33 2.01 10.66 1.02 11 0 C11 1.32 11 2.64 11 4 C10.01 4 9.02 4 8 4 C7.67 4.99 7.34 5.98 7 7 C3.7 5.35 0.4 3.7 -3 2 C-2.01 1.34 -1.02 0.68 0 0 Z " fill="#695D98" transform="translate(84,211)"/>
<path d="M0 0 C0 0.66 0 1.32 0 2 C-2.63892176 3.78305524 -4.97178863 4.99059621 -8 6 C-8 6.66 -8 7.32 -8 8 C-9.98 8.99 -11.96 9.98 -14 11 C-14 9.68 -14 8.36 -14 7 C-11.4453125 5.078125 -11.4453125 5.078125 -8.125 3.25 C-7.03445312 2.63640625 -5.94390625 2.0228125 -4.8203125 1.390625 C-2 0 -2 0 0 0 Z " fill="#745E8C" transform="translate(231,142)"/>
<path d="M0 0 C0.99 0.33 1.98 0.66 3 1 C3 1.99 3 2.98 3 4 C1.02 4.66 -0.96 5.32 -3 6 C-3 6.66 -3 7.32 -3 8 C-4.32 7.67 -5.64 7.34 -7 7 C-5.65117186 2.95351557 -3.65173931 2.04497401 0 0 Z " fill="#65588F" transform="translate(92,116)"/>
<path d="M0 0 C-7.59 0 -15.18 0 -23 0 C-23 -0.33 -23 -0.66 -23 -1 C-20.41765641 -1.36332974 -17.83460218 -1.71594867 -15.25 -2.0625 C-14.52039063 -2.16626953 -13.79078125 -2.27003906 -13.0390625 -2.37695312 C-7.4949486 -3.10776814 -4.64892942 -3.09928628 0 0 Z " fill="#8A8292" transform="translate(167,252)"/>
<path d="M0 0 C0.33 0 0.66 0 1 0 C1.33 2.97 1.66 5.94 2 9 C2.66 9 3.32 9 4 9 C4 10.98 4 12.96 4 15 C1.57719871 13.20243775 0.1844217 11.77484641 -0.5234375 8.80078125 C-1.26958713 2.53917425 -1.26958713 2.53917425 0 0 Z " fill="#525187" transform="translate(3,224)"/>
<path d="M0 0 C4.95 0.99 4.95 0.99 10 2 C9.01 2.495 9.01 2.495 8 3 C7.67 3.99 7.34 4.98 7 6 C5.35 6.33 3.7 6.66 2 7 C1.34 4.69 0.68 2.38 0 0 Z " fill="#75649A" transform="translate(118,221)"/>
<path d="M0 0 C-2.08129104 0.98350025 -4.16511359 1.96164458 -6.25 2.9375 C-7.41015625 3.48277344 -8.5703125 4.02804688 -9.765625 4.58984375 C-12.23044777 5.66448266 -14.38065227 6.48780081 -17 7 C-17.33 6.01 -17.66 5.02 -18 4 C-15.37764986 3.13683464 -12.75266548 2.28419221 -10.125 1.4375 C-9.37863281 1.19064453 -8.63226563 0.94378906 -7.86328125 0.68945312 C-2.2265625 -1.11328125 -2.2265625 -1.11328125 0 0 Z " fill="#DFC6EB" transform="translate(212,214)"/>
<path d="M0 0 C0.66 0.33 1.32 0.66 2 1 C0.02 4.63 -1.96 8.26 -4 12 C-4.99 11.01 -5.98 10.02 -7 9 C-4.99106558 4.98213116 -3.72071336 2.64050626 0 0 Z " fill="#EFEDF6" transform="translate(39,144)"/>
<path d="M0 0 C0.99 0.33 1.98 0.66 3 1 C3 2.65 3 4.3 3 6 C0.6875 6.6875 0.6875 6.6875 -2 7 C-3.8125 5.5625 -3.8125 5.5625 -5 4 C-3.36587557 2.29159719 -2.13093906 1.06546953 0 0 Z " fill="#625291" transform="translate(100,112)"/>
<path d="M0 0 C0.66 0.99 1.32 1.98 2 3 C-3.17578125 6.22265625 -3.17578125 6.22265625 -5 7 C-5.99 6.67 -6.98 6.34 -8 6 C-8 4.35 -8 2.7 -8 1 C-5.36 1.33 -2.72 1.66 0 2 C0 1.34 0 0.68 0 0 Z " fill="#635793" transform="translate(104,84)"/>
<path d="M0 0 C0.33 0.66 0.66 1.32 1 2 C0.67 2.66 0.34 3.32 0 4 C-0.66 4 -1.32 4 -2 4 C-2.0825 5.0725 -2.165 6.145 -2.25 7.25 C-3.05476902 11.2738451 -3.87729874 12.48169253 -7 15 C-8 12 -8 12 -7.00390625 9.73828125 C-6.52824219 8.93777344 -6.05257812 8.13726562 -5.5625 7.3125 C-5.08941406 6.50425781 -4.61632812 5.69601563 -4.12890625 4.86328125 C-3.75636719 4.24839844 -3.38382812 3.63351563 -3 3 C-2.34 3 -1.68 3 -1 3 C-0.67 2.01 -0.34 1.02 0 0 Z " fill="#726492" transform="translate(116,16)"/>
<path d="M0 0 C0.99 0.33 1.98 0.66 3 1 C3.33 1.99 3.66 2.98 4 4 C3.01 5.485 3.01 5.485 2 7 C0.68 7 -0.64 7 -2 7 C-4.22743787 8.41977909 -4.22743787 8.41977909 -6 10 C-4.6302836 6.00499382 -2.74277578 3.19990508 0 0 Z " fill="#EDECF1" transform="translate(44,144)"/>
<path d="M0 0 C1.32 0.66 2.64 1.32 4 2 C3.443125 2.04125 2.88625 2.0825 2.3125 2.125 C-0.27440652 3.10382949 -0.94022154 3.93777939 -2.625 6.0625 C-3.40875 7.031875 -4.1925 8.00125 -5 9 C-5.66 9 -6.32 9 -7 9 C-7 9.66 -7 10.32 -7 11 C-8.32 10.67 -9.64 10.34 -11 10 C-10.0409375 9.5978125 -10.0409375 9.5978125 -9.0625 9.1875 C-6.66868314 8.11332248 -6.66868314 8.11332248 -6 5 C-4.12382302 3.15500602 -2.07262391 1.6316401 0 0 Z " fill="#716897" transform="translate(83,122)"/>
<path d="M0 0 C0.66 0 1.32 0 2 0 C0.43358249 4.30764815 -1.68336156 8.06171464 -4 12 C-4.66 11.34 -5.32 10.68 -6 10 C-5.34 7.69 -4.68 5.38 -4 3 C-2.68 2.67 -1.36 2.34 0 2 C0 1.34 0 0.68 0 0 Z " fill="#F2F0F8" transform="translate(86,62)"/>
<path d="M0 0 C2.0622048 -0.054348 4.12482816 -0.09294961 6.1875 -0.125 C7.33605469 -0.14820313 8.48460937 -0.17140625 9.66796875 -0.1953125 C12.91740372 -0.00484152 15.08660521 0.60639873 18 2 C18 2.66 18 3.32 18 4 C17.31550781 3.85691406 16.63101563 3.71382812 15.92578125 3.56640625 C12.68946264 2.93988262 9.44664081 2.43130921 6.1875 1.9375 C5.02605469 1.76089844 3.86460937 1.58429687 2.66796875 1.40234375 C1.78753906 1.26957031 0.90710938 1.13679687 0 1 C0 0.67 0 0.34 0 0 Z " fill="#6A588D" transform="translate(131,9)"/>
<path d="M0 0 C1.87151982 3.74303963 1.00751314 8.30860325 0.9375 12.421875 C0.99532191 15.73217938 1.36336846 18.75715807 2 22 C1.34 22.33 0.68 22.66 0 23 C-1.19219354 20.61561291 -1.12916022 19.12343998 -1.1328125 16.46484375 C-1.13410156 15.57345703 -1.13539062 14.68207031 -1.13671875 13.76367188 C-1.13285156 12.83103516 -1.12898437 11.89839844 -1.125 10.9375 C-1.12886719 10.00099609 -1.13273438 9.06449219 -1.13671875 8.09960938 C-1.13542969 7.20951172 -1.13414063 6.31941406 -1.1328125 5.40234375 C-1.13168457 4.58241943 -1.13055664 3.76249512 -1.12939453 2.91772461 C-1 1 -1 1 0 0 Z " fill="#E2E2F6" transform="translate(1,214)"/>
<path d="M0 0 C3.14735717 0.27654417 6.29241854 0.5737556 9.4375 0.875 C10.33533203 0.95363281 11.23316406 1.03226563 12.15820312 1.11328125 C13.01220703 1.19707031 13.86621094 1.28085938 14.74609375 1.3671875 C15.53685303 1.44050293 16.3276123 1.51381836 17.14233398 1.58935547 C17.75536377 1.72486816 18.36839355 1.86038086 19 2 C19.33 2.66 19.66 3.32 20 4 C18.54176788 4.0270043 17.08339325 4.04639787 15.625 4.0625 C14.81289062 4.07410156 14.00078125 4.08570313 13.1640625 4.09765625 C11 4 11 4 9 3 C7.46331135 2.77532169 5.92031946 2.59203195 4.375 2.4375 C3.55773437 2.35371094 2.74046875 2.26992187 1.8984375 2.18359375 C1.27195312 2.12300781 0.64546875 2.06242188 0 2 C0 1.34 0 0.68 0 0 Z " fill="#EAE3F6" transform="translate(121,228)"/>
<path d="M0 0 C3.65938172 1.43164111 7.23988068 2.98934296 10.8125 4.625 C12.27623047 5.29402344 12.27623047 5.29402344 13.76953125 5.9765625 C14.50558594 6.31429687 15.24164063 6.65203125 16 7 C15.01 8.485 15.01 8.485 14 10 C12.0368763 8.90437286 10.07963837 7.79819451 8.125 6.6875 C6.48917969 5.76517578 6.48917969 5.76517578 4.8203125 4.82421875 C2 3 2 3 0 0 Z " fill="#DFD6F2" transform="translate(75,199)"/>
<path d="M0 0 C3.25524265 3.02272532 5.61820737 6.25718301 8 10 C7.01 11.485 7.01 11.485 6 13 C5.01 12.67 4.02 12.34 3 12 C2.67 11.34 2.34 10.68 2 10 C2.33 9.01 2.66 8.02 3 7 C2.04906703 5.30485863 1.04892238 3.63631892 0 2 C0 1.34 0 0.68 0 0 Z " fill="#EEEEF4" transform="translate(62,194)"/>
<path d="M0 0 C0.66 0 1.32 0 2 0 C2.74926071 3.66305234 3.2380014 6.42355152 2 10 C-1 9 -1 9 -2.1875 6.9375 C-2.455625 6.298125 -2.72375 5.65875 -3 5 C-2.34 5 -1.68 5 -1 5 C-0.67 3.35 -0.34 1.7 0 0 Z " fill="#F5F2F2" transform="translate(253,171)"/>
<path d="M0 0 C0.66 0 1.32 0 2 0 C2 0.66 2 1.32 2 2 C2.66 2.33 3.32 2.66 4 3 C2.68 5.31 1.36 7.62 0 10 C-0.99 9.34 -1.98 8.68 -3 8 C-2.09456151 5.28368454 -1.07525194 2.65228812 0 0 Z " fill="#F3F1F9" transform="translate(59,104)"/>
<path d="M0 0 C1.36676632 0.13929356 2.7374567 0.24365301 4.109375 0.31640625 C5.24052734 0.37924805 5.24052734 0.37924805 6.39453125 0.44335938 C7.56048828 0.50233398 7.56048828 0.50233398 8.75 0.5625 C9.93916016 0.62727539 9.93916016 0.62727539 11.15234375 0.69335938 C13.10137815 0.79902991 15.05066748 0.89997966 17 1 C17 1.33 17 1.66 17 2 C9.41 2 1.82 2 -6 2 C-6.33 1.34 -6.66 0.68 -7 0 C-3.75505706 -1.08164765 -3.12145153 -0.87832254 0 0 Z " fill="#ECE3F4" transform="translate(143,100)"/>
<path d="M0 0 C0.66 0 1.32 0 2 0 C2 0.66 2 1.32 2 2 C1.34 2.66 0.68 3.32 0 4 C-0.16687448 6.58354218 -0.16687448 6.58354218 0 9 C-0.99 9.33 -1.98 9.66 -3 10 C-3.99 8.35 -4.98 6.7 -6 5 C-5.195625 4.360625 -4.39125 3.72125 -3.5625 3.0625 C-1.7249496 1.59396498 -1.7249496 1.59396498 0 0 Z " fill="#705D97" transform="translate(123,11)"/>
<path d="M0 0 C-0.99 1.485 -0.99 1.485 -2 3 C-1.34 3.66 -0.68 4.32 0 5 C-2.64 5 -5.28 5 -8 5 C-7.67 3.35 -7.34 1.7 -7 0 C-3.86650268 -1.04449911 -3.01031744 -0.93423645 0 0 Z " fill="#755897" transform="translate(184,245)"/>
<path d="M0 0 C0.66 0 1.32 0 2 0 C1.01 3.96 0.02 7.92 -1 12 C-1.33 11.01 -1.66 10.02 -2 9 C-2.66 9 -3.32 9 -4 9 C-3.4739075 5.21213403 -2.61896089 2.82847776 0 0 Z " fill="#5A5980" transform="translate(30,164)"/>
<path d="M0 0 C0.99 0 1.98 0 3 0 C4.421875 1.609375 4.421875 1.609375 5.75 3.75 C6.19859375 4.44609375 6.6471875 5.1421875 7.109375 5.859375 C8.16007332 8.38473764 7.93134261 9.47856025 7 12 C5 9 5 9 5 7 C4.34 7 3.68 7 3 7 C2.67 6.01 2.34 5.02 2 4 C1.34 3.67 0.68 3.34 0 3 C0 2.01 0 1.02 0 0 Z " fill="#7D6493" transform="translate(209,120)"/>
<path d="M0 0 C4 7.71428571 4 7.71428571 4 12 C3.01 11.34 2.02 10.68 1 10 C0.34 9.67 -0.32 9.34 -1 9 C-0.67 8.34 -0.34 7.68 0 7 C-0.99 6.67 -1.98 6.34 -3 6 C-2.01 4.02 -1.02 2.04 0 0 Z " fill="#695EA3" transform="translate(68,97)"/>
<path d="M0 0 C0 0.66 0 1.32 0 2 C-4.95 4.475 -4.95 4.475 -10 7 C-10.33 6.34 -10.66 5.68 -11 5 C-7.17906575 1.05170128 -5.52310605 -0.1453449 0 0 Z " fill="#F2EEFB" transform="translate(94,96)"/>
<path d="M0 0 C4 4.625 4 4.625 4 8 C3.01 9.485 3.01 9.485 2 11 C1.34 9.68 0.68 8.36 0 7 C-0.99 7.495 -0.99 7.495 -2 8 C-2.125 5.125 -2.125 5.125 -2 2 C-1.34 1.34 -0.68 0.68 0 0 Z " fill="#785F9E" transform="translate(162,24)"/>
<path d="M0 0 C0 0.66 0 1.32 0 2 C-1.3921875 2.680625 -1.3921875 2.680625 -2.8125 3.375 C-6.03921389 4.9421633 -6.03921389 4.9421633 -9 7 C-11.6875 6.625 -11.6875 6.625 -14 6 C-10.292996 2.7563715 -5.02493834 0 0 0 Z " fill="#776091" transform="translate(198,238)"/>
<path d="M0 0 C1.875 0.3125 1.875 0.3125 4 1 C4.66 1.99 5.32 2.98 6 4 C6.33 3.34 6.66 2.68 7 2 C7.66 2.33 8.32 2.66 9 3 C9.625 5.0625 9.625 5.0625 10 7 C9.01 7.495 9.01 7.495 8 8 C6.0546875 7.109375 6.0546875 7.109375 3.875 5.75 C3.15054688 5.31171875 2.42609375 4.8734375 1.6796875 4.421875 C1.12539063 3.95265625 0.57109375 3.4834375 0 3 C0 2.01 0 1.02 0 0 Z " fill="#EEECF4" transform="translate(52,230)"/>
<path d="M0 0 C1.32 0 2.64 0 4 0 C3.65978036 3.17538332 2.97533396 4.02276865 0.5625 6.25 C-2 8 -2 8 -4 8 C-2.87548273 5.0280615 -1.77706209 2.66559313 0 0 Z " fill="#7C598D" transform="translate(248,188)"/>
<path d="M0 0 C0.99 0.33 1.98 0.66 3 1 C2.34 1 1.68 1 1 1 C1.33 2.32 1.66 3.64 2 5 C1.01 5 0.02 5 -1 5 C-1 5.66 -1 6.32 -1 7 C-2.875 7.625 -2.875 7.625 -5 8 C-5.66 7.34 -6.32 6.68 -7 6 C-6.34 6 -5.68 6 -5 6 C-5 5.34 -5 4.68 -5 4 C-2.6875 1.8125 -2.6875 1.8125 0 0 Z " fill="#7A579F" transform="translate(228,144)"/>
<path d="M0 0 C0.66 0.99 1.32 1.98 2 3 C1 6 1 6 -0.5625 7.25 C-4.23948695 8.3813806 -7.2220669 7.62965552 -11 7 C-10.67 6.34 -10.34 5.68 -10 5 C-6.7 5 -3.4 5 0 5 C-0.33 3.68 -0.66 2.36 -1 1 C-0.67 0.67 -0.34 0.34 0 0 Z " fill="#EDE3F2" transform="translate(195,77)"/>
<path d="M0 0 C1 3 1 3 1 6 C1.66 5.01 2.32 4.02 3 3 C3.6875 5.25 3.6875 5.25 4 8 C2.5625 10.3125 2.5625 10.3125 1 12 C-0.625 9.9375 -0.625 9.9375 -2 7 C-1.1875 3.1875 -1.1875 3.1875 0 0 Z " fill="#F3EEF4" transform="translate(188,59)"/>
<path d="M0 0 C0.99 0 1.98 0 3 0 C3 0.66 3 1.32 3 2 C4.32 2 5.64 2 7 2 C7 2.66 7 3.32 7 4 C7.66 4 8.32 4 9 4 C8.67 4.99 8.34 5.98 8 7 C5.6875 6.875 5.6875 6.875 3 6 C1.1875 2.9375 1.1875 2.9375 0 0 Z " fill="#F1EFF4" transform="translate(175,46)"/>
<path d="M0 0 C1.21236328 0.01353516 1.21236328 0.01353516 2.44921875 0.02734375 C3.37154297 0.04474609 3.37154297 0.04474609 4.3125 0.0625 C3.9825 1.0525 3.6525 2.0425 3.3125 3.0625 C-3.0875 4.41634615 -3.0875 4.41634615 -6.125 2.625 C-6.640625 2.109375 -7.15625 1.59375 -7.6875 1.0625 C-4.80538698 0.10179566 -2.98899956 -0.04331883 0 0 Z " fill="#744EA1" transform="translate(187.6875,245.9375)"/>
<path d="M0 0 C0.98484375 0.00902344 1.9696875 0.01804688 2.984375 0.02734375 C4.10585937 0.04474609 4.10585937 0.04474609 5.25 0.0625 C4.610625 0.371875 3.97125 0.68125 3.3125 1 C1.31389179 1.8970163 1.31389179 1.8970163 0.25 3.0625 C-6.21153846 3.42147436 -6.21153846 3.42147436 -9.75 1.0625 C-6.43929162 0.06140485 -3.44915231 -0.04106134 0 0 Z " fill="#645689" transform="translate(146.75,226.9375)"/>
<path d="M0 0 C0.33 2.97 0.66 5.94 1 9 C-0.32 9.33 -1.64 9.66 -3 10 C-3.6875 6.6875 -3.6875 6.6875 -4 3 C-1.87096774 0 -1.87096774 0 0 0 Z " fill="#57528D" transform="translate(28,190)"/>
<path d="M0 0 C2.63978826 3.18595135 5.10498388 6.30970546 7 10 C6.67 10.66 6.34 11.32 6 12 C5.01 12 4.02 12 3 12 C1.64560332 9.29120665 1.93498549 6.99066732 2 4 C1.34 4 0.68 4 0 4 C0 2.68 0 1.36 0 0 Z " fill="#8A739D" transform="translate(231,143)"/>
<path d="M0 0 C0.33 0.66 0.66 1.32 1 2 C1.5775 1.79375 2.155 1.5875 2.75 1.375 C5.51967567 0.91338739 6.64561267 1.57055055 9 3 C7 5 7 5 4.5 5.0625 C3.2625 5.0315625 3.2625 5.0315625 2 5 C1.01 5.495 1.01 5.495 0 6 C0 5.01 0 4.02 0 3 C-0.99 2.34 -1.98 1.68 -3 1 C-2.01 0.67 -1.02 0.34 0 0 Z " fill="#7655A7" transform="translate(184,108)"/>
<path d="M0 0 C1.09570312 0.10183594 2.19140625 0.20367187 3.3203125 0.30859375 C4.16335937 0.39238281 5.00640625 0.47617188 5.875 0.5625 C2.87761059 2.56075961 2.24152492 2.83800398 -1.125 2.8125 C-1.805625 2.81765625 -2.48625 2.8228125 -3.1875 2.828125 C-5.125 2.5625 -5.125 2.5625 -8.125 0.5625 C-5.28943413 -0.85528293 -3.1341294 -0.30007622 0 0 Z " fill="#665888" transform="translate(130.125,85.4375)"/>
<path d="M0 0 C-0.33 1.65 -0.66 3.3 -1 5 C-1.66 5 -2.32 5 -3 5 C-3 5.66 -3 6.32 -3 7 C-4.32 6.34 -5.64 5.68 -7 5 C-6.34 4.67 -5.68 4.34 -5 4 C-4.67 3.01 -4.34 2.02 -4 1 C-2 0 -2 0 0 0 Z " fill="#5F518C" transform="translate(96,200)"/>
<path d="M0 0 C0.99 1.32 1.98 2.64 3 4 C1.02 5.32 -0.96 6.64 -3 8 C-3 5.66666667 -3 3.33333333 -3 1 C-2.01 0.67 -1.02 0.34 0 0 Z " fill="#FBF9FC" transform="translate(245,198)"/>
<path d="M0 0 C2.9375 1.1875 2.9375 1.1875 6 3 C6.875 5.6875 6.875 5.6875 7 8 C6.34 8 5.68 8 5 8 C4.67 7.34 4.34 6.68 4 6 C3.01 6 2.02 6 1 6 C-0.0625 4.125 -0.0625 4.125 -1 2 C-0.67 1.34 -0.34 0.68 0 0 Z " fill="#6E62A7" transform="translate(69,195)"/>
<path d="M0 0 C1.98 1.65 3.96 3.3 6 5 C5.34 6.65 4.68 8.3 4 10 C1.67527795 7.14693203 0.2491742 4.45925163 -1 1 C-0.67 0.67 -0.34 0.34 0 0 Z " fill="#F5E8F7" transform="translate(258,186)"/>
<path d="M0 0 C0.66 0 1.32 0 2 0 C2 1.65 2 3.3 2 5 C1.34 5 0.68 5 0 5 C-0.33 6.65 -0.66 8.3 -1 10 C-0.34 10 0.32 10 1 10 C0.67 10.99 0.34 11.98 0 13 C-0.99 13 -1.98 13 -3 13 C-2.88490339 11.58249437 -2.75746342 10.16598831 -2.625 8.75 C-2.55539063 7.96109375 -2.48578125 7.1721875 -2.4140625 6.359375 C-1.98492887 3.914123 -1.21399362 2.15163097 0 0 Z " fill="#574E87" transform="translate(56,118)"/>
<path d="M0 0 C0.33 0.99 0.66 1.98 1 3 C-0.98 3.66 -2.96 4.32 -5 5 C-3.68 5.33 -2.36 5.66 -1 6 C-1.99 6.66 -2.98 7.32 -4 8 C-4 7.34 -4 6.68 -4 6 C-4.66 6 -5.32 6 -6 6 C-6.33 5.01 -6.66 4.02 -7 3 C-2.25 0 -2.25 0 0 0 Z " fill="#71669D" transform="translate(90,100)"/>
<path d="M0 0 C0.66 0.33 1.32 0.66 2 1 C0.78065514 5.03321763 -0.55954927 8.54269479 -3 12 C-3.66 12 -4.32 12 -5 12 C-4.625 9.0625 -4.625 9.0625 -4 6 C-3.34 5.67 -2.68 5.34 -2 5 C-1.27840576 3.35636866 -0.60648579 1.68949614 0 0 Z " fill="#EDEAF5" transform="translate(78,75)"/>
<path d="M0 0 C0.33 0.99 0.66 1.98 1 3 C1.99 3.33 2.98 3.66 4 4 C2.68 6.31 1.36 8.62 0 11 C-0.66 11 -1.32 11 -2 11 C-1.85957123 9.35369672 -1.71250671 7.70795821 -1.5625 6.0625 C-1.48128906 5.14597656 -1.40007812 4.22945312 -1.31640625 3.28515625 C-1 1 -1 1 0 0 Z " fill="#EFEBF2" transform="translate(98,36)"/>
<path d="M0 0 C3.7910119 1.44950455 7.3874638 3.15172566 11 5 C10.01 5.66 9.02 6.32 8 7 C7.443125 6.525625 6.88625 6.05125 6.3125 5.5625 C3.81653926 3.87604004 1.9553763 3.41046893 -1 3 C-0.67 2.01 -0.34 1.02 0 0 Z " fill="#615890" transform="translate(53,234)"/>
<path d="M0 0 C1.37562854 1.28965176 2.70766393 2.62689293 4 4 C4 4.66 4 5.32 4 6 C4.99 6.33 5.98 6.66 7 7 C6.67 7.99 6.34 8.98 6 10 C5.34 10 4.68 10 4 10 C4 9.34 4 8.68 4 8 C3.01 7.67 2.02 7.34 1 7 C0.67 4.69 0.34 2.38 0 0 Z " fill="#70699D" transform="translate(37,218)"/>
<path d="M0 0 C3 3 3 3 3.3125 6.9375 C3.2920497 10.47540106 2.71772441 11.56455117 1 15 C0.67 10.05 0.34 5.1 0 0 Z " fill="#E3D9E5" transform="translate(271,211)"/>
<path d="M0 0 C0 0.99 0 1.98 0 3 C-3.50776784 4.60355101 -6.14354879 5.22036864 -10 5 C-10 4.34 -10 3.68 -10 3 C-8.70990357 2.49596232 -7.41786211 1.99690074 -6.125 1.5 C-5.04605469 1.08234375 -5.04605469 1.08234375 -3.9453125 0.65625 C-2 0 -2 0 0 0 Z " fill="#706597" transform="translate(114,107)"/>
<path d="M0 0 C2.0625 0.4375 2.0625 0.4375 4 1 C3.34 2.65 2.68 4.3 2 6 C0.68 6 -0.64 6 -2 6 C-1.125 1.125 -1.125 1.125 0 0 Z " fill="#5B5289" transform="translate(75,108)"/>
<path d="M0 0 C0.66 0.33 1.32 0.66 2 1 C3.26229508 5.47540984 3.26229508 5.47540984 2 8 C1.01 8 0.02 8 -1 8 C-1 7.34 -1 6.68 -1 6 C-1.66 6 -2.32 6 -3 6 C-3 5.34 -3 4.68 -3 4 C-2.34 4 -1.68 4 -1 4 C-0.67 2.68 -0.34 1.36 0 0 Z " fill="#624F8B" transform="translate(117,16)"/>
<path d="M0 0 C0.78375 0.33 1.5675 0.66 2.375 1 C4.84332497 2.11866511 4.84332497 2.11866511 7 2 C7 2.99 7 3.98 7 5 C4.69 5.33 2.38 5.66 0 6 C-1.125 2.25 -1.125 2.25 0 0 Z " fill="#5C4D90" transform="translate(87,209)"/>
<path d="M0 0 C0.66 0.33 1.32 0.66 2 1 C1.74476126 2.62752231 1.47025506 4.25203196 1.1875 5.875 C1.03667969 6.77992188 0.88585938 7.68484375 0.73046875 8.6171875 C0 11 0 11 -3 13 C-2.343621 8.51474352 -1.29925791 4.33085971 0 0 Z " fill="#6C6494" transform="translate(59,153)"/>
<path d="M0 0 C0.66 0.33 1.32 0.66 2 1 C-0.10148204 4.98175544 -2.36905358 7.35039045 -6 10 C-6 8.68 -6 7.36 -6 6 C-5.34 6 -4.68 6 -4 6 C-3.34 4.68 -2.68 3.36 -2 2 C-1.34 2 -0.68 2 0 2 C0 1.34 0 0.68 0 0 Z " fill="#806A97" transform="translate(215,139)"/>
<path d="M0 0 C1.98 0.495 1.98 0.495 4 1 C2.02 1.99 2.02 1.99 0 3 C0 2.01 0 1.02 0 0 Z M-3 2 C-2.01 2.495 -2.01 2.495 -1 3 C-1.99 3.495 -1.99 3.495 -3 4 C-3 3.34 -3 2.68 -3 2 Z M-9 4 C-7.02 4 -5.04 4 -3 4 C-3.33 4.66 -3.66 5.32 -4 6 C-6.5625 6.625 -6.5625 6.625 -9 7 C-9 6.01 -9 5.02 -9 4 Z " fill="#604F9D" transform="translate(92,120)"/>
<path d="M0 0 C0.99 1.32 1.98 2.64 3 4 C2.01 4.495 2.01 4.495 1 5 C1.33 5.66 1.66 6.32 2 7 C1.01 7.33 0.02 7.66 -1 8 C-1.66 7.67 -2.32 7.34 -3 7 C-3.625 4.9375 -3.625 4.9375 -4 3 C-2.68 2.01 -1.36 1.02 0 0 Z " fill="#6A609C" transform="translate(73,109)"/>
<path d="M0 0 C2.33944736 0.28730055 4.6739143 0.61936779 7 1 C3.47320901 3.35119399 1.97120515 3.21443452 -2.1875 3.125 C-3.27417969 3.10695312 -4.36085937 3.08890625 -5.48046875 3.0703125 C-6.72763672 3.03550781 -6.72763672 3.03550781 -8 3 C-8 2.67 -8 2.34 -8 2 C-6.865625 1.855625 -5.73125 1.71125 -4.5625 1.5625 C-1.19222799 1.38828522 -1.19222799 1.38828522 0 0 Z " fill="#7F739A" transform="translate(148,228)"/>
<path d="M0 0 C2.64 1.65 5.28 3.3 8 5 C7.01 5.66 6.02 6.32 5 7 C1.8125 6.125 1.8125 6.125 -1 5 C-0.67 3.35 -0.34 1.7 0 0 Z " fill="#ECE9F5" transform="translate(78,210)"/>
<path d="M0 0 C3.34373475 0.55728913 6.03312999 1.35173889 9 3 C9 3.66 9 4.32 9 5 C5.26512223 4.5020163 3.18762365 4.12508244 0 2 C0 1.34 0 0.68 0 0 Z " fill="#F4ECFC" transform="translate(90,207)"/>
<path d="M0 0 C2.97 0.99 5.94 1.98 9 3 C7.02 3.99 7.02 3.99 5 5 C3 4.33333333 1 3.66666667 -1 3 C-1.33 3.66 -1.66 4.32 -2 5 C-2.66 4.34 -3.32 3.68 -4 3 C-2.68 2.67 -1.36 2.34 0 2 C0 1.34 0 0.68 0 0 Z " fill="#644E8F" transform="translate(125,11)"/>
<path d="M0 0 C0.66 1.32 1.32 2.64 2 4 C1.01 4.33 0.02 4.66 -1 5 C-1.33 5.99 -1.66 6.98 -2 8 C-3.65 8 -5.3 8 -7 8 C-6.02133662 6.85373678 -5.04205413 5.70800212 -4.0625 4.5625 C-3.51722656 3.92441406 -2.97195313 3.28632813 -2.41015625 2.62890625 C-1.63204305 1.73008851 -0.84063472 0.84063472 0 0 Z " fill="#F1E5F4" transform="translate(267,239)"/>
<path d="M0 0 C1.65 0.33 3.3 0.66 5 1 C3.68 3.64 2.36 6.28 1 9 C0.34 8.67 -0.32 8.34 -1 8 C-0.67 5.36 -0.34 2.72 0 0 Z " fill="#F0EEF7" transform="translate(41,135)"/>
<path d="M0 0 C0 3 0 3 -1 6 C-2.8125 7.0625 -2.8125 7.0625 -5 8 C-6.11375 8.556875 -6.11375 8.556875 -7.25 9.125 C-7.8275 9.41375 -8.405 9.7025 -9 10 C-7.61811547 6.78956118 -6.07578097 4.95063635 -3.375 2.75 C-2.74335937 2.22921875 -2.11171875 1.7084375 -1.4609375 1.171875 C-0.73777344 0.59179688 -0.73777344 0.59179688 0 0 Z " fill="#EDEAF8" transform="translate(63,124)"/>
<path d="M0 0 C1.32 0.99 2.64 1.98 4 3 C3.34 3 2.68 3 2 3 C2 3.66 2 4.32 2 5 C2.66 5.33 3.32 5.66 4 6 C3.01 6.66 2.02 7.32 1 8 C1 7.34 1 6.68 1 6 C0.34 6 -0.32 6 -1 6 C-1.042721 4.33388095 -1.04063832 2.66617115 -1 1 C-0.67 0.67 -0.34 0.34 0 0 Z " fill="#675DA1" transform="translate(56,122)"/>
<path d="M0 0 C1.65 0.33 3.3 0.66 5 1 C2.63707344 3.52588702 1.33537489 4.88820837 -2 6 C-2 3 -2 3 0 0 Z " fill="#6F649B" transform="translate(85,94)"/>
<path d="M0 0 C-2.85478326 1.90318884 -4.41941308 2.4619099 -7.6875 3.125 C-8.49574219 3.29257813 -9.30398437 3.46015625 -10.13671875 3.6328125 C-10.75160156 3.75398437 -11.36648437 3.87515625 -12 4 C-12 3.01 -12 2.02 -12 1 C-7.9472484 0.01751476 -4.16138263 -0.08159574 0 0 Z " fill="#E5DCF0" transform="translate(180,244)"/>
<path d="M0 0 C1.0725 0.2475 2.145 0.495 3.25 0.75 C1.93 1.08 0.61 1.41 -0.75 1.75 C-0.75 2.41 -0.75 3.07 -0.75 3.75 C-3.06 3.75 -5.37 3.75 -7.75 3.75 C-5.15187156 0.32047046 -4.43092205 -0.2953948 0 0 Z " fill="#645584" transform="translate(129.75,224.25)"/>
<path d="M0 0 C0.33 0.66 0.66 1.32 1 2 C3.97 1.34 6.94 0.68 10 0 C10.33 1.65 10.66 3.3 11 5 C7.37 4.34 3.74 3.68 0 3 C0 2.01 0 1.02 0 0 Z " fill="#8B6FA1" transform="translate(206,150)"/>
<path d="M0 0 C0.185625 0.9590625 0.185625 0.9590625 0.375 1.9375 C0.684375 2.9584375 0.684375 2.9584375 1 4 C1.66 4.33 2.32 4.66 3 5 C2.01 7.64 1.02 10.28 0 13 C-0.99 12.67 -1.98 12.34 -3 12 C-2.690625 11.505 -2.38125 11.01 -2.0625 10.5 C-0.58355618 7.02013219 -0.37597149 3.75971491 0 0 Z " fill="#E1D7E9" transform="translate(217,132)"/>
<path d="M0 0 C0.66 0 1.32 0 2 0 C2.33 1.65 2.66 3.3 3 5 C1.68 5.33 0.36 5.66 -1 6 C-1.625 4.125 -1.625 4.125 -2 2 C-1.34 1.34 -0.68 0.68 0 0 Z " fill="#5E568D" transform="translate(68,138)"/>
<path d="M0 0 C0.99 0.99 1.98 1.98 3 3 C0.01353231 4.99097846 -2.59687262 5.94124926 -6 7 C-4.02 4.69 -2.04 2.38 0 0 Z " fill="#ECE9F5" transform="translate(52,135)"/>
<path d="M0 0 C2.46800047 1.15173355 4.04783565 2.04783565 6 4 C3.6875 4.625 3.6875 4.625 1 5 C0.01 4.34 -0.98 3.68 -2 3 C-1.34 2.01 -0.68 1.02 0 0 Z " fill="#7C52A3" transform="translate(203,208)"/>
<path d="M0 0 C3.625 0.375 3.625 0.375 7 1 C6.01 2.485 6.01 2.485 5 4 C2.69 3.34 0.38 2.68 -2 2 C-1.34 1.34 -0.68 0.68 0 0 Z " fill="#64568E" transform="translate(101,208)"/>
<path d="M0 0 C0.66 0.33 1.32 0.66 2 1 C-0.31 3.31 -2.62 5.62 -5 8 C-5.99 7.01 -6.98 6.02 -8 5 C-7.01 5 -6.02 5 -5 5 C-4.67 4.34 -4.34 3.68 -4 3 C-2.69084721 1.96854629 -1.35917857 0.96457834 0 0 Z " fill="#F0E9F4" transform="translate(246,202)"/>
<path d="M0 0 C3 1 3 1 4.1875 3.0625 C4.455625 3.701875 4.72375 4.34125 5 5 C4.67 5.33 4.34 5.66 4 6 C4.66 6.66 5.32 7.32 6 8 C4.68 8.33 3.36 8.66 2 9 C2 7.02 2 5.04 2 3 C1.34 2.67 0.68 2.34 0 2 C0 1.34 0 0.68 0 0 Z " fill="#5A4E8C" transform="translate(75,201)"/>
<path d="M0 0 C0.33 1.32 0.66 2.64 1 4 C-1.97 4 -4.94 4 -8 4 C-5.17555626 1.17555626 -3.97077188 0 0 0 Z " fill="#5E5588" transform="translate(108,92)"/>
<path d="M0 0 C0.99 0 1.98 0 3 0 C2.1875 2.9375 2.1875 2.9375 1 6 C0.01 6.33 -0.98 6.66 -2 7 C-1.125 2.25 -1.125 2.25 0 0 Z " fill="#7C608A" transform="translate(267,233)"/>
<path d="M0 0 C-0.33 0.66 -0.66 1.32 -1 2 C-3.3260857 2.38063221 -5.66055264 2.71269945 -8 3 C-8.99 3.495 -8.99 3.495 -10 4 C-10 3.01 -10 2.02 -10 1 C-3.375 -1.125 -3.375 -1.125 0 0 Z " fill="#EFE6F4" transform="translate(199,225)"/>
<path d="M0 0 C2.66666667 1.33333333 5.33333333 2.66666667 8 4 C5.69 4.66 3.38 5.32 1 6 C1 5.01 1 4.02 1 3 C0.34 3 -0.32 3 -1 3 C-0.67 2.01 -0.34 1.02 0 0 Z " fill="#936EB4" transform="translate(208,208)"/>
<path d="M0 0 C0.66 0 1.32 0 2 0 C1.37240135 2.92879371 0.41377341 5.36095629 -1 8 C-1.66 6.68 -2.32 5.36 -3 4 C-1.625 2 -1.625 2 0 0 Z " fill="#7D5C90" transform="translate(257,190)"/>
<path d="M0 0 C0.99 0.33 1.98 0.66 3 1 C3 1.66 3 2.32 3 3 C3.66 3 4.32 3 5 3 C5.33 4.65 5.66 6.3 6 8 C5.01 7.67 4.02 7.34 3 7 C1.3125 3.4375 1.3125 3.4375 0 0 Z " fill="#F7EDF7" transform="translate(245,166)"/>
<path d="M0 0 C0.33 0.66 0.66 1.32 1 2 C1.66 2 2.32 2 3 2 C3.33 1.34 3.66 0.68 4 0 C4.33 0.66 4.66 1.32 5 2 C3.68 3.65 2.36 5.3 1 7 C0.34 5.02 -0.32 3.04 -1 1 C-0.67 0.67 -0.34 0.34 0 0 Z " fill="#E6E7F2" transform="translate(25,163)"/>
<path d="M0 0 C1.32 1.65 2.64 3.3 4 5 C3.01 5.495 3.01 5.495 2 6 C1.34 5.67 0.68 5.34 0 5 C-0.33 5.66 -0.66 6.32 -1 7 C-1.66 6.67 -2.32 6.34 -3 6 C-1.125 1.125 -1.125 1.125 0 0 Z " fill="#77709E" transform="translate(49,130)"/>
<path d="M0 0 C0.66 0.66 1.32 1.32 2 2 C1.34 3.65 0.68 5.3 0 7 C-1.98 6.34 -3.96 5.68 -6 5 C-4.68 4.67 -3.36 4.34 -2 4 C-2 3.34 -2 2.68 -2 2 C-1.34 2 -0.68 2 0 2 C0 1.34 0 0.68 0 0 Z " fill="#5D4F96" transform="translate(78,129)"/>
<path d="M0 0 C3.14958831 3.42346555 3.56179109 6.44262737 4 11 C1 9 1 9 0.48828125 6.8359375 C0.43027344 6.02382812 0.37226562 5.21171875 0.3125 4.375 C0.24675781 3.55773437 0.18101563 2.74046875 0.11328125 1.8984375 C0.07589844 1.27195312 0.03851563 0.64546875 0 0 Z " fill="#5A4D9F" transform="translate(69,96)"/>
<path d="M0 0 C1.125 1.75 1.125 1.75 2 4 C1.125 6.25 1.125 6.25 0 8 C-0.99 8 -1.98 8 -3 8 C-1.125 2.25 -1.125 2.25 0 0 Z " fill="#665E91" transform="translate(73,88)"/>
<path d="M0 0 C4.95 0.99 4.95 0.99 10 2 C7.08235 3.9451 5.37462715 4.45276317 2 5 C1.34 3.35 0.68 1.7 0 0 Z " fill="#79659D" transform="translate(120,86)"/>
<path d="M0 0 C0.4125 0.45375 0.825 0.9075 1.25 1.375 C3.06408095 3.05950374 4.75285627 3.99265971 7 5 C7 5.66 7 6.32 7 7 C3.62496331 5.8141763 1.35277269 4.72426311 -1 2 C-0.67 1.34 -0.34 0.68 0 0 Z " fill="#656095" transform="translate(13,243)"/>
<path d="M0 0 C0.66 0.33 1.32 0.66 2 1 C-2.29290618 5.75286041 -2.29290618 5.75286041 -6 6 C-6.66 5.34 -7.32 4.68 -8 4 C-6.71349294 3.30289269 -5.42059335 2.61757124 -4.125 1.9375 C-3.40570313 1.55464844 -2.68640625 1.17179688 -1.9453125 0.77734375 C-1.30335938 0.52082031 -0.66140625 0.26429688 0 0 Z " fill="#72598C" transform="translate(213,230)"/>
<path d="M0 0 C2.64 0 5.28 0 8 0 C8.33 1.32 8.66 2.64 9 4 C6.03 3.01 3.06 2.02 0 1 C0 0.67 0 0.34 0 0 Z " fill="#766C95" transform="translate(94,219)"/>
<path d="M0 0 C0.721875 0.53625 1.44375 1.0725 2.1875 1.625 C-1.19268531 2.66505702 -4.2905279 2.70504482 -7.8125 2.625 C-7.8125 1.965 -7.8125 1.305 -7.8125 0.625 C-4.49183748 -1.17764537 -3.49974382 -1.71098587 0 0 Z " fill="#FCFAFA" transform="translate(237.8125,207.375)"/>
<path d="M0 0 C1 4 1 4 0.22265625 5.921875 C-0.8515625 7.61458333 -1.92578125 9.30729167 -3 11 C-3.66 10.34 -4.32 9.68 -5 9 C-3.35 6.03 -1.7 3.06 0 0 Z " fill="#686396" transform="translate(17,185)"/>
<path d="M0 0 C1.32 0.99 2.64 1.98 4 3 C3.67 4.65 3.34 6.3 3 8 C0 6 0 6 -0.75 3.4375 C-0.8325 2.633125 -0.915 1.82875 -1 1 C-0.67 0.67 -0.34 0.34 0 0 Z " fill="#8356A4" transform="translate(241,167)"/>
<path d="M0 0 C0.66 0 1.32 0 2 0 C1.67 1.98 1.34 3.96 1 6 C0.01 6.33 -0.98 6.66 -2 7 C-2.33 6.34 -2.66 5.68 -3 5 C-1.6875 2.375 -1.6875 2.375 0 0 Z " fill="#5F568C" transform="translate(63,146)"/>
<path d="M0 0 C1.32 0.33 2.64 0.66 4 1 C3.625 3.4375 3.625 3.4375 3 6 C2.01 6.495 2.01 6.495 1 7 C0.67 4.69 0.34 2.38 0 0 Z " fill="#F8F0FA" transform="translate(217,128)"/>
<path d="M0 0 C2.64 0 5.28 0 8 0 C8 0.66 8 1.32 8 2 C2.25 3.125 2.25 3.125 0 2 C0 1.34 0 0.68 0 0 Z " fill="#654FA7" transform="translate(112,110)"/>
<path d="M0 0 C0.99 0.33 1.98 0.66 3 1 C3 1.66 3 2.32 3 3 C3.99 3.33 4.98 3.66 6 4 C4.02 4.66 2.04 5.32 0 6 C-1.125 2.25 -1.125 2.25 0 0 Z " fill="#7A6DA0" transform="translate(112,89)"/>
<path d="M0 0 C2.31 0 4.62 0 7 0 C4.90217213 2.09782787 3.6200793 2.6509396 0.875 3.625 C0.15054688 3.88539062 -0.57390625 4.14578125 -1.3203125 4.4140625 C-2.15175781 4.70410156 -2.15175781 4.70410156 -3 5 C-3 4.34 -3 3.68 -3 3 C-2.01 3 -1.02 3 0 3 C0 2.01 0 1.02 0 0 Z " fill="#E6E3F0" transform="translate(105,89)"/>
<path d="M0 0 C2.625 0.9375 2.625 0.9375 5 2 C5 2.66 5 3.32 5 4 C2.69 3.67 0.38 3.34 -2 3 C-2 2.34 -2 1.68 -2 1 C-1.34 0.67 -0.68 0.34 0 0 Z " fill="#6B5E95" transform="translate(138,81)"/>
<path d="M0 0 C1.65 0 3.3 0 5 0 C5.33 0.99 5.66 1.98 6 3 C3.69 3.66 1.38 4.32 -1 5 C-0.67 3.35 -0.34 1.7 0 0 Z " fill="#796A98" transform="translate(156,78)"/>
<path d="M0 0 C0.99 0.33 1.98 0.66 3 1 C3.6875 3.0625 3.6875 3.0625 4 5 C3.01 5.495 3.01 5.495 2 6 C1.01 5.01 0.02 4.02 -1 3 C-0.67 2.01 -0.34 1.02 0 0 Z " fill="#F4F3F1" transform="translate(100,32)"/>
<path d="M0 0 C2 2 2 2 2 4 C-1.465 5.485 -1.465 5.485 -5 7 C-5.66 6.34 -6.32 5.68 -7 5 C-5.5459375 4.5978125 -5.5459375 4.5978125 -4.0625 4.1875 C-3.051875 3.795625 -2.04125 3.40375 -1 3 C-0.67 2.01 -0.34 1.02 0 0 Z " fill="#7D5D94" transform="translate(256,244)"/>
<path d="M0 0 C2.31 0.33 4.62 0.66 7 1 C7 1.66 7 2.32 7 3 C1.25 4.125 1.25 4.125 -1 3 C-0.67 2.01 -0.34 1.02 0 0 Z " fill="#6053A4" transform="translate(50,236)"/>
<path d="M0 0 C0 1.66666667 0 3.33333333 0 5 C-0.66 5 -1.32 5 -2 5 C-2 5.66 -2 6.32 -2 7 C-2.66 7 -3.32 7 -4 7 C-3.6875 4.625 -3.6875 4.625 -3 2 C-2.01 1.34 -1.02 0.68 0 0 Z " fill="#7C5E99" transform="translate(219,226)"/>
<path d="M0 0 C0 0.66 0 1.32 0 2 C-2.31 2.66 -4.62 3.32 -7 4 C-7.66 3.34 -8.32 2.68 -9 2 C-5.5647952 -0.29013653 -4.014669 -0.17842973 0 0 Z " fill="#775790" transform="translate(209,212)"/>
<path d="M0 0 C3.1875 0.875 3.1875 0.875 6 2 C5.01 2.33 4.02 2.66 3 3 C2.67 3.66 2.34 4.32 2 5 C0.35 4.01 -1.3 3.02 -3 2 C-2.01 1.34 -1.02 0.68 0 0 Z " fill="#72669C" transform="translate(84,211)"/>
<path d="M0 0 C0.66 0 1.32 0 2 0 C1.50168276 3.68754757 0.89932357 5.60490662 -2 8 C-2.33 7.01 -2.66 6.02 -3 5 C-2.34 5 -1.68 5 -1 5 C-0.67 3.35 -0.34 1.7 0 0 Z " fill="#E8EAF6" transform="translate(21,174)"/>
<path d="M0 0 C1.32 1.65 2.64 3.3 4 5 C3.67 5.66 3.34 6.32 3 7 C1.68 6.34 0.36 5.68 -1 5 C-0.67 3.35 -0.34 1.7 0 0 Z " fill="#8A6D9C" transform="translate(242,162)"/>
<path d="M0 0 C0.66 0.33 1.32 0.66 2 1 C1.34 2.65 0.68 4.3 0 6 C-0.99 5.67 -1.98 5.34 -3 5 C-3.33 5.66 -3.66 6.32 -4 7 C-3.43628586 3.73045798 -2.50037734 2.17424117 0 0 Z " fill="#766BB9" transform="translate(63,115)"/>
<path d="M0 0 C0.99 0.99 1.98 1.98 3 3 C1.8125 4.5625 1.8125 4.5625 0 6 C-2.6875 5.6875 -2.6875 5.6875 -5 5 C-4.67 4.34 -4.34 3.68 -4 3 C-1.9375 2.375 -1.9375 2.375 0 2 C0 1.34 0 0.68 0 0 Z " fill="#594E8A" transform="translate(90,100)"/>
<path d="M0 0 C1.65 0 3.3 0 5 0 C5.33 0.99 5.66 1.98 6 3 C4.02 3.66 2.04 4.32 0 5 C0 3.33333333 0 1.66666667 0 0 Z " fill="#70629D" transform="translate(106,82)"/>
<path d="M0 0 C2.31 0.33 4.62 0.66 7 1 C6.67 1.99 6.34 2.98 6 4 C3.69 3.34 1.38 2.68 -1 2 C-0.67 1.34 -0.34 0.68 0 0 Z " fill="#604F95" transform="translate(101,80)"/>
<path d="M0 0 C3.46941546 0.45822468 6.67395049 0.89131683 10 2 C9.67 2.66 9.34 3.32 9 4 C5.625 3.6875 5.625 3.6875 2 3 C1.34 2.01 0.68 1.02 0 0 Z " fill="#7F5EA6" transform="translate(182,243)"/>
<path d="M0 0 C-2.17424117 2.50037734 -3.73045798 3.43628586 -7 4 C-7.33 3.01 -7.66 2.02 -8 1 C-5.07175348 0.02391783 -3.04386724 -0.08226668 0 0 Z " fill="#EAD6F2" transform="translate(202,217)"/>
<path d="M0 0 C0.66 0.99 1.32 1.98 2 3 C-0.3125 4.5625 -0.3125 4.5625 -3 6 C-3.99 5.67 -4.98 5.34 -6 5 C-4.02 3.35 -2.04 1.7 0 0 Z " fill="#F0E0F4" transform="translate(237,202)"/>
<path d="M0 0 C0.66 0.33 1.32 0.66 2 1 C2 1.99 2 2.98 2 4 C-0.31 4.33 -2.62 4.66 -5 5 C-3.35 3.35 -1.7 1.7 0 0 Z " fill="#8257A0" transform="translate(230,201)"/>
<path d="M0 0 C1.98 0.99 1.98 0.99 4 2 C3.34 3.65 2.68 5.3 2 7 C1.34 6.67 0.68 6.34 0 6 C0 4.02 0 2.04 0 0 Z " fill="#7E51A4" transform="translate(208,122)"/>
<path d="M0 0 C0 3 0 3 -2 6 C-4.625 6.1875 -4.625 6.1875 -7 6 C-2.25 1.125 -2.25 1.125 0 0 Z " fill="#E8E4F7" transform="translate(79,112)"/>
<path d="M0 0 C0.66 0.99 1.32 1.98 2 3 C1.01 3.99 0.02 4.98 -1 6 C-1 5.01 -1 4.02 -1 3 C-1.66 3 -2.32 3 -3 3 C-3 2.34 -3 1.68 -3 1 C-2.01 0.67 -1.02 0.34 0 0 Z " fill="#604E92" transform="translate(101,45)"/>
<path d="M0 0 C2.25245881 2.68841859 3.88213958 4.64641875 5 8 C4.01 8.495 4.01 8.495 3 9 C0.70620251 5.55930376 0 4.27709699 0 0 Z " fill="#7A6993" transform="translate(169,36)"/>
<path d="M0 0 C0.66 0.66 1.32 1.32 2 2 C1.64644564 4.26274788 1.02455574 5.95088852 0 8 C-0.66 7.67 -1.32 7.34 -2 7 C-1.125 2.25 -1.125 2.25 0 0 Z " fill="#6D6097" transform="translate(106,31)"/>
<path d="M0 0 C0.99 0.33 1.98 0.66 3 1 C3 1.66 3 2.32 3 3 C4.32 3.66 5.64 4.32 7 5 C4.69 4.67 2.38 4.34 0 4 C0 2.68 0 1.36 0 0 Z " fill="#756391" transform="translate(149,11)"/>
<path d="M0 0 C-2.75924185 1.80411967 -3.88972103 2.0127245 -7.25 1.625 C-8.1575 1.41875 -9.065 1.2125 -10 1 C-6.1496895 -1.56687367 -4.41430237 -0.83288724 0 0 Z " fill="#7B68A3" transform="translate(135,10)"/>
</svg>
