<?xml version="1.0" encoding="UTF-8"?>
<svg id="Layer_2" data-name="Layer 2" xmlns="http://www.w3.org/2000/svg" xmlns:xlink="http://www.w3.org/1999/xlink" viewBox="0 0 310.91 74.81">
  <defs>
    <style>
      .cls-1 {
        fill: url(#linear-gradient-12);
      }

      .cls-1, .cls-2, .cls-3, .cls-4, .cls-5, .cls-6, .cls-7, .cls-8, .cls-9, .cls-10, .cls-11, .cls-12, .cls-13, .cls-14, .cls-15 {
        stroke-width: 0px;
      }

      .cls-16 {
        stroke: url(#linear-gradient-2);
        stroke-miterlimit: 10;
        stroke-width: .75px;
      }

      .cls-16, .cls-8 {
        fill: #fff;
      }

      .cls-2 {
        fill: url(#linear-gradient);
      }

      .cls-3 {
        fill: url(#linear-gradient-6);
      }

      .cls-4 {
        fill: url(#linear-gradient-11);
      }

      .cls-5 {
        fill: url(#linear-gradient-5);
      }

      .cls-6 {
        fill: none;
      }

      .cls-7 {
        fill: url(#linear-gradient-13);
      }

      .cls-9 {
        fill: url(#linear-gradient-14);
      }

      .cls-10 {
        fill: url(#linear-gradient-7);
      }

      .cls-11 {
        fill: url(#linear-gradient-3);
      }

      .cls-12 {
        fill: url(#linear-gradient-9);
      }

      .cls-13 {
        fill: url(#linear-gradient-8);
      }

      .cls-14 {
        fill: url(#linear-gradient-10);
      }

      .cls-15 {
        fill: url(#linear-gradient-4);
      }
    </style>
    <linearGradient id="linear-gradient" x1="0" y1="36.95" x2="82.59" y2="36.95" gradientUnits="userSpaceOnUse">
      <stop offset="0" stop-color="#534fa1"/>
      <stop offset="1" stop-color="#8a52a1"/>
    </linearGradient>
    <linearGradient id="linear-gradient-2" x1="7.88" y1="48.11" x2="78.06" y2="48.11" xlink:href="#linear-gradient"/>
    <linearGradient id="linear-gradient-3" x1="98.74" y1="57.98" x2="134.78" y2="57.98" xlink:href="#linear-gradient"/>
    <linearGradient id="linear-gradient-4" x1="135.83" y1="64.1" x2="161.66" y2="64.1" xlink:href="#linear-gradient"/>
    <linearGradient id="linear-gradient-5" x1="139.27" y1="63.93" x2="158.17" y2="63.93" xlink:href="#linear-gradient"/>
    <linearGradient id="linear-gradient-6" x1="164.48" y1="48.5" x2="173.77" y2="48.5" xlink:href="#linear-gradient"/>
    <linearGradient id="linear-gradient-7" x1="164.99" y1="64.48" x2="173.53" y2="64.48" xlink:href="#linear-gradient"/>
    <linearGradient id="linear-gradient-8" x1="176.84" y1="64.23" x2="206.64" y2="64.23" xlink:href="#linear-gradient"/>
    <linearGradient id="linear-gradient-9" x1="208.19" y1="58" x2="234.65" y2="58" xlink:href="#linear-gradient"/>
    <linearGradient id="linear-gradient-10" x1="236.16" y1="62.17" x2="258.59" y2="62.17" xlink:href="#linear-gradient"/>
    <linearGradient id="linear-gradient-11" x1="253.49" y1="64.04" x2="279.11" y2="64.04" xlink:href="#linear-gradient"/>
    <linearGradient id="linear-gradient-12" x1="278.82" y1="51.06" x2="295.9" y2="51.06" xlink:href="#linear-gradient"/>
    <linearGradient id="linear-gradient-13" x1="293.85" y1="61.23" x2="310.91" y2="61.23" xlink:href="#linear-gradient"/>
    <linearGradient id="linear-gradient-14" x1="281.36" y1="66.85" x2="289.96" y2="66.85" xlink:href="#linear-gradient"/>
  </defs>
  <g id="Layer_1-2" data-name="Layer 1">
    <path class="cls-2" d="M33.57,4.46L1.21,60.52c-3.43,5.95.86,13.38,7.72,13.38h64.73c6.86,0,11.16-7.43,7.72-13.38L49.02,4.46c-3.43-5.95-12.01-5.95-15.45,0Z"/>
    <path class="cls-16" d="M70.15,60.27c1.05-.76,2-1.5,2.87-2.24.86-.73,1.63-1.35,2.29-1.87.66-.52,1.2-.9,1.61-1.14s.66-.28.75-.12c.09.22-.2.84-.89,1.87-.68,1.03-1.74,2.25-3.18,3.66-1.43,1.41-3.24,2.92-5.43,4.51-2.19,1.6-4.72,3.06-7.61,4.39-2.89,1.33-6.12,2.44-9.7,3.33-3.57.89-7.48,1.34-11.71,1.34-5.87,0-10.89-.65-15.06-1.95-4.17-1.3-7.51-3.04-10.04-5.21-2.53-2.17-4.22-4.7-5.09-7.6-.87-2.9-.93-5.92-.21-9.07.5-2.17,1.46-4.36,2.87-6.59,1.41-2.22,3.18-4.36,5.29-6.43,2.12-2.06,4.54-4,7.27-5.82,2.73-1.82,5.67-3.4,8.81-4.76,4.3-1.85,8.89-3.17,13.78-3.96,1.23-.2,2.48-.32,3.73-.37,6.34-.25,11.44.3,15.31,1.65,3.25,1.14,5.6,2.58,7.03,4.31,1.43,1.74,1.98,3.62,1.64,5.65-.34,2.03-1.58,3.92-3.72,5.65-.41.33-.96.73-1.64,1.22-.68.49-1.4.95-2.15,1.38-.75.43-1.47.81-2.15,1.14s-1.23.49-1.64.49c-.27,0-.46-.08-.55-.24-.09-.27.09-.54.55-.81.45-.27.86-.6,1.23-.98,1.14-1.03,1.64-2.3,1.5-3.82-.14-1.52-.92-2.98-2.36-4.39-1.43-1.41-3.56-2.63-6.39-3.66-2.82-1.03-6.37-1.54-10.65-1.54-3.82-.05-7.25.31-10.28,1.1-3.03.79-5.68,1.83-7.96,3.13-2.28,1.3-4.21,2.79-5.8,4.47-1.59,1.68-2.85,3.39-3.76,5.12-.91,1.74-1.51,3.44-1.81,5.12-.3,1.68-.31,3.17-.03,4.47.45,2.17,1.45,4.22,2.97,6.14,1.53,1.93,3.55,3.61,6.08,5.04,2.53,1.44,5.57,2.58,9.12,3.42,3.55.84,7.56,1.26,12.02,1.26s8.73-.69,12.67-2.07c3.94-1.38,7.41-3.13,10.42-5.25Z"/>
    <path class="cls-8" d="M17.65,33.93s15.91-13.92,37.12-12.93c0,0-17.57-5.97-37.12,12.93Z"/>
    <path class="cls-8" d="M21.3,57.14s23.53,19.56,48.06,1.99c0,0-18.56,14.58-48.06-1.99Z"/>
    <path class="cls-11" d="M118.8,66.01c2.7,0,4.97-.8,6.82-2.4l9.17,4.54c-1.91,2.05-4.25,3.67-7.03,4.84-2.78,1.17-5.76,1.76-8.95,1.76-2.73,0-5.34-.44-7.82-1.32-2.48-.88-4.62-2.06-6.4-3.55-1.79-1.49-3.21-3.27-4.26-5.34-1.05-2.07-1.58-4.24-1.58-6.52v-.05c.02-2.26.55-4.43,1.61-6.5,1.06-2.07,2.48-3.85,4.27-5.35s3.92-2.68,6.39-3.57c2.47-.88,5.07-1.32,7.79-1.32,3.18,0,6.17.59,8.95,1.76,2.78,1.17,5.13,2.79,7.03,4.84l-9.17,4.51c-1.81-1.58-4.08-2.38-6.82-2.38s-4.88.78-6.74,2.34c-1.86,1.56-2.79,3.45-2.79,5.66s.93,4.11,2.8,5.69c1.87,1.58,4.11,2.36,6.73,2.36Z"/>
    <path class="cls-15" d="M159.94,58.71c-1.15-1.65-2.71-2.95-4.7-3.91-1.98-.95-4.14-1.42-6.49-1.42-1.76,0-3.44.28-5.03.84-1.59.57-2.98,1.34-4.13,2.28-1.15.96-2.06,2.1-2.74,3.42-.68,1.32-1.02,2.71-1.02,4.17s.34,2.88,1.02,4.2c.68,1.32,1.59,2.47,2.74,3.41,1.15.96,2.54,1.71,4.13,2.27,1.59.56,3.27.84,5.03.84,3.57,0,6.62-1.04,9.13-3.13,2.51-2.08,3.78-4.61,3.78-7.59,0-1.93-.58-3.73-1.72-5.38ZM156.57,70.61c-2.16,1.79-4.77,2.67-7.83,2.67-1.51,0-2.95-.24-4.31-.73-1.36-.47-2.54-1.13-3.53-1.94-.98-.83-1.77-1.8-2.36-2.94-.57-1.13-.86-2.33-.86-3.59s.29-2.44.87-3.57c.58-1.14,1.37-2.11,2.37-2.93.98-.81,2.16-1.47,3.53-1.96,1.36-.47,2.81-.72,4.31-.72,2.02,0,3.86.41,5.56,1.23,1.69.83,3.04,1.94,4.02,3.35.97,1.42,1.47,2.96,1.47,4.63-.01,2.54-1.09,4.71-3.24,6.5Z"/>
    <path class="cls-5" d="M156.97,59.99c-.85-1.21-1.99-2.17-3.46-2.88-1.45-.69-3.04-1.04-4.76-1.04-1.18,0-2.31.17-3.39.53-.04.35-.01.75.1,1.18.05-.02.1-.05.15-.06,1-.35,2.05-.52,3.16-.52,1.48,0,2.84.3,4.08.9,1.24.61,2.23,1.42,2.95,2.47.6.86.95,1.8,1.04,2.78.52-.01.97-.11,1.32-.3-.13-1.08-.53-2.1-1.19-3.05ZM148.75,70.67c-1.11,0-2.17-.17-3.17-.53-1-.34-1.86-.83-2.59-1.42-.73-.61-1.31-1.32-1.74-2.16-.41-.83-.63-1.71-.63-2.64,0-.18.01-.36.02-.55-.53-.04-1.01.01-1.36.09-.02.16-.02.32-.02.47,0,1.08.26,2.11.75,3.08.5.97,1.17,1.81,2.02,2.5.85.7,1.86,1.26,3.04,1.66,1.17.41,2.39.62,3.68.62s2.55-.19,3.69-.58c-.11-.39-.3-.73-.55-1.04-.96.34-2.02.5-3.15.5Z"/>
    <path class="cls-3" d="M169.16,52.4c-1.28,0-2.38-.38-3.3-1.14s-1.38-1.67-1.38-2.72.46-1.99,1.38-2.76,2.02-1.16,3.3-1.16,2.34.39,3.25,1.16,1.36,1.7,1.36,2.76-.45,1.96-1.36,2.72-1.99,1.14-3.25,1.14Z"/>
    <rect class="cls-10" x="164.99" y="54.19" width="8.54" height="20.57"/>
    <path class="cls-13" d="M176.84,54.19h10.54v.15c1.52-.42,3.13-.63,4.85-.63,1.88,0,3.69.25,5.44.75,1.75.5,3.28,1.18,4.6,2.04,1.32.86,2.37,1.9,3.17,3.14s1.2,2.55,1.2,3.94v11.18h-9.94v-11.18c0-.94-.42-1.7-1.26-2.29-.84-.59-1.85-.89-3.02-.89-1.46,0-2.66.3-3.61.91-.95.61-1.42,1.36-1.42,2.27v11.18h-10.54v-20.57Z"/>
    <path class="cls-12" d="M222.04,64.28l12.56,10.48h-10.72l-7.15-6.02v6.02h-8.54v-33.52h8.54v18.63l6.74-5.72h11.18l-12.61,10.14Z"/>
    <path class="cls-14" d="M236.16,50.24h8.54v.35c1.55-.57,3.19-.86,4.92-.86s3.37.34,4.91,1.01,2.9,1.61,4.06,2.82l-5.7,5.46c-.97-.9-2.17-1.35-3.59-1.35-1.26,0-2.34.45-3.25,1.34-.91.89-1.36,2.02-1.36,3.38v12.24h-8.54v-24.37Z"/>
    <path class="cls-4" d="M272.9,54.75c-1.96-.96-4.1-1.43-6.45-1.43s-4.53.47-6.52,1.43c-1.99.96-3.56,2.25-4.72,3.9-1.15,1.64-1.72,3.44-1.72,5.39s.57,3.78,1.72,5.42c1.17,1.64,2.73,2.94,4.72,3.89,1.99.95,4.17,1.42,6.52,1.42s4.49-.49,6.45-1.43v1h6.21v-20.57h-6.21v1ZM269.75,67c-.89.77-1.98,1.15-3.29,1.15s-2.42-.39-3.35-1.17c-.95-.79-1.42-1.74-1.42-2.85s.47-2.02,1.42-2.81c.94-.78,2.06-1.18,3.35-1.18s2.4.39,3.29,1.17c.87.78,1.31,1.71,1.31,2.82s-.44,2.09-1.31,2.87Z"/>
    <path class="cls-1" d="M291.32,42.4c.92-.79,2.21-1.18,3.87-1.18h.7v-7.2h-.53c-4.14,0-7.51,1.12-10.12,3.35-2.6,2.25-3.9,4.99-3.9,8.26v1.89h-2.53v5.42h2.53v15.16h8.59v-15.16h5.96v-5.42h-5.96v-1.89c0-1.37.46-2.45,1.38-3.23Z"/>
    <path class="cls-7" d="M310.91,59.43h-4.24v15.16h-8.59v-15.16h-4.22v-5.41h4.22v-6.16h8.59v6.16h4.24v5.41Z"/>
    <rect class="cls-9" x="281.36" y="59.33" width="8.59" height="15.04"/>
    <path class="cls-6" d="M145.63,55.46s-.22.46-.27,1.14c-.04.35-.01.75.1,1.18.18.72.64,1.51,1.64,2.17,2.03,1.36,6.9,3.51,9.74,3.39.52-.01.97-.11,1.32-.3.3-.15.53-.38.68-.68"/>
    <path class="cls-6" d="M138.54,63.68s.28-.12.75-.22c.35-.07.83-.12,1.36-.09,1.11.06,2.53.49,3.93,1.85,2.4,2.34,5.84,3,7.31,4.95.24.32.44.66.55,1.04.07.21.13.43.16.67"/>
  </g>
</svg>