<?xml version="1.0" encoding="UTF-8"?>
<svg id="Layer_2" data-name="Layer 2" xmlns="http://www.w3.org/2000/svg" viewBox="0 0 1129.24 870.11">
  <defs>
    <style>
      .cls-1 {
        stroke-width: 0px;
        fill:url(#gradient)
      }
    </style>
     <linearGradient id="gradient" gradientTransform="rotate(90)">
            <stop offset="0%" stop-color="#00cea8" />
            <stop offset="100%" stop-color="#bf61ff" />
        </linearGradient>
  </defs>
  <g id="Layer_1-2" data-name="Layer 1">
    <path class="cls-1" d="M215.58,12.01c21.57-8.07,42.84-6.82,63.56,2.74,7.22,3.33,13.91,7.86,20.75,11.97,5.68,3.42,11.24,7.04,17.59,11.03,3.06-2.92,6.18-5.3,8.55-8.27C343.18,8.03,365.76-1.38,392.76.16c10.55.6,21.25,2.33,31.41,5.19,18.75,5.28,33.29,17,42.77,33.94,6.14,10.98,10.59,22.92,15.68,34.48,1.83,4.16,3.34,8.46,5.45,13.86,7-1.75,13.37-3.1,19.59-4.95,49.31-14.7,99.49-24.82,150.82-28.98,7.97-.64,15.97-1.2,23.95-1.22,54.66-.11,109.32-.08,163.98-.05,18.11.01,35.83,2.81,53.17,8,21.69,6.48,43.47,12.7,65.05,19.55,18.45,5.86,36.01,13.83,52.76,23.67,26.26,15.42,45.3,37.13,56.68,65.17,5.74,14.14,9.97,28.93,14.24,43.61,4.59,15.8-.69,30.38-7.59,44.26-14.39,28.94-33.54,54.39-57.6,76.06-29.27,26.37-63.4,43.83-101.04,54.77-1.17.34-2.6-.21-3.9-.35-5.72-10.24-6.02-10.61.71-16.14,18.25-15.03,29.52-33.75,33.59-57.25,5.13-29.62-2.16-55.49-21.57-78.05-12.74-14.81-28.29-26.21-45.1-36.02-24.98-14.58-52.07-23.82-79.89-30.87-39.03-9.89-78.65-13.36-118.94-10.4-53.97,3.97-107.13,12.56-159.58,25.73-6.4,1.61-12.76,3.39-18.94,5.04-3.73,6.6-.9,12.31.46,17.92,5.82,23.99,11.06,48.09,11.12,72.92.03,11.32-.55,22.65-1.3,33.94-.25,3.79-1.86,7.5-2.71,10.7-5.69,1.45-6.9-2.27-7.96-5-4.57-11.8-8.97-23.67-13.07-35.64-10.18-29.74-33.22-47.58-58.55-63.09-8.1-4.96-24,1.06-27.29,9.78-1.08,2.87-.88,6.62-.16,9.7,2.6,11.02,5.8,21.89,8.57,32.87,8.33,33.13,13.75,66.58,10.14,100.9-.55,5.25-1.39,10.58-3.03,15.57-1.26,3.83-4.54,7.35-8.97,6.34-2.65-.61-5.31-3.46-6.88-5.98-2.09-3.33-3.22-7.29-4.61-11.03-13.42-36.33-35.78-66.76-62.23-94.49-1.84-1.93-3.71-3.86-5.82-5.47-1.53-1.17-3.39-2.15-5.25-2.63-11.86-3.04-28.86,13.57-25.87,25.49,1.78,7.09,4.29,14.01,6.65,20.95,14.4,42.4,25.26,85.68,29.76,130.26,4.17,41.25,4.9,82.53-6.42,123.06-1.42,5.09-3.05,10.24-5.46,14.91-2,3.87-6.31,5.43-10.3,3.59-2.65-1.22-5.71-3.98-6.34-6.6-1.24-5.1-.95-10.57-1.23-15.89-4.03-77.77-29.6-148.41-70.78-213.88-1.03-1.64-2.56-2.97-3.83-4.41-1.33.69-2.91,1-3.61,1.95-29.54,40.37-46.66,84.95-45.97,135.6.25,18.38,4.84,35.41,13.78,51.55,19.62,35.43,44.84,66.31,76.14,91.82,71.74,58.48,152.97,96.09,244.94,109.85,43.61,6.53,87.56,8.51,131.47,10.37,45.54,1.93,90.32-5.63,134.74-15.06,62.24-13.21,121.91-33.6,178.02-63.95,40.03-21.65,76.26-48.87,112.45-76.15,3.68-2.78,6.93-6.25,9.92-9.8,4.67-5.55,8.43-11.57,16.54-13.43,3.31-.76,5.76-5.25,8.62-8.04,3.8-3.71,7.61-7.41,13.6-6.76,3.72,4.43-.41,7.45-2.09,10.51-31.71,57.58-75.26,104.8-127.3,144.45-62.66,47.74-132.44,81.87-206.84,106.85-65.3,21.92-132.33,36.6-200.86,42.92-111.04,10.24-219.55-1.72-324.13-42.12-50.83-19.64-96.66-47.6-137.83-83.41-22.71-19.75-39.35-43.26-48.79-71.83-6.27-18.97-12.61-37.91-18.55-56.98-6.41-20.58-8.52-41.75-7.23-63.23.88-14.63,1.93-29.26,3.49-43.83.98-9.16-.6-16.97-6.93-24.01-13.63-15.17-21.55-33.44-27.94-52.55C1.46,365.02-4.89,299.92,3.71,233.41c2.49-19.22,7.07-37.96,15.33-55.66,11.89-25.48,29.76-45.62,53.64-60.4,4.5-2.78,8.78-5.62,14.67-1.9,2.19,1.38,6.41.2,9.5-.6,32.68-8.47,62.46-2.02,88.13,19.31,14.26,11.85,26.77,25.91,39.4,39.6,9.02,9.78,16.84,20.65,25.43,30.84,1.3,1.55,3.87,2.04,5.66,2.93,3.51-4.75.91-7.64-.71-10.2-17.21-27.2-37.46-51.83-62.32-72.47-17.87-14.84-37.61-25.19-61.82-25.53.56-1.27.83-2.74,1.3-2.8,13.81-1.97,19.92-10.58,23.13-23.63,5.81-23.59,18.96-42.39,40.42-54.7,6.4-3.67,12.97-6.89,20.63-6.65-1.3,2.02-2.58,4.03-5.22,8.17,8.24.09,14.02.72,19.67.13,20.27-2.13,37.89,4.52,54.46,15.35,12.92,8.44,24.07,18.8,33.93,30.6,14.61,17.47,26,36.9,34.93,57.8,2.09,4.88,3.73,9.97,6.08,14.71.68,1.37,3.14,1.85,4.79,2.76-.21,2.49-.43,4.96-.65,7.43.24.02.49.04.73.06v-7.43c-4.34-12.51-7.53-25.58-13.24-37.44-15.36-31.89-39.38-56.74-67.4-77.77-14.27-10.71-30.69-15.74-48.7-14.88-6.65.32-13.3.66-19.95,1ZM221.24,332.16c-9.91-7.96-17.96-14.84-26.45-21.13-8.83-6.55-12.68-5.34-19.41,4.28-8.01,11.44-15.69,23.18-24.56,33.93-49.77,60.35-75.32,129.74-77,207.67-1.47,68.04,21.24,126.74,71.18,173.99,15.56,14.72,32.88,27.09,51.2,38.15,49.53,29.89,102.85,50.23,159.17,62.72,80.72,17.9,162.25,21.21,244.44,13.24,61.25-5.94,121.21-17.89,179.59-37.26,91.52-30.36,174.71-75.47,246.07-141.07,2.35-2.16,7.34-3.59,5.04-9.37-5.91,3.92-11.47,7.54-16.96,11.27-36.58,24.81-75.77,44.46-117.2,59.77-73.87,27.3-150.8,38.65-228.88,43.11-58.92,3.37-117.11-3.73-174.59-16.46-52.25-11.57-102.41-28.94-149.81-54.25-66.45-35.47-117.39-86.92-157.23-150.09-3.9-6.18-7.34-12.7-10.43-19.33-19.53-41.92-19.47-83.84,1.46-125.16,7.51-14.83,16.57-28.88,25.12-43.16,5.79-9.67,11.93-19.14,19.26-30.85ZM960.07,353.08c3.82-1.51,6.48-1.98,8.42-3.42,13.88-10.34,28.14-20.27,41.29-31.49,23.18-19.77,40.12-44.31,52.43-72.18,4.78-10.82,5.58-21.48,3.16-33.08-8.6-41.34-31.05-73.08-65.52-96.74-17.7-12.15-37.11-20.85-57.2-28.2-57.36-20.99-116.74-26.41-177.14-21.89-30.53,2.28-60.93,6.43-91.37,9.88-38.44,4.36-76.48,11.06-113.83,21.12-23.14,6.23-46.13,13.09-68.93,20.46-11.23,3.63-16.83,15.25-13.89,25.37,4.75,16.33,12.81,22.82,26.6,20.46,16.41-2.8,32.65-6.55,49.08-9.25,30.22-4.97,60.39-10.51,90.8-13.91,42.59-4.77,85.21-2.47,127.54,4.01,31.63,4.84,62.94,11.1,92.76,23.36,32.41,13.33,58,35.04,78.25,63.23,14.82,20.63,22.73,43.61,21.06,69.35-.73,11.3-1.78,22.58-2.57,33.87-.41,5.83-.58,11.67-.93,19.06ZM326.01,536.54c.37-6.77.72-10.39.75-14,.33-54.24-7.12-107.47-21.37-159.73-11.94-43.8-28.87-85.68-50.29-125.72-11.41-21.32-25.26-40.75-44.5-55.77-14.64-11.43-27.07-12.09-42.02-1.37-20.18,14.48-33.51,34.23-39.79,58.14-5.06,19.25,4.46,35.7,23.16,42.78,2.49.94,5,1.84,7.57,2.53,21.65,5.83,40.29,17.06,57.13,31.6,30.19,26.06,53.24,57.47,70.45,93.33,15.97,33.26,25.55,68.46,31.92,104.62,1.24,7.06,1.9,14.21,7,23.59ZM414.84,356.46c.31-4.06.99-7.7.8-11.28-1.34-24.7-6.39-48.81-13.04-72.52-10.3-36.69-24.59-71.69-46.45-103.23-10.29-14.85-22.41-27.99-36.14-39.76-7.7-6.6-15.27-6.8-23.84-2.19-14.76,7.94-25.15,19.8-30.47,35.48-7.71,22.71-3.29,40.17,14.77,52.86,18.46,12.98,35.69,27.8,52.86,42.51,29.05,24.87,53.55,53.61,71.81,87.44,2.05,3.8,3.04,8.8,9.71,10.69ZM511.6,287.62c1.33-4.24,2.08-5.47,2.05-6.67-.91-35.59-7.24-70-23.5-102-9.99-19.64-22.62-37.58-37.79-53.57-12.84-13.55-28.4-21.71-47.54-21.7-16.18,0-23.64,4.98-27.24,20.48-2.69,11.59-3.82,23.57-5.1,35.43-.61,5.68,2.32,10.28,7.32,13.19,2.86,1.67,5.88,3.07,8.87,4.5,40.86,19.61,74.65,48.18,103.72,82.54,6.71,7.93,11.91,17.12,19.22,27.8ZM18.94,287.76c.22,15.5,5.89,23.4,13.24,30.24,21.94,20.39,48.5,28.96,77.96,29.85,5.47.16,10.69-.85,14.76-4.7,3.84-3.64,7.23-7.73,6.34-15.01-4.41.64-8.84.95-13.09,1.96-34.24,8.13-62.64-2.1-86.29-27.29-3.56-3.8-6.8-7.9-12.92-15.04ZM304.62,252.01c-17.4-17.31-21.01-19.9-32.21-23.54,4.96,17.27,14.51,34.24,20.64,34.65,3.09-2.97,6.77-6.5,11.57-11.11ZM183.08,494.59c0-11.25.03-22.5-.09-33.75,0-.61-1.33-1.2-3.22-2.78-.87,13.18-5.34,25.17,3.31,36.53Z"/>
  </g>
</svg>