<?xml version="1.0" encoding="UTF-8"?>
<svg id="Layer_2" data-name="Layer 2" xmlns="http://www.w3.org/2000/svg" viewBox="0 0 1490.96 1136.55">
  <defs>
    <style>
      .cls-1 {
        stroke-width: 0px;
        fill:url(#gradient);
      }
    </style>
     <linearGradient id="gradient" gradientTransform="rotate(90)">
            <stop offset="0%" stop-color="#00cea8" />
            <stop offset="100%" stop-color="#bf61ff" />
        </linearGradient>
  </defs>
  <g id="Layer_1-2" data-name="Layer 1">
    <g>
      <path class="cls-1" d="M343.47,190.76c.49-8.75,1.15-15.25,1.18-21.74.12-32.66-.09-65.32.22-97.98.08-8.6.8-17.36,2.62-25.75,5.19-23.94,20.34-38.46,44.31-43.1,8.44-1.63,17.21-2.1,25.84-2.11,210.62-.11,421.25-.11,631.87-.01,7.96,0,16.02.56,23.86,1.89,25.75,4.38,42.88,22.11,46.43,48.05,1.08,7.89,1.11,15.95,1.15,23.94.18,31.99.09,63.99.31,95.98.04,6.5-1.6,13.41,3.5,19.88,4.09.29,8.69.9,13.29.9,41.32-.02,82.64-.22,123.97-.17,8.64,0,17.43-.1,25.89,1.37,46.8,8.15,79.54,44,83.87,91.55.78,8.61.67,17.31.67,25.97-.13,203.96-.33,407.91-.41,611.87-.01,29.21-3.15,24.52,23.27,40.43,28.54,17.19,57.26,34.06,85.9,51.08,2.8,1.67,5.55,3.43,9.13,5.64.4,17.99,1.82,35.8-1.65,53.65-6.3,32.42-31.75,57.62-64.49,62.58-9.83,1.49-19.91,1.77-29.88,1.78-93.98.12-187.96.07-281.94.07-335.93,0-671.86.02-1007.79-.07-11.97,0-24.05-.19-35.9-1.68-35.67-4.49-59.51-27.83-65.1-63.06-1.46-9.2-2.41-18.5-3.2-27.79-.39-4.58-.79-9.51.49-13.78,1.1-3.66,7.74-5.07,5.01-10.86,3.57-2.89,6.92-6.11,10.75-8.61,27.36-17.81,54.83-35.46,82.24-53.2,4.47-2.89,8.93-5.84,13.19-9.02,4.48-3.34,7.14-7.82,7.17-13.61.03-6,.13-12,.13-17.99.05-204.62.08-409.25.12-613.87,0-14,.03-27.94,3.99-41.63,10.38-35.86,33.65-58.33,69.81-66.9,10.27-2.43,21.08-3.39,31.66-3.54,31.99-.45,63.98-.17,95.98-.18,6.63,0,13.27,0,22.55,0ZM733.71,193.88c-108.63,0-217.25-.02-325.88.02-23.9,0-24.22.34-24.23,24.82-.03,58.64.04,117.29.05,175.93.02,126.62.01,253.24.09,379.86,0,7.98-.01,16.05,1.09,23.92,1.28,9.08,6.77,14.19,15.91,15.4,6.57.87,13.3.82,19.95.82,208.59.04,417.18.03,625.76.01,5.33,0,10.69.06,15.98-.46,12.49-1.21,17.84-6.05,19.45-18.66,1.01-7.89.84-15.95.85-23.94.09-124.62.1-249.24.17-373.86.03-58.64.17-117.29.15-175.93,0-6.62-.3-13.31-1.27-19.85-.61-4.14-3.71-7.17-8.24-7.45-6.64-.41-13.3-.6-19.95-.6-106.63-.03-213.25-.02-319.88-.03ZM220.72,298.93c-3.77,9.52-2.5,17.57-2.51,25.44-.08,180-.06,359.99-.06,539.99,0,4.67-.27,9.36.17,13.99.35,3.71,1.6,7.33,2.5,11.23,4.41.29,7.67.69,10.94.69,345.32-.14,690.64-.31,1035.95-.51.6,0,1.24-.37,1.79-.69.57-.33,1.07-.8,2.37-1.8,2.78-7.63,1.49-16.34,1.49-24.85.08-178.66.06-357.33.05-535.99,0-5.33.26-10.69-.18-15.99-.31-3.7-1.63-7.32-2.72-11.93-6.93,0-12.85-.03-18.77,0-41.97.26-83.94.52-125.92.81-.62,0-1.32.28-1.84.65-.53.37-.87.99-2.69,3.18-.14,6.15-.46,14.03-.46,21.92-.03,149.33,0,298.66-.07,447.99,0,9.99.08,20.07-1.16,29.94-3.23,25.78-18.62,42.73-44.03,47.81-11,2.2-22.47,2.87-33.72,2.89-172.66.17-345.33.14-517.99.09-35.33-.01-70.66-.34-106-.48-14.13-.06-27.98-1.8-40.97-7.59-15.61-6.96-25.98-18.8-29.13-35.68-1.94-10.4-2.78-21.15-2.79-31.74-.16-150-.1-299.99-.1-449.99,0-6,.24-12.02-.15-17.99-.24-3.72-1.44-7.38-2.27-11.38h-121.76ZM197.82,909.36c-2.49-21.03-2.21-615.09.15-630.54,6.01-4,12.86-2.52,19.38-2.55,35.99-.15,71.98,0,107.96-.16,5.76-.03,11.98,1.47,18.42-3.67,1.08-15.06.45-30.96.35-46.83-.02-3.69-1.56-7.36-2.57-11.8-6.88,0-12.85,0-18.82,0-32.66,0-65.31,0-97.97.02-4,0-8-.05-11.99.15-39,1.97-67.08,29.48-69.94,68.64-.49,6.64-.45,13.32-.46,19.98-.08,203.93-.14,407.87-.18,611.8,0,6.66.06,13.33.46,19.98.19,3.14,1.25,6.24,1.89,9.22,2.85.76,4.72,1.7,6.59,1.7,396.53.05,793.07.04,1189.6-.04,1.86,0,3.72-1.01,6.31-1.77,3.09-8.16,2.38-16.82,2.39-25.33.04-205.27.05-410.53-.03-615.8,0-9.31-.07-18.76-1.61-27.9-4.45-26.31-19.33-44.83-43.99-55.19-9.31-3.91-19.16-5.46-29.29-5.45-47.32.05-94.64,0-141.95.1-3.09,0-6.18,1.02-10.39,1.76-.19,10.82-.78,20.73-.4,30.61.37,9.68-2.42,19.84,3.59,30.3h21.67c42.65,0,85.31-.07,127.96.08,6.42.02,13.3-1.66,18.89,2.65,3,21.89,4.33,495.33,1.78,617.98-.08,3.85-.56,7.69-.92,12.4-4.14.59-7.28,1.31-10.45,1.44-59.74,2.34-1068.56.77-1086.42-1.79ZM1465.68,1040.19c-9.21-2.65-17.88-1.59-26.39-1.59-462.39-.05-924.77-.05-1387.16-.05-5.33,0-10.68-.25-15.98.12-3.79.26-7.51,1.36-11.26,2.08-2.28,13.07-.52,24.85,3.36,36.31,5.97,17.62,17.61,29.9,36.07,33.95,9.64,2.11,19.74,2.99,29.64,2.99,434.4.14,868.81.12,1303.21.1,5.99,0,12.04.15,17.96-.55,26.19-3.1,45.43-19.52,51.21-43.75,2.18-9.14,2.55-18.44-.66-29.62ZM1081.02,152.52c.49-2.2,1.53-4.7,1.54-7.2.1-26.63.08-53.27-.02-79.9-.01-3.31-.4-6.65-.98-9.91-1.58-8.84-6.99-14.33-15.72-15.89-5.2-.93-10.6-.99-15.9-.99-211.08-.04-422.16-.04-633.23-.02-4.65,0-9.36-.09-13.95.56-11,1.56-16.67,7.18-18.39,17.88-.52,3.27-.61,6.63-.62,9.95-.04,24.64-.07,49.27.05,73.91.02,3.83.8,7.66,1.35,12.48,5.45.51,9.92,1.21,14.39,1.3,150.79,2.92,661.73,1.36,681.47-2.17Z"/>
      <path class="cls-1" d="M480.42,716.38c25,2.62,47.56,1.05,70.06,1.34,22,.28,44,.06,66,.06h335.98c22.62,0,45.24,0,68.25,0,5.11,12.49,2.51,24.25,2.07,36.74-4.11.85-7.84,1.97-11.64,2.3-4.63.4-9.32.14-13.99.14-170.66,0-341.31.02-511.97-.05-8.64,0-17.37-.13-25.88-1.4-10.87-1.63-14.84-6.21-16.16-17.16-.72-5.93-.7-11.97-.7-17.96-.04-148.66-.03-297.32-.03-445.97,0-5.94,0-11.89,0-18.26,12.43-5.02,23.97-3.13,35.82-1.98,3.52,7.66,2.11,15.08,2.13,22.22.14,54,.08,107.99.08,161.99v253.98c0,7.28,0,14.57,0,24.02Z"/>
      <path class="cls-1" d="M794,406c6.51.7,13.17,1.01,19.68,2.21,8.71,1.6,14.32,6.96,15.66,15.92.78,5.24,1.24,10.59,1.26,15.89.11,42.66.11,85.31.07,127.97-.02,26.06-4.8,33.86-32.04,34.25-1.29.02-2.58.58-5.16,1.21-.58,3.9-1.67,8.26-1.79,12.66-.38,13.21-.38,26.42-.52,39.22-15.05,4.05-18.44,4.15-37.11,1.19-4.17-17.1.72-35.28-3.05-53.5-6.37-.56-12.25-.74-18.02-1.66-12.36-1.98-17.39-7.37-18.67-19.64-.41-3.97-.37-7.99-.37-11.98-.03-43.32-.03-86.64-.03-129.97,0-3.33-.06-6.68.18-9.99,1.13-15.62,6.11-20.72,22.19-22.67,4.52-.55,9.08-.82,14.23-1.27,2.75-17.09,1.03-33.71,1.34-50.23.31-16.66-.03-33.33.1-49.99.12-16.52-.57-33.08.54-50.18,12.89-3.65,24.62-1.34,37.51-1.77.6,6.37,1.49,11.49,1.51,16.61.12,38.66,0,77.32.14,115.97.03,6.52-1.52,13.35,2.35,19.77ZM755.53,447.17c-2.63,13.84-4.09,85.64-2.31,106.66.21,2.44,1.56,4.79,2.5,7.53,5.81.25,11.06.74,16.31.64,5.77-.1,11.52-.73,17.75-1.16.62-3.66,1.41-6.18,1.41-8.7.09-31.79.13-63.58-.03-95.37-.02-3.07-1.42-6.14-2.29-9.61h-33.34Z"/>
      <path class="cls-1" d="M926.12,544.25c-8.21-.74-14.18-1.01-20.07-1.86-10.42-1.5-15.43-6.2-17.24-16.43-.8-4.55-.81-9.27-.82-13.92-.06-43.93-.04-87.86-.04-131.79,0-1.33-.02-2.66.02-3.99.69-20.37,5.35-25.06,26.32-26.57,2.64-.19,5.27-.5,7.89-.82.63-.08,1.23-.44,2.99-1.1.53-3.88,1.62-8.33,1.66-12.79.19-20.63.03-41.27.14-61.9.03-5.83.56-11.67.9-18.46,12.12-2.11,23.11-1.65,35.27-.36.66,4.82,1.75,9.22,1.79,13.63.2,19.3.1,38.6.1,57.91,0,6.58,0,13.16,0,20.79,5.46,1.21,9.73,2.61,14.09,3.05,21.44,2.13,24.87,5.46,25.13,27.3.3,24.62.08,49.25.09,73.88,0,19.97.07,39.94,0,59.9-.02,5.31.03,10.7-.74,15.93-1.34,9.05-6.56,14.29-15.59,15.69-5.87.91-11.87.96-17.41,1.36-5.36,4.3-4.14,9.96-4.16,15.11-.13,25.96-.01,51.92-.11,77.88-.03,6.53-.53,13.06-.85,20.15-12.77,3-24.32,1.98-37.04,1.06-2.06-13.57-.93-26.13-1.13-38.6-.19-11.98.12-23.96-.09-35.94-.22-12.49.97-25.08-1.13-39.1ZM963.75,501.28c2.43-25.35.72-51.12,1.02-76.81.13-11.1,1.17-22.35-1.33-34.27-11.76-1.89-22.62-2.19-33.28.08-3.41,16.9-3.4,95.35-.19,111.26,15.67,3.2,16.57,3.2,33.78-.26Z"/>
      <path class="cls-1" d="M579.72,656.24c-2.61-24.74-.87-49.91-1.21-74.99-.32-24.57.07-49.15-.21-74.74-7.92-.95-14.43-1.45-20.84-2.56-12.14-2.1-16.92-7.63-17.79-20.25-.28-3.98-.15-7.99-.15-11.99,0-43.31-.06-86.63.03-129.94.06-26.63,3.11-29.76,29.31-31.37,1.96-.12,3.89-.59,7.19-1.11.7-4.12,1.98-8.43,2.07-12.76.28-13.27.1-26.56.1-40.13,12.52-5.11,24.12-2.81,36.58-2.1,3.84,18.33-.25,36.41,2.85,54.97,6.51.53,12.34.8,18.11,1.53,12.99,1.64,18.86,7.82,19.75,20.76.32,4.64.15,9.33.15,13.99.01,41.31.02,82.63.02,123.94,0,3.33.06,6.67-.05,9.99-.61,17.41-5.17,22.64-21.95,24.97-4.51.63-9.08.84-14.95,1.36-.51,6.57-1.34,12.33-1.35,18.1-.12,36.65-.04,73.3-.09,109.95,0,7.25-.31,14.49-.46,21.37-14.67,4.21-17.31,4.27-37.11,1ZM578.77,351c0,20.72-.37,39.29.1,57.85.47,18.34-2.14,36.89,2.05,55.97,12.03.21,23.06,2.75,35.12-2.32,0-18.75.29-37.35-.08-55.93-.36-18.37,1.67-36.9-1.69-56.44-7.15,0-13.07-.09-18.98.03-4.55.09-9.1.45-16.52.84Z"/>
      <path class="cls-1" d="M501.82,113.86c-1.26-12.26-1.7-22.55.37-33.87,11.39-2.78,22.34-1.65,33.81-.79,5.7,10.74,1.72,21.78,3.06,33.27-12.56,4.31-24.01,2.92-37.24,1.39Z"/>
      <path class="cls-1" d="M616,114.66h-34.5c-3.91-11.39-2.07-22.36-1.33-33.99,11.18-4.17,22.11-2.06,33.82-1.54,3.94,11.41,1.44,22.38,2.02,35.52Z"/>
      <path class="cls-1" d="M460.03,114.36c-12.56,1.81-23.36,2.06-35.13-.13-2.2-11.54-1.66-22.38-.34-34.17,11.33-3.25,22.19-1.75,33.88-1.09,4,11.28,1.85,22.26,1.59,35.39Z"/>
    </g>
  </g>
</svg>