<?xml version="1.0" encoding="UTF-8"?>
<svg id="Layer_2" data-name="Layer 2" xmlns="http://www.w3.org/2000/svg" viewBox="0 0 924.91 1163.91">
  <defs>
    <style>
      .cls-1 {
        stroke-width: 0px;
        fill:url(#gradient);
      }
    </style>
     <linearGradient id="gradient" gradientTransform="rotate(90)">
            <stop offset="0%" stop-color="#00cea8" />
            <stop offset="100%" stop-color="#bf61ff" />
        </linearGradient>
  </defs>
  <g id="Layer_1-2" data-name="Layer 1">
    <g>
      <path class="cls-1" d="M840.76,582.73c0,143.28,0,286.55-.02,429.83,0,7.99.21,16.04-.57,23.97-2.5,25.41-18.83,41.14-44.34,43.06-5.3.4-10.66.18-15.99.18-209.25.13-418.5.26-627.75.36-7.32,0-14.73.23-21.96-.7-26.75-3.43-43.17-20.54-45.86-47.4-.53-5.29-.44-10.65-.44-15.98.08-290.55.17-581.1.4-871.65,0-8.58.45-17.42,2.5-25.69,4.98-20.07,19-31.82,39.51-34.09,6.59-.73,13.31-.48,19.97-.48,79.97-.02,159.94-.16,239.9.17,13.17.05,24.12-2.48,34.91-11.09,23.24-18.54,53.36-18.85,78.34-2.8,2.8,1.8,5.49,3.79,8.03,5.94,7,5.91,15.06,7.8,24.1,7.7,20.66-.24,41.32,0,61.97.01,61.31.03,122.62,0,183.93.12,7.98.01,16.09-.06,23.9,1.27,23.89,4.07,36.3,17.49,38.75,41.5.81,7.93.69,15.97.69,23.96.04,113.29.03,226.58.03,339.86,0,30.65,0,61.31,0,91.96ZM391.91,119.44c-5.35-.42-9.27-1-13.2-1-78.64-.05-157.28-.06-235.92,0-4.64,0-9.31.39-13.92,1-5.13.69-8.7,3.76-9.27,8.97-.8,7.26-1.33,14.6-1.33,21.9-.06,287.91-.06,575.81-.03,863.72,0,5.99.06,12.02.74,17.96,1.04,9.1,3.67,11.77,12.36,12.83,5.27.64,10.63.75,15.96.75,209.93.04,419.86.04,629.8,0,5.98,0,12.01-.2,17.94-.95,7.29-.93,10.62-4.1,11.48-11.59.83-7.25.83-14.62.83-21.93.04-285.91.03-571.82.03-857.72,0-5.33.34-10.7-.2-15.98-.53-5.16-1.99-10.23-2.81-14.21-9.25-6.12-18.12-4.73-26.66-4.74-62.65-.1-125.29-.06-187.94-.05-15.99,0-31.99-.09-47.98.19-3.72.07-7.42,1.48-11.54,2.36-.75,6.28-.8,11.67-2.15,16.7-2.05,7.66-3.98,15.64-7.75,22.5-13.08,23.8-34.43,35.3-60.89,34.98-27.12-.33-46.56-14.48-57.54-39.35-2.93-6.63-4.4-13.92-6.36-20.95-1.24-4.45-2.14-9-3.64-15.37ZM461.67,93.01c-18.67-.14-33.96,15.49-33.76,34.51.2,18.52,14.21,32.76,32.64,33.17,19.24.43,34.71-14.18,35.01-33.05.29-18.63-15.23-34.49-33.89-34.63Z"/>
      <path class="cls-1" d="M463.18.04c129.3,0,258.6-.06,387.9.12,10.57.02,21.44.49,31.65,2.93,24.41,5.83,38.66,22.96,41.38,47.86.65,5.94.67,11.98.67,17.97.05,193.29.07,386.57.05,579.86,0,5.98,0,12.05-.91,17.93-1.24,7.98-7.42,12.86-15.26,13.13-8.72.3-15.49-4.85-16.56-13.88-.94-7.9-.83-15.96-.83-23.95-.04-187.29-.03-374.58-.04-561.86,0-6.66.28-13.36-.28-19.98-1.49-17.61-8.89-24.57-26.81-25.56-5.32-.3-10.66-.11-15.99-.11-255.27,0-510.54,0-765.81.03-8.66,0-17.37-.09-25.95.81-14.53,1.52-19.64,6.75-21.1,21.69-.91,9.26-.88,18.63-.88,27.95-.05,184.62-.01,369.24-.11,553.86,0,9.29-.14,18.75-1.87,27.82-2.2,11.52-16.23,16.24-25.04,8.66-3.23-2.78-5.41-7.51-6.57-11.76-1.2-4.38-.71-9.25-.71-13.91C.06,456.38,0,263.1.19,69.81c0-9.88,1.17-20,3.5-29.59C8.3,21.2,20.67,8.53,39.72,3.89,49.94,1.39,60.73.26,71.28.21,135.26-.12,199.25.04,263.23.04c66.65,0,133.3,0,199.95,0Z"/>
      <path class="cls-1" d="M463.14,1163.86c-129.97,0-259.95.07-389.92-.14-10.56-.02-21.35-.92-31.63-3.22-20.74-4.65-33.91-18.11-38.48-38.84-2.12-9.64-2.88-19.76-2.91-29.66-.23-85.31-.16-170.63-.17-255.95,0-27.33,0-54.66.06-81.98.01-4.66-.12-9.38.56-13.96,1.35-9.07,7.7-14.83,15.91-15.13,8.28-.3,15.15,5.03,16.47,14.13,1.14,7.87,1.28,15.92,1.28,23.9.08,105.98.04,211.96.08,317.93,0,8.66-.13,17.37.73,25.96,1.48,14.82,8.15,20.96,23.27,22.16,5.3.42,10.66.25,15.99.25,256.61,0,513.23.01,769.84-.02,7.99,0,16.03.05,23.97-.69,14.42-1.34,19.94-6.48,22.02-21.09,1.12-7.87,1-15.95,1.01-23.93.06-99.98.04-199.96.04-299.94,0-10.66-.12-21.33.13-31.99.11-4.63.54-9.36,1.7-13.82,1.85-7.09,7.61-11.14,14.67-11.26,7.15-.12,13.26,3.75,15.09,10.68,1.34,5.09,1.82,10.51,1.9,15.79.25,15.33.13,30.66.13,45.99-.01,96.65-.03,193.29-.08,289.94,0,7.33.13,14.69-.55,21.98-2.76,29.9-23.35,50.24-53.22,52.62-6.63.53-13.32.28-19.99.28-129.31.01-258.61,0-387.92,0Z"/>
      <path class="cls-1" d="M566.5,270.88c-7.82,1.87-12.3,2.59-16.54,4.01-42.33,14.11-84.62,28.33-126.92,42.54-2.53.85-4.99,1.89-7.51,2.74-6.41,2.15-9.84,6.64-10.17,13.32-.24,4.66-.17,9.33-.16,13.99.05,34.66-.09,69.32.28,103.98.14,13.27,1.46,26.54,2.25,39.8.08,1.33.32,2.65.36,3.98.35,10.68-4.03,16.38-14.52,17.94-5.24.78-10.62.55-15.95.77-3.99.16-7.99.22-11.97.53-1.25.1-2.46.87-5.12,1.87-.48,4.36-1.49,9.42-1.52,14.48-.18,31.99-.01,63.99-.25,95.98-.06,7.96-.38,16.07-1.95,23.83-4.77,23.56-24.39,39.02-48.75,39.21-23.97.19-42.37-13.52-48.15-37-2.21-8.96-3.13-18.41-3.27-27.66-.44-29.32-.23-58.65-.26-87.98,0-7.28,0-14.56,0-19.57-5.63-9.42-13.75-9.45-20.32-12.11-33.75-13.67-56.11-37.54-65.76-72.77-18.59-67.86,28.02-133.49,98-137.19,28.59-1.51,57.3-1.37,85.95-1.15,20.91.16,40.85-2.89,60.69-9.95,44.54-15.85,89.5-30.53,134.29-45.66,5.68-1.92,11.29-4.19,17.12-5.45,18.95-4.1,31.49,4.85,33.77,23.85.48,3.95.44,7.98.44,11.98.02,89.98.03,179.97-.01,269.95,0,4.65,0,9.39-.78,13.95-2.71,15.94-14.34,24.41-30.1,21.87-5.23-.84-10.36-2.51-15.4-4.21-27.14-9.12-54.26-18.32-81.35-27.6-4.39-1.51-8.81-3.17-12.84-5.44-8.12-4.56-10.89-11.82-8.32-20.25,2.24-7.34,8.1-11.15,17.23-10.17,5.23.56,10.42,2.1,15.45,3.75,22.15,7.25,44.22,14.73,66.35,22.06,3.74,1.24,7.57,2.19,10.82,3.13,6.17-3.07,4.77-8.26,4.79-12.63.14-33.33.09-66.65.09-99.98,0-43.33,0-86.65,0-129.98v-22.75ZM371.14,331.96c-3.76-1.71-4.93-2.7-6.1-2.71-31.89-.14-63.84-1.39-95.67.07-35.04,1.61-61.01,25.44-67.78,59.85-9.06,46.07,24.47,86.24,62.34,88.03,8.62.41,17.21,1.92,25.82,2.04,23.26.33,46.53.23,69.8.16,3.15,0,6.29-.83,9.9-1.33.68-3.43,1.61-5.93,1.61-8.44.09-45.81.06-91.62.06-137.68ZM292.88,514.5c-.85,3.65-1.68,5.57-1.68,7.49-.12,37.25-.15,74.5-.14,111.75,0,2.65.23,5.34.74,7.93,1.75,8.93,8.25,14.33,16.63,14.02,7.57-.28,13.58-5.42,15.13-13.38.63-3.23.72-6.61.72-9.93.03-35.92.04-71.84-.09-107.77-.01-3.11-1.01-6.21-1.59-9.5-10.21-2.55-19.26-2.01-29.71-.62Z"/>
      <path class="cls-1" d="M463.49,900.07c84.64,0,169.28-.01,253.93.02,5.99,0,12.06-.21,17.94.7,8.61,1.33,14.94,8.66,15.1,16.24.17,8.02-5.4,14.64-14.63,16.37-5.19.97-10.59,1.12-15.89,1.12-171.95.04-343.9.02-515.85-.06-5.3,0-10.7-.23-15.86-1.32-8.43-1.77-12.46-7.23-12.59-15.61-.12-8.03,4.14-14.45,12.08-16.15,5.78-1.24,11.89-1.26,17.85-1.27,49.32-.09,98.64-.05,147.96-.05,36.66,0,73.31,0,109.97,0Z"/>
      <path class="cls-1" d="M463.24,792.67c84.65,0,169.31,0,253.96,0,4.67,0,9.36-.32,13.99.09,7.37.65,15.56,7.81,17.34,14.6,1.89,7.18-5.05,17.32-13.94,19.17-5.15,1.07-10.6.84-15.92.85-31.33.08-62.66.06-93.99.06-137.98.01-275.96.05-413.94-.07-7.91,0-15.97-.61-23.68-2.27-7.09-1.53-11.18-6.87-11.48-14.52-.29-7.54,2.9-12.94,10.04-15.49,3.69-1.32,7.73-1.98,11.65-2.26,5.31-.39,10.66-.15,15.99-.15,83.32,0,166.64,0,249.97,0Z"/>
      <path class="cls-1" d="M694.86,420.33c-9.93,0-19.87.07-29.8-.03-5.58-.06-10.3-2.19-13.86-6.6-6.56-8.11-3.25-21.1,6.65-24.78,3.63-1.35,7.77-1.8,11.69-1.84,17.22-.2,34.44-.17,51.66-.07,3.29.02,6.67.3,9.85,1.09,7.27,1.8,12.57,8.85,12.46,15.98-.1,7.21-5.46,14.14-12.95,15.51-5.16.94-10.54.82-15.82.93-6.62.14-13.25.03-19.87.03,0-.08,0-.15,0-.23Z"/>
      <path class="cls-1" d="M672.56,473.67c5.75,3.23,11.26,5.55,15.85,9.07,12.15,9.32,23.95,19.1,35.78,28.83,2.55,2.1,4.97,4.5,6.89,7.17,4.55,6.33,4,14.25-1.02,20.24-4.28,5.12-11.62,7.16-18.12,4.55-3.04-1.22-5.95-3.04-8.52-5.08-12.51-9.95-24.93-20.01-37.27-30.18-2.54-2.09-4.86-4.58-6.81-7.24-4.01-5.47-4-11.17.66-16.44,3.41-3.85,7.79-6.85,12.56-10.93Z"/>
      <path class="cls-1" d="M734.98,281.68c-1.82,2.79-3.58,7.37-6.86,10.16-14.61,12.42-29.43,24.61-44.62,36.29-7.78,5.98-13.64,5.31-19.57-.29-5.79-5.46-7.2-14.76-3.14-21.81.97-1.69,2.25-3.34,3.74-4.57,14.29-11.76,28.25-23.98,43.13-34.93,10.67-7.85,22.64-2.84,26.42,9.72.37,1.24.44,2.58.91,5.42Z"/>
    </g>
  </g>
</svg>