<?xml version="1.0" encoding="UTF-8"?>
<svg id="Layer_2" data-name="Layer 2" xmlns="http://www.w3.org/2000/svg" viewBox="0 0 1430.65 945.39">
  <defs>
    <style>
      .cls-1 {
        stroke-width: 0px;
        fill:url(#gradient);
      }
    </style>
     <linearGradient id="gradient" gradientTransform="rotate(90)">
            <stop offset="0%" stop-color="#00cea8" />
            <stop offset="100%" stop-color="#bf61ff" />
        </linearGradient>
  </defs>
  <g id="Layer_1-2" data-name="Layer 1">
    <g>
      <path class="cls-1" d="M1429.17,830.9c2.01,17.3,1.97,33.97-.12,50.47-3.72,29.34-26.47,53.75-56.2,60.75-7.73,1.82-15.79,2.32-23.73,3.05-4.63.42-9.32.1-13.99.1-411.92,0-823.84.02-1235.76-.09-11.94,0-24.06-.41-35.8-2.38-36.02-6.05-60.5-33.56-62.65-70.02-.73-12.36-3.22-25.28,5.28-36.43-1.12-5.71,2.67-8.31,6.74-10.85,24.85-15.54,48.95-32.45,74.71-46.3,21.93-11.79,30.79-27.75,27.24-51.99-1.44-9.83-1.16-19.95-1.16-29.94-.14-183.3-.2-366.59-.31-549.89,0-12.68.27-25.22,3.5-37.68,10.27-39.72,40.69-67.1,81.34-72.21,7.9-.99,15.94-1.26,23.91-1.24,52.65.1,105.3.37,157.96.58,2,0,4-.04,6-.07,10.02-.14,17.25-4.33,23.4-12.67,14.23-19.29,17.74-20.02,33.95-4.01,13,12.84,27.59,16.48,45.14,16.44,131.31-.31,262.61-.05,393.92.02,35.99.02,71.99.14,107.98-.06,31.09-.17,31.09-.34,52.46-21.85,2.82-2.84,5.48-5.85,8.46-8.5,9.15-8.16,14.88-8.19,24.3.27,5.45,4.89,10.69,10.07,15.53,15.56,9,10.18,19.94,14.58,33.6,14.4,27.32-.37,54.65.03,81.98.24,7.99.06,16.01.15,23.96.86,49.04,4.38,83.35,39.78,86.27,88.96.47,7.97.24,15.99.24,23.99-.05,193.3-.11,386.59-.17,579.89,0,6.66.02,13.33.19,19.99.24,9.43,4.69,16.5,12.59,21.42,3.95,2.46,8.1,4.62,12.12,6.97,24.72,14.48,49.46,28.93,74.12,43.51,4.53,2.68,8.76,5.87,13.03,8.76ZM1220.96,705.77c2.23-7.68,1.35-15.67,1.36-23.52.05-171.97.04-343.94.04-515.91,0-4.67.21-9.35-.12-13.99-.27-3.77-1.19-7.5-1.79-11.03-3.06-.86-4.94-1.85-6.82-1.85-57.32-.09-114.65-.04-171.97-.11-8.55,0-15.46,3.23-21.31,9.28-3.71,3.83-7.55,7.53-11.38,11.24-31.15,30.09-62.33,60.15-93.42,90.31-1.3,1.26-1.81,3.34-2.58,4.85.96,1.46,1.43,2.86,2.41,3.55,9.78,6.94,19.54,13.92,29.49,20.6,66.46,44.55,131.55,90.98,193.83,141.25,5.64,4.55,10.78,9.81,15.64,15.2,1.99,2.21,3.7,5.63.63,8.49-12.72-1.11-25.22-3.32-37.69-3.1-46.64.85-93.26,2.56-139.9,3.82-35.98.97-71.97,1.58-107.94,2.66-73.94,2.22-147.88,4.32-221.8,7.19-23.91.93-47.87,3.2-71.55,6.63-16.89,2.45-31.77,1.3-44.49-11.02-.95-.92-2.13-1.59-3.22-2.37-83.44-59.76-166.87-119.51-250.31-179.26-7.04-5.04-14.17-9.97-21.18-15.06-4.89-3.55-9.54-7.36-10.58-14.46,4.05-5.33,9.34-8.78,16.6-8.8,5.33-.01,10.66-.08,16-.08,28.66,0,57.32.18,85.98-.08,13.26-.12,26.54-.87,40.17-4.92-1.24-4.45-2.08-8.26-3.35-11.93-6.76-19.51-13.57-39-20.47-58.45-5.07-14.28-6.61-15.64-21.55-15.69-45.33-.15-90.65-.08-135.98.11-4.43.02-8.86,1.45-12.94,2.16-2.2,17.58-3.51,502.31-1.57,554.89.12,3.19.86,6.35,1.36,9.89,3.3.68,5.82,1.64,8.33,1.64,331.94.02,663.88-.03,995.82-.15,1.82,0,3.63-1.12,6.25-1.99ZM1055.58,118.66c8.3,0,14.87,0,21.45,0,46.67-.06,93.33-.09,140-.21q27.52-.07,27.53,27.85c-.07,185.33-.14,370.66-.21,555.99,0,4.67.3,9.37-.18,13.99-.39,3.74-1.76,7.37-2.93,12.02-8.71.14-16.63.37-24.55.37-334,.02-667.99.02-1001.99.01-4.67,0-9.36.25-13.99-.13-3.76-.31-7.45-1.41-12.19-2.36-.15-8.74-.41-16.66-.41-24.57-.02-185.33-.02-370.66-.02-555.99,0-4.67-.18-9.35.11-14,.23-3.79,1.04-7.54,1.72-12.23,7.6-.29,14.14-.74,20.68-.76,46.67-.11,93.33-.07,140-.25,7.2-.03,14.71,1.37,21.34-2.69,6.52-7.87,5.7-17.78,7.59-26.73,1.98-9.39,4.96-18.98,3.2-29.76-6.17-.27-11.42-.71-16.66-.71-50.67-.05-101.33-.03-152,0-4.66,0-9.36-.05-13.98.44-30.74,3.24-54.59,23.07-61.35,52.04-2.09,8.96-2.3,18.51-2.31,27.8-.16,199.33-.16,398.66-.19,597.99,0,3.33-.1,6.67.09,10,.64,11.45,3.25,14.4,14.08,15.09,6.64.42,13.33.21,19.99.2,363.99-.08,727.99-.17,1091.98-.27,6.67,0,13.34.11,20-.16,3.24-.13,6.45-1.04,9.21-1.52,6.17-8.33,4.18-17.29,4.18-25.76.1-175.33.06-350.66.05-525.99,0-21.33.04-42.67-.08-64-.04-6.65-.47-13.31-.91-19.95-2.21-33.4-25.41-64.07-70.08-65.62-33.29-1.15-66.66-.13-99.99-.27-9.21-.04-17,2.96-23.43,9.37-14.63,14.58-29.18,29.25-43.67,43.98-.78.79-.77,2.37-2.07,6.79ZM25.61,852c-1.05,1.97-2.96,4.15-3.41,6.59-4.7,25.55,9.39,49.85,33.77,58.85,12.12,4.47,24.66,4.93,37.4,4.93,415.81.07,831.62.23,1247.43.35,6.66,0,13.34-.04,19.97-.54,10.25-.77,19.35-4.74,27.28-11.24,18.92-15.52,23.75-35.57,19.59-59.83-6.02-.42-11.19-1.05-16.36-1.11-245.27-2.86-1346.02-1.29-1365.68,2ZM1113.27,425.49c-3.93-7.83-9.63-11.29-14.69-15.11-43-32.53-85.87-65.24-129.25-97.25-21.41-15.8-43.88-30.16-65.74-45.36-9.01-6.26-17.93-7.37-28.12-2.62-11.44,5.33-23.34,9.69-35.05,14.44-2.98,1.21-6.01,3.21-9.04-.12,2.5-14.16,11.14-26.55,13.33-41.62-3.66-.76-6.17-1.76-8.67-1.73-38.61.5-77.22,1.29-115.83,1.63-9.55.09-16.96,3.95-22.33,11.11-7.96,10.63-16.22,21.27-22.44,32.93-25.65,48.07-16.16,107.07,22.23,145.57,10.06,10.08,21.15,15.44,35.7,13.81,11.89-1.33,23.91-1.71,35.88-2.11,93.14-3.13,186.29-6.15,279.44-9.23,15.3-.51,30.61-1.06,45.89-1.88,5.69-.31,11.34-1.46,18.68-2.46ZM427.32,18.49c-13.9,12.33-20.87,26.8-28.14,40.95-12.71,24.73-16.31,50.43-7.32,77.34,7.39,22.1,14.7,44.22,21.62,66.47,3.29,10.58,9.02,18.65,18.06,25.32,69.16,51.04,138.07,102.42,207.12,153.61,3.01,2.23,5.69,5.78,11.65,4.17,0-2.12.15-4.54-.03-6.93-.65-8.64-1.65-17.25-2.1-25.9-1.97-37.8,6.65-72.71,28.77-103.87,2.31-3.25,4.39-6.68,6.33-10.16,2.52-4.54,2.17-9.1-1.22-13.01-3.04-3.51-6.29-6.91-9.84-9.88-13.28-11.12-26.32-22.6-40.18-32.95-64.12-47.87-125.05-99.68-186.74-150.54-5.63-4.65-11.33-9.22-17.97-14.61ZM293.24,250.44c1.15,2.31,1.74,5.03,3.42,6.54,4.93,4.45,10.12,8.66,15.51,12.54,43.77,31.54,87.61,63,131.43,94.47,29.76,21.37,59.63,42.59,89.24,64.16,12.94,9.43,26.81,13.8,42.97,12.76,14.59-.94,29.3-.37,43.95-.19,19.98.25,39.96.87,59.94,1.05,2.77.03,5.56-1.52,11.03-3.14-11.04-7.6-19.94-13.26-28.33-19.58-68.65-51.68-138.33-102.02-204.03-157.51-5.09-4.3-10.38-8.36-15.49-12.62-6.05-5.05-12.72-7.27-20.39-4.44-12.83,4.72-26.14,4.53-39.48,4.19-23.97-.61-47.94-1.34-71.92-1.77-5.73-.1-11.92-1.56-17.85,3.53ZM993.66,59.9c-7.49-.28-13.89-.73-20.29-.74-150.66-.04-301.33-.03-451.99-.03-4.67,0-9.35-.16-13.99.13-2.31.15-4.56,1.17-6.87,1.81.57,1.89.55,2.8.98,3.12,22.33,16.79,44.57,33.69,67.18,50.11,3.49,2.54,8.56,3.31,13.04,3.98,4.57.68,9.31.26,13.98.26,107.33,0,214.66,0,321.99,0,4,0,8.01-.22,12-.01,6.48.35,11.46-2.26,15.93-6.77,15.01-15.15,30.2-30.13,45.2-45.28,1.18-1.2,1.46-3.29,2.84-6.58ZM914.32,142.3c-5.85-.79-8.97-1.58-12.08-1.58-97.05.14-194.1.35-291.16.66-.94,0-1.87,1.48-2.85,2.31.09,4.61,4.01,6.39,6.86,8.77,21.94,18.33,44.38,36.08,65.83,54.96,11.95,10.51,25.06,13.8,40.38,12.96,42.48-2.32,84.98-4.17,127.47-6.27,1.94-.1,3.84-.9,5.29-1.27,9-12.03,17.14-24.15,26.55-35.19,9.84-11.54,20.91-22.03,33.72-35.35ZM1048.71,49.41c-2.89,1.26-3.64,1.38-4.08,1.81-45.17,45.24-90.32,90.5-135.45,135.77-3.76,3.77-7.57,7.52-11.01,11.57-3.57,4.19-5.33,9.17-4.66,14.81.47,3.91,2.98,5.86,6.58,6.19,7.39.68,12.35-3.62,17.21-8.47,45.24-45.18,90.58-90.25,135.84-135.42,3.22-3.21,5.96-6.9,9.56-11.11-4.92-5.33-9.32-10.1-13.98-15.15ZM1062.14,10.88c-8.14,3.76-14.71,8.57-18.18,18.16,13.72,13.21,25.89,27.8,41.06,40.49,4.42-3.28,8.35-5.65,11.6-8.73,6.85-6.5,7.49-11.66.95-18.83-8.86-9.71-18.57-18.66-28.14-27.7-1.77-1.67-4.63-2.19-7.28-3.38ZM882.27,210.1c-9.37-1.38-15.21,1.45-18.43,9.32-5.26,12.83-10.63,25.63-15.81,38.49-.9,2.22-2.95,4.68.8,7.99,15.6-4.84,31.32-11.18,46.62-18.44,5.72-2.72,8.26-8.31,7.56-15.91-5.18-1.61-10.67-3.31-16.43-5.1-1.45-5.52-2.89-11-4.3-16.34ZM914.3,238.5c53.7-54.82,106.4-106.64,157.44-160.1.54-.56-.12-2.27-.24-3.62-5.99-2.89-8.28,2.6-11.2,5.5-45.41,45.1-90.71,90.31-135.93,135.59-3.73,3.73-7.08,7.97-9.89,12.43-1.09,1.73-.18,4.71-.18,10.2ZM1043.99,41.57c-10.21-.34-12.61,4.09-15.66,7.1-34.45,34.09-68.82,68.26-103.2,102.42-12.24,12.17-24.47,24.36-36.59,36.64-1.59,1.61-4.17,3.66-.11,6.65,2.9-2.28,6.25-4.4,8.99-7.12,47.94-47.57,95.81-95.21,146.57-145.7Z"/>
      <path class="cls-1" d="M852.16,672.91c-67.18-2.33-137.08-4.71-206.97-7.18-32.62-1.16-65.22-2.76-97.84-3.63-15.14-.41-28.47-4.56-41.16-13.01-85.93-57.19-172.09-114.03-258.13-171.05-4.41-2.92-8.78-6.11-12.45-9.88-4.33-4.44-4.06-11.81-.27-16.56,3.43-4.3,9.23-6.19,14.37-3.52,7.07,3.67,13.9,7.89,20.47,12.39,75.85,51.9,151.8,103.66,227.36,155.98,37.88,26.23,40.79,25.51,79.14,26.88,79.21,2.83,158.39,6.65,237.61,9.38,28.6.98,57.29.57,85.91-.2,89.89-2.44,179.77-5.35,269.65-8.06,3.32-.1,6.67-.14,9.96.2,4.11.42,7.9,4.38,7.68,7.86-.29,4.62-3.35,7.35-7.44,8.19-4.52.92-9.23.95-13.87,1.21-19.95,1.1-39.9,2.16-59.85,3.2-30.6,1.6-61.19,3.18-91.79,4.75-21.28,1.09-42.56,2.27-63.86,3.2-31.93,1.39-63.86,3.76-98.51-.15Z"/>
      <path class="cls-1" d="M1178.02,578.07c-3.73,2.24-5.73,4.27-8.02,4.67-6.55,1.16-13.2,1.92-19.83,2.38-47.2,3.29-94.42,6.42-141.62,9.71-37.89,2.64-75.82,4.95-113.65,8.33-35.94,3.21-71.92,2.34-107.88,3.32-30.73.84-61.01-4.16-91.61-4.9-39.96-.96-79.87-4.04-119.83-5.64-13.87-.56-25.65-5.22-37.23-12.53-68.75-43.39-137.64-86.57-206.69-129.49-22.62-14.06-45.88-27.1-68.77-40.72-5.7-3.39-11.45-6.84-16.62-10.97-4.98-3.97-5.61-9.31-2.85-14.28,2.73-4.93,7.97-7.21,13.7-4.87,5.5,2.25,10.77,5.24,15.8,8.44,29.79,18.97,59.3,38.39,89.25,57.11,61.03,38.14,122.37,75.78,183.37,113.96,12.8,8.01,26.03,12.01,41.22,12.98,96.51,6.16,193.04,10.28,289.75,6.54,48.62-1.88,97.22-4.27,145.82-6.42,43.28-1.91,86.56-3.91,129.85-5.64,8.51-.34,17.53-1.46,25.86,8Z"/>
      <path class="cls-1" d="M870.5,517.65c-66.7,2.35-134.59,4.79-202.48,7.11-19.3.66-38.63.65-57.92,1.5-11.91.52-23.84,1.67-35.65,3.29-9.7,1.33-18.54.78-26.26-5.94-2-1.74-4.36-3.06-6.5-4.64-87.32-64.54-177.7-124.69-267.3-185.97-4.4-3.01-9.07-5.7-13.06-9.17-2.34-2.04-4.01-5.16-5.23-8.11-2.46-5.96,1.61-10.65,8.14-9.53,2.56.44,5.25,1.14,7.45,2.45,4,2.37,7.67,5.28,11.49,7.96,79.58,55.86,159.15,111.74,238.75,167.57,6.54,4.59,13.1,9.19,19.96,13.26,14.64,8.71,30.47,12.72,47.65,12.29,114.52-2.88,229.04-5.24,343.55-8.42,69.24-1.92,138.44-5.02,207.66-7.59,4.66-.17,9.32-.28,13.98-.37,4.96-.1,8.95,1.84,12.31,5.51,3.63,3.96,4.3,9.18.35,12.25-3.51,2.74-7.72,5.27-11.98,6.17-5.11,1.08-10.6.37-15.93.37-89.25,0-178.51,0-268.97,0Z"/>
      <path class="cls-1" d="M732.73,91.02c-.26,9.56-8.55,16.88-18.59,16.42-9.2-.43-16.34-7.49-16.56-16.36-.24-9.6,7.73-17.6,17.5-17.6,9.68,0,17.91,8.19,17.65,17.55Z"/>
    </g>
  </g>
</svg>